<?xml version="1.0" encoding="utf-8"?>
<!-- Generator: Adobe Illustrator 21.0.2, SVG Export Plug-In . SVG Version: 6.00 Build 0)  -->
<svg version="1.1" id="cat_1" xmlns="http://www.w3.org/2000/svg" xmlns:xlink="http://www.w3.org/1999/xlink" x="0px" y="0px"
	 viewBox="0 0 285.61 388.15" style="enable-background:new 0 0 285.61 388.15;" xml:space="preserve">
<title>cat thinking about love</title>
<style type="text/css">
</style>
<g>
	<g>
		<path class="st0" d="M29.84,188.19c-1.05-10.99-2.1-21.98-3.15-32.97c-1.25,0.72-2.51,1.44-3.76,2.16
			c4.54,2.87,9.08,5.73,13.63,8.6c3.92,2.47,7.99,5.78,12.34,7.46c8.31,3.2,15.13-5.82,21.7-9.51c4.44-2.49,9.16-4.44,14.06-5.79
			c2.95-0.81,6.67-1.03,8.76-3.58c2.71-3.32,2.9-9.13,3.83-13.17c1.29-5.58,2.58-11.17,3.88-16.75c-1.39,0.37-2.79,0.74-4.18,1.1
			c11.66,13.87,21.25,29.72,23.51,48.02c2.03,16.48-0.58,36.33-12.36,48.95c-12.1,12.95-31.86,13.18-46.77,5.13
			c-14.67-7.92-24.21-22.39-30.88-37.22c-1.32-2.93-5.63-0.39-4.32,2.52c11.27,25.05,33.79,49.64,64.01,44.57
			c31.24-5.24,39.35-42.57,34.56-69.11c-3.18-17.61-12.85-32.89-24.2-46.39c-1.2-1.43-3.78-0.64-4.18,1.1
			c-1,4.34-2.01,8.68-3.01,13.03c-0.89,3.83-1.23,9.54-3.01,13.03c-2.04,3.99-7.92,4.11-11.73,5.48c-3.09,1.11-6.11,2.44-9.01,3.97
			c-3.21,1.7-6.26,3.66-9.15,5.85c-1.59,1.2-3.08,2.78-4.87,3.68c-2.91,1.47-4.91,0.36-7.62-1.12c-7.71-4.2-15.01-9.47-22.44-14.16
			c-1.51-0.95-3.94,0.26-3.76,2.16c1.05,10.99,2.1,21.98,3.15,32.97C25.14,191.36,30.14,191.39,29.84,188.19L29.84,188.19z"/>
	</g>
</g>
<g>
	<g>
		<path class="st0" d="M88.45,238.97c-0.46,18.22-0.92,36.44-1.37,54.65c-0.45,17.75-2.05,35.93-0.74,53.66
			c0.57,7.67,2.08,15.24,4.68,22.48c1.66,4.61,3.69,10.79,9.78,10.02c13.76-1.75,12.22-24.75,12.94-34.27
			c1.54-20.19,3.07-40.39,4.61-60.58c-1.67,0-3.33,0-5,0c0.47,17.36,1.27,34.71,2.44,52.04c0.53,7.83,1.06,15.76,2.89,23.42
			c1.28,5.34,3.3,13.51,7.92,17.02c4,3.04,8.7,0.42,11.1-3.27c3.83-5.89,4.06-14.15,4.3-20.93c0.62-17.73,0.93-35.48,1.4-53.22
			c0.08-3.22-4.92-3.22-5,0c-0.35,13.58-0.71,27.16-1.06,40.75c-0.19,7.26,0.08,14.74-1.09,21.93c-0.39,2.37-0.94,7.34-2.86,8.96
			c-5.15,4.33-7.1-3.69-8.18-6.74c-4.31-12.19-4.32-25.73-5.08-38.5c-0.82-13.81-1.4-27.62-1.77-41.45c-0.09-3.25-4.76-3.18-5,0
			c-1.44,18.89-2.87,37.78-4.31,56.67c-0.4,5.21-0.78,10.42-1.19,15.63c-0.34,4.28-0.58,8.84-2.47,12.78
			c-1.25,2.6-4.3,6.85-7.67,3.1c-1.1-1.23-1.65-4-2.18-5.51c-1.45-4.18-2.56-8.48-3.31-12.85c-1.6-9.36-1.22-18.89-0.99-28.34
			c0.24-9.61,0.48-19.21,0.72-28.82c0.49-19.54,0.98-39.09,1.47-58.63C93.53,235.75,88.53,235.76,88.45,238.97L88.45,238.97z"/>
	</g>
</g>
<g>
	<g>
		<path class="st0" d="M124.08,206.14c16.5-2.64,31.56,7.91,42.72,18.91c10.79,10.64,19.39,23.58,24.92,37.7
			c6.23,15.89,8.64,32.95,10.15,49.85c1.52,17.08,2.4,34.21,2.81,51.35c0.08,3.21,5.08,3.22,5,0c-0.47-19.59-1.42-39.24-3.53-58.72
			c-1.86-17.27-5.09-34.47-12.38-50.34c-6.59-14.34-16.28-27.36-28.15-37.76c-11.87-10.41-26.64-18.39-42.86-15.8
			C119.58,201.82,120.92,206.64,124.08,206.14L124.08,206.14z"/>
	</g>
</g>
<g>
	<g>
		<path class="st0" d="M190.96,313.88c-12.86-1.78-26.69,3.27-31.27,16.39c-2.37,6.78-0.56,13.18,1.83,19.66
			c0.66,1.8,1.36,3.59,1.88,5.44c0.73,2.55,1.85,3.25-1.13,3.71c-3.59,0.55-7.04,1.4-10.43,2.72c-4.93,1.92-10.27,4.78-8.02,10.95
			c1.86,5.13,7.2,8.21,12.35,9.05c7.72,1.27,15.59-2.03,22.81-4.3c8.75-2.76,17.5-5.52,26.25-8.28c3.06-0.96,1.75-5.79-1.33-4.82
			c-12.6,3.97-25.26,8.89-38.13,11.85c-4.44,1.02-17.82,1.61-16.48-6.08c0.97-5.55,12.03-5.14,16.4-6.57
			c8.51-2.79-0.79-17.41-1.83-22.77c-2.93-15.11,12.62-23.94,25.79-22.11C192.78,319.14,194.14,314.32,190.96,313.88L190.96,313.88z
			"/>
	</g>
</g>
<g>
	<g>
		<path class="st0" d="M207.89,366.86c8.29,0.07,14.79-4.77,20.51-10.31c7.12-6.89,14.07-14.19,20.17-22
			c11.22-14.36,18.35-31.38,21.04-49.39c5.39-36.01-7.05-72.18-29.2-100.48c-3.89-4.97-7.99-9.52-8.83-16.02
			c-0.71-5.48,0.35-11.15,2.27-16.29c3.6-9.65,10.83-17.45,19.91-22.17c2.86-1.49,0.33-5.8-2.52-4.32
			c-13.3,6.92-22.79,20.14-24.58,35.1c-1.09,9.1,1.55,16.27,7.11,23.34c5.85,7.43,11.31,15,15.88,23.29
			c18.28,33.13,22.67,74.45,4.79,108.75c-5.13,9.85-12.08,18.41-19.66,26.47c-7.01,7.46-15.62,19.13-26.89,19.04
			C204.67,361.83,204.67,366.83,207.89,366.86L207.89,366.86z"/>
	</g>
</g>
<g>
	<g>
		<path class="st0" d="M252.12,130.82c5.25-2.59,5.38-9.55,2-13.79c-4.68-5.87-13.12-3.62-18.31,0.26
			c-7.2,5.38-11.56,13.87-14.33,22.23c-3,9.07-5.55,19.72-4.38,29.31c1.2,9.93,6.92,18.76,11.12,27.63
			c4.89,10.35,9.2,20.98,12.92,31.81c6.83,19.93,15.06,43.71,10.67,64.96c-2.55,12.35-10.65,22.79-18.64,32.22
			c-8.14,9.6-17.34,18.26-27.38,25.84c-2.54,1.91-0.05,6.26,2.52,4.32c14.07-10.63,26.51-23.12,36.84-37.42
			c5.22-7.22,9.67-14.8,11.47-23.62c1.72-8.43,1.45-17.08,0.24-25.57c-2.63-18.49-8.58-36.81-15.34-54.16
			c-3.42-8.78-7.22-17.42-11.39-25.87c-4.51-9.13-9.09-17.68-8.11-28.2c0.93-9.96,3.51-20.84,8.49-29.58
			c2.61-4.57,6.24-9.33,11.11-11.64c2.71-1.29,6.8-1.94,8.81,0.87c1.39,1.94,1.52,4.94-0.84,6.1
			C246.71,127.93,249.24,132.24,252.12,130.82L252.12,130.82z"/>
	</g>
</g>
<g>
	<g>
		<path class="st0" d="M78.8,202.25c2.45-1.01,4.89-2.02,7.34-3.02c0.56-0.23,1.33-0.41,1.83-0.76c0.31-0.13,0.61-0.25,0.92-0.38
			c-0.22-0.29-0.44-0.58-0.66-0.87c0.09-0.01-0.07,4.26-0.08,4.44c-0.1,1.36-0.16,2.92-0.61,4.22c-0.26,0.75,0.43,0.22-0.16-0.17
			c-0.48-0.31-0.99-0.57-1.48-0.88c-2.13-1.37-3.97-3.05-5.65-4.94c-2.14-2.41-5.67,1.14-3.54,3.54c2.61,2.93,6.62,6.8,10.58,7.75
			c4.39,1.05,5.17-3.93,5.58-7.06c0.41-3.06,1.74-9.47-2.12-10.97c-2.02-0.78-4.13,0.51-5.96,1.26c-2.45,1.01-4.89,2.02-7.34,3.02
			C74.54,198.64,75.83,203.48,78.8,202.25L78.8,202.25z"/>
	</g>
</g>
<g>
	<g>
		<path class="st0" d="M96.04,176.61c-0.02-2.71,1.25-5.2,3.55-6.69c2.13-1.38,5.5-1.56,5.85,1.06c-0.41-3.14-5.42-3.19-5,0
			c0.45,3.43,4.09,5.79,7.37,3.91c3.56-2.04,2.91-7.27-0.03-9.5c-3.31-2.51-8.12-1.66-11.31,0.62c-3.44,2.45-5.46,6.37-5.43,10.6
			C91.06,179.82,96.06,179.83,96.04,176.61L96.04,176.61z"/>
	</g>
</g>
<g>
	<g>
		<path class="st0" d="M49.43,194.97c0.54-3.01,1.87-5.7,4.17-7.77c0.63-0.56,3.03-2.64,4-2.1c0.59,0.32-0.16,1.23-0.73,0.03
			c-1.38-2.9-5.7-0.37-4.32,2.52c1.42,2.98,5.54,4.04,8.21,2.05c2.74-2.04,2.52-6.26,0.05-8.42c-3.15-2.76-7.52-0.32-10.19,1.9
			c-3.16,2.64-5.28,6.42-6.01,10.46C44.04,196.79,48.86,198.14,49.43,194.97L49.43,194.97z"/>
	</g>
</g>
<g>
	<g>
		<path class="st0" d="M87.52,210.9c0.46,3.37,0.84,8.07-2.47,10.15c-2.35,1.48-5.55,1.24-7.57-0.65c-2.34-2.2-5.89,1.33-3.54,3.54
			c3.65,3.43,9.31,4.05,13.63,1.43c5.55-3.37,5.54-10.1,4.77-15.8C91.91,206.39,87.1,207.74,87.52,210.9L87.52,210.9z"/>
	</g>
</g>
<g>
	<g>
		<path class="st0" d="M87.48,212.85c3.24,4.59,7.43,9.69,13.69,9.14c4.89-0.43,8.65-5.12,7.09-9.98c-0.98-3.05-5.81-1.75-4.82,1.33
			c1.16,3.62-3.34,4.14-5.71,3.02c-2.61-1.23-4.31-3.75-5.93-6.04C89.96,207.72,85.62,210.21,87.48,212.85L87.48,212.85z"/>
	</g>
</g>
<g>
	<g>
		<path class="st0" d="M126.06,172.32c4.27-3.87,8.55-7.74,12.82-11.6c2.39-2.16-1.15-5.69-3.54-3.54
			c-4.27,3.87-8.55,7.74-12.82,11.6C120.13,170.95,123.68,174.47,126.06,172.32L126.06,172.32z"/>
	</g>
</g>
<g>
	<g>
		<path class="st0" d="M123.64,179.13c11.39,2.97,21.54-2.42,31.02-8.19c2.74-1.67,0.23-6-2.52-4.32
			c-8.26,5.03-17.15,10.3-27.17,7.69C121.85,173.49,120.52,178.32,123.64,179.13L123.64,179.13z"/>
	</g>
</g>
<g>
	<g>
		<path class="st0" d="M126.11,188.3c6.11,0,12.21,0,18.32,0c3.22,0,3.22-5,0-5c-6.11,0-12.21,0-18.32,0
			C122.89,183.3,122.89,188.3,126.11,188.3L126.11,188.3z"/>
	</g>
</g>
<g>
	<g>
		<path class="st0" d="M36.19,207.49c-9.74,3.21-19.66,5.61-29.79,7.2c-3.17,0.5-1.82,5.32,1.33,4.82
			c10.13-1.59,20.05-3.98,29.79-7.2C40.56,211.31,39.26,206.48,36.19,207.49L36.19,207.49z"/>
	</g>
</g>
<g>
	<g>
		<path class="st0" d="M39.2,214.57c-8.55,6.54-16.05,14.02-22.61,22.56c-1.96,2.55,2.38,5.04,4.32,2.52c6-7.8,13-14.78,20.82-20.77
			C44.25,216.96,41.76,212.61,39.2,214.57L39.2,214.57z"/>
	</g>
</g>
<g>
	<g>
		<path class="st0" d="M44.56,221.78c-3.87,7.29-7.19,14.83-9.99,22.59c-1.09,3.03,3.74,4.34,4.82,1.33
			c2.65-7.37,5.82-14.48,9.48-21.4C50.39,221.46,46.07,218.93,44.56,221.78L44.56,221.78z"/>
	</g>
</g>
<g>
	<g>
		<path class="st0" d="M56.06,172.13c11.97,10.68,30.56,2.56,30.33-13.67c-0.04-3.21-5.05-3.22-5,0
			c0.16,11.63-12.99,17.98-21.79,10.13C57.2,166.46,53.65,169.99,56.06,172.13L56.06,172.13z"/>
	</g>
</g>
<g>
	<g>
		<path class="st0" d="M91.54,357.68c5.19-1.14,10.33-0.4,15,2.13c2.83,1.53,5.36-2.78,2.52-4.32c-5.88-3.18-12.33-4.07-18.85-2.63
			C87.07,353.56,88.39,358.38,91.54,357.68L91.54,357.68z"/>
	</g>
</g>
<g>
	<g>
		<path class="st0" d="M124.53,364.55c4.41-1.31,8.85-2.03,13.45-2.14c3.21-0.08,3.22-5.08,0-5c-5.03,0.13-9.96,0.89-14.78,2.32
			C120.13,360.64,121.44,365.47,124.53,364.55L124.53,364.55z"/>
	</g>
</g>
<g>
	<g>
		<path class="st0" d="M154.61,365.75c2.95,2.18,2.18,6.71,1.69,9.79c-0.5,3.15,4.32,4.5,4.82,1.33c0.91-5.75,1.14-11.64-3.99-15.43
			C154.55,359.51,152.05,363.85,154.61,365.75L154.61,365.75z"/>
	</g>
</g>
<g>
	<g>
		<path class="st0" d="M235.1,121.15c1.01,3.42-0.48,6.97,0.4,10.45c0.69,2.72,2.28,4.66,4.92,5.65c3.02,1.13,4.32-3.7,1.33-4.82
			c-1.98-0.74-1.63-3.96-1.5-5.57c0.2-2.43,0.37-4.67-0.33-7.04C239.01,116.74,234.18,118.05,235.1,121.15L235.1,121.15z"/>
	</g>
</g>
<g>
	<g>
		<path class="st0" d="M37.4,179.08c0.02-1.82,0.03-3.64,0.05-5.46c-1.05,0.8-2.11,1.61-3.16,2.41c1.56,0.49,2.99,1.16,4.39,2.02
			c2.75,1.7,5.26-2.63,2.52-4.32c-1.74-1.08-3.63-1.92-5.58-2.53c-1.57-0.49-3.15,0.84-3.16,2.41c-0.02,1.82-0.03,3.64-0.05,5.46
			C32.37,182.3,37.37,182.3,37.4,179.08L37.4,179.08z"/>
	</g>
</g>
<g>
	<g>
		<path class="st0" d="M101.98,150.92c-0.2-1.49-0.23-3.87,0.63-5.17c-0.3,0.3-0.6,0.6-0.9,0.9c0.11-0.07,0.21-0.14,0.32-0.21
			c-0.42,0.11-0.84,0.23-1.26,0.34c-0.27-0.08-0.26-0.04,0.03,0.1c0.22,0.14,0.44,0.29,0.66,0.43c0.44,0.29,0.87,0.59,1.29,0.89
			c0.82,0.58,1.63,1.19,2.42,1.82c1.05,0.84,2.51,1.03,3.54,0c0.87-0.87,1.06-2.69,0-3.54c-1.39-1.11-2.82-2.19-4.29-3.2
			c-1.44-0.98-3.14-2.14-4.9-1.17c-3.09,1.7-2.75,7.2-2.35,10.13c0.18,1.34,1.9,2.07,3.08,1.75
			C101.68,153.6,102.17,152.26,101.98,150.92L101.98,150.92z"/>
	</g>
</g>
<g>
	<g>
		<path class="st0" d="M129.26,148.53c3.52-0.84,5.59-3.84,6.1-7.3c0.49-3.26,0.55-8.81-2.8-10.7c-3.03-1.71-6.51,0.24-8.36,2.75
			c-2.15,2.91-2.64,6.75-1.39,10.13c1.11,2.99,5.94,1.7,4.82-1.33c-0.47-1.28-0.69-2.54-0.34-3.89c0.24-0.92,1.5-3.67,2.68-3
			c0.88,0.5,0.61,3.66,0.55,4.56c-0.14,1.78-0.68,3.49-2.58,3.94C124.8,144.46,126.13,149.28,129.26,148.53L129.26,148.53z"/>
	</g>
</g>
<g>
	<g>
		<path class="st0" d="M148.39,117.13c-3.72,2.43-5.24,7.21-2.63,11.07c2.49,3.68,7.49,4.77,11.32,2.55
			c8.74-5.08,4.15-17.72-5.07-18.44c-3.21-0.25-3.19,4.75,0,5c3.66,0.29,6.38,5.01,3.82,8.04c-3.28,3.89-9.17-1.12-4.92-3.9
			C153.6,119.7,151.1,115.37,148.39,117.13L148.39,117.13z"/>
	</g>
</g>
<g>
	<g>
		<path class="st0" d="M160.45,101.22c-1.01,4.16,0.79,8.67,4.63,10.73c1.77,0.95,4.04,1.34,5.88,0.4c2.05-1.05,3.06-3.58,3.79-5.64
			c1.46-4.17,1.02-9.54-3.14-11.97c-3.34-1.96-7.79-1.44-9.86,2.01c-1.67,2.76,2.66,5.28,4.32,2.52c0.63-1.04,2.12-0.76,3.02-0.21
			c1.86,1.12,1.6,3.77,1.09,5.56c-0.23,0.79-0.63,2.5-1.32,3.01c-0.61,0.46-1.38,0.01-2.02-0.49c-1.38-1.09-1.97-2.9-1.56-4.59
			C166.03,99.43,161.21,98.09,160.45,101.22L160.45,101.22z"/>
	</g>
</g>
<g>
	<g>
		<path class="st0" d="M215.64,48.16c-3.14-3.21-9.19-9.54-14.26-8.64c-4.43,0.79-6.28,6.91-6.37,10.71
			c-0.15,5.9,2.96,10.21,7.46,13.7c2.73,2.12,5.58,4.11,8.37,6.16c1.91,1.4,4.13,3.76,6.68,3.92c5.13,0.33,8.07-7.56,10.13-10.94
			c2.97-4.87,7.2-10.37,6.42-16.45c-0.54-4.25-3.49-8.14-8-8.48c-6.09-0.46-9.94,4.8-12.12,9.74c-1.28,2.92,3.03,5.47,4.32,2.52
			c1.41-3.22,6.13-11.16,10.05-5.33c2.17,3.22-0.16,7.31-1.79,10.2c-1.45,2.57-3.08,5.06-4.61,7.58c-0.69,1.13-1.83,3.78-2.83,4.64
			c-1.77,1.52-2.7,0.48-4.25-0.66c-4.82-3.53-12.95-7.43-14.54-13.64c-0.57-2.25-0.6-8.75,3.08-8.34c2.93,0.32,6.77,4.83,8.72,6.83
			C214.36,54,217.89,50.47,215.64,48.16L215.64,48.16z"/>
	</g>
</g>
<g>
	<g>
		<path class="st0" d="M200.89,47.17c2,9.17,11.31,13.37,15.06,21.52c1.31-1.01,2.62-2.02,3.93-3.03
			c-3.95-3.87-8.11-7.62-11.89-11.66c-1.64-1.75-2.09-3.5-3.13-5.49c-0.54-1.02-1.2-2.02-2.37-2.39c-3.48-1.09-4.88,3.12-4.48,5.76
			c0.62,4.1,4.3,7.04,7.09,9.75c2.8,2.72,5.83,5.96,9.88,6.57c3.08,0.47,6.02-0.55,5.69-4.09c-0.74-8.01-7.92-15.69-14.3-19.79
			c-2.72-1.74-5.23,2.58-2.52,4.32c4.87,3.12,12.19,10.28,11.82,16.76c0.41-0.72,0.83-1.44,1.24-2.16
			c-3.06,1.55-15.62-10.59-13.56-13.45c-0.72,0.41-1.44,0.83-2.16,1.24c-2.18,0.02,4.09,7.31,4.71,7.92
			c3.47,3.42,6.97,6.82,10.45,10.23c2.13,2.09,5.07-0.54,3.93-3.03c-3.52-7.65-12.72-11.92-14.55-20.33
			C205.03,42.7,200.21,44.03,200.89,47.17L200.89,47.17z"/>
	</g>
</g>
<g>
	<g>
		<path class="st0" d="M218.62,60.55c2.9-3.82,5.86-7.6,8.71-11.47c1.64-2.23,2.34-5.01-0.68-6.52c-2.85-1.42-5.69,0.55-7.47,2.7
			c-1.52,1.83-2.8,3.87-4.17,5.81c-1.1,1.55-2.68,3.16-3.3,4.97c-1.9,5.55,5.16,12.16,10.56,9.51c3.24-1.59,5.43-6.09,6.97-9.12
			c1.96-3.85,3.33-7.92,4.17-12.16c0.49-2.46-2.27-4.15-4.18-2.43c-5.77,5.18-8.8,12.2-11.69,19.23c-1.22,2.97,3.61,4.27,4.82,1.33
			c2.57-6.26,5.28-12.42,10.41-17.03c-1.39-0.81-2.79-1.62-4.18-2.43c-0.8,4.02-2.04,7.9-3.96,11.54c-0.66,1.25-2.4,5.24-3.71,5.81
			c-1.14,0.49-3.69-0.28-4.17-1.52c-0.51-1.31,0.61-2.39,1.29-3.35c1.29-1.83,2.58-3.67,3.88-5.49c0.47-0.66,1.63-1.64,1.92-2.38
			c0.02-0.72,0.04-1.43,0.06-2.15c-0.44,0.57-0.87,1.15-1.31,1.72c-2.76,3.63-5.52,7.26-8.27,10.9
			C212.35,60.59,216.69,63.08,218.62,60.55L218.62,60.55z"/>
	</g>
</g>
<g>
	<g>
		<path class="st0" d="M205.43,91.36c-6.59,1.67-15.36,3.95-20.66-1.85c-3.5-3.83-0.06-9.58-4.24-12.81
			c-3.24-2.5-7.7-1.12-11.38-0.93c-6.86,0.35-12.15-5.88-10.12-12.67c0.9-3,3.05-5.67,5.66-7.37c2.32-1.51,5.18-1.94,7.34-3.73
			c3.16-2.62,3.36-6.54,2.84-10.35c-0.82-6-1.81-11.81,3.13-16.47c5.17-4.89,15.04-2.62,15.8,5.11c0.28,2.88,3.84,3.31,4.91,0.66
			c3.31-8.18,8.37-19.76,19.09-18.55c5.34,0.61,6.22,4.19,8.19,8.43c1.23,2.66,3.1,4.76,6.16,5.14c4.25,0.53,8.1-2.64,11.87-4.03
			c5.16-1.91,11.28-2.28,16.33,0.2c9.76,4.82,12.04,21.06-1.05,22.95c-2.63,0.38-2.1,4.13,0,4.82c3.97,1.31,7.71,3.11,11.08,5.6
			c1.54,1.14,3.14,2.48,4.45,3.9c2.34,2.51,3.59,4.06,1.88,7.21c-3.95,7.23-18.13,8.21-25.51,8.06c-1.46-0.03-3.05,1.65-2.41,3.16
			c2.63,6.23,3.26,14.17-1.5,19.63c-4.34,4.96-12.46,5.73-17.13,0.94c-2.25-2.31-5.79,1.23-3.54,3.54
			c5.92,6.07,15.79,6.08,22.31,0.83c7.78-6.26,8.32-17.65,4.69-26.27c-0.8,1.05-1.61,2.11-2.41,3.16c6.82,0.14,13.57-0.85,19.96-3.3
			c4.56-1.74,10.8-4.14,11.72-9.63c1.83-10.9-14.06-18.95-22.25-21.66c0,1.61,0,3.21,0,4.82c10.48-1.51,15.78-13.35,11.49-22.62
			c-5.3-11.45-19.27-14.1-30.22-9.89c-3.98,1.53-7.92,5.26-11.57,0.89c-1.39-1.66-1.49-4.47-2.99-6.29
			c-2.81-3.4-7.26-4.86-11.59-4.67c-12.27,0.52-17.85,12.39-21.86,22.3c1.64,0.22,3.27,0.44,4.91,0.66
			c-1.31-13.3-18.34-16.96-26.1-6.63c-1.93,2.57-3.16,5.6-3.58,8.79c-0.52,3.94,0.94,7.42,0.99,11.3c0.07,5.7-5.47,5.8-9.11,8.51
			c-2.45,1.82-4.46,4.2-5.77,6.96c-2.6,5.46-2.02,11.8,1.91,16.48c4.9,5.84,10.32,4.73,17.06,4.57c3.29-0.08,3.3,0.81,3.47,3.85
			c0.09,1.6,0.18,2.99,0.75,4.53c1.01,2.7,3.04,4.98,5.4,6.59c6.9,4.7,15.43,2.87,22.95,0.97
			C209.87,95.39,208.55,90.57,205.43,91.36L205.43,91.36z"/>
	</g>
</g>
<g>
	<g>
		<path class="st0" d="M206.6,85.01c-3.49,6.2,1.57,12.69,7.93,13.76c5.79,0.98,16.11-0.49,18.83-6.52c1.31-2.91-3-5.46-4.32-2.52
			c-1.38,3.06-5.72,3.54-8.74,3.98c-3.42,0.5-12.63-0.42-9.39-6.18C212.5,84.73,208.18,82.21,206.6,85.01L206.6,85.01z"/>
	</g>
</g>
<g>
	<g>
		<path class="st0" d="M62.69,173.57c4.42,0.65,8.7,0.12,12.67-2.04c2.96-1.61,7.43-5.04,6.55-8.95c-0.92-4.1-6.44-3.56-9.48-2.79
			c-4.15,1.05-7.46,3.63-9.92,7.06c-0.94,1.31,0.04,3.31,1.49,3.67c8.23,2.07,14.4-3.55,19.42-9.33c2.1-2.42-1.42-5.97-3.54-3.54
			c-3.68,4.23-8.3,9.62-14.56,8.05c0.5,1.22,1,2.45,1.49,3.67c1.19-1.66,2.73-3.02,4.57-3.92c1.12-0.54,2.19-0.8,3.39-1.07
			c1.01-0.23,2.27-0.97,1.58,0.02c-2.53,3.65-8.22,4.95-12.35,4.34C60.87,168.28,59.51,173.1,62.69,173.57L62.69,173.57z"/>
	</g>
</g>
<g>
	<g>
		<path class="st0" d="M93.84,356.81c-1.01,4.13-2.02,8.83,0.13,12.79c1.66,3.06,4.94,5.35,8.51,4.84c3.73-0.52,6.23-3.79,6.9-7.33
			c0.63-3.28,0.27-8.7-2.24-11.2c-2.27-2.26-5.88-2.01-8.35-0.24c-2.86,2.04-3.44,5.64-2.27,8.8c1,2.69,4.06,6.59,7.38,5.71
			c1.47-0.39,2.44-1.56,2.86-2.99c0.62-2.12-0.71-3.87-0.46-5.93c0.38-3.19-4.62-3.16-5,0c-0.08,0.71-0.06,4.04,0.69,4.3
			c2.06,0.71-0.42-2.05-0.32-1.88c-0.3-0.47-0.58-1.02-0.68-1.58c-0.21-1.15,0.32-2.87,1.79-2.83c1.56,0.05,1.6,2.59,1.73,3.77
			c0.28,2.64-0.97,8.69-4.81,5.77c-3.24-2.46-1.85-7.36-1.04-10.66C99.43,355.02,94.61,353.69,93.84,356.81L93.84,356.81z"/>
	</g>
</g>
<g>
	<g>
		<path class="st0" d="M124.43,364.64c0.6,2.76,1.86,6.02,4.77,7.02c2.87,0.99,5.73-0.66,7-3.27c1.28-2.63,1-7.37-0.83-9.71
			c-2.1-2.69-5.46-1.41-7.29,0.84c-3.66,4.51-5.52,15.67,2.92,16.29c7.88,0.58,6.37-9.35,5.29-14.02c-0.72-3.13-5.55-1.81-4.82,1.33
			c0.46,1.99,1.3,4.34,0.86,6.41c-0.27,1.26-1.09,1.75-2.06,0.48c-0.94-1.22-0.34-3.08,0.15-4.33c0.24-0.63,0.53-1.23,0.84-1.83
			c0.13-0.26,1.02-1.44,1.03-1.58c-0.28-0.18-0.56-0.36-0.84-0.54c0.05,0.23,0.11,0.45,0.16,0.68c-0.13,0.86,0.4,1.85,0.28,2.78
			c-0.48,3.85-2.31-0.37-2.64-1.89C128.57,360.16,123.75,361.49,124.43,364.64L124.43,364.64z"/>
	</g>
</g>
<g>
	<g>
		<path class="st0" d="M130.02,370.47c3.22,0,3.22-5,0-5C126.8,365.47,126.79,370.47,130.02,370.47L130.02,370.47z"/>
	</g>
</g>
<g>
	<g>
		<path class="st0" d="M130.02,369.79c3.22,0,3.22-5,0-5C126.8,364.79,126.79,369.79,130.02,369.79L130.02,369.79z"/>
	</g>
</g>
<g>
	<g>
		<path class="st0" d="M129.34,367.1c3.22,0,3.22-5,0-5C126.12,362.1,126.12,367.1,129.34,367.1L129.34,367.1z"/>
	</g>
</g>
<g>
	<g>
		<path class="st0" d="M130.18,363.98c-0.88,0.27-2.05,0.16-2.67-0.68c-0.8-1.08-2.17-1.63-3.42-0.9c-1.07,0.63-1.7,2.33-0.9,3.42
			c1.93,2.62,5.11,3.94,8.31,2.98C134.58,367.88,133.27,363.05,130.18,363.98L130.18,363.98z"/>
	</g>
</g>
<g>
	<g>
		<path class="st0" d="M93.65,361.17c2.48-1.01,4.78,0.71,5.59,3.12c1.05,3.15-0.3,6.78-1.23,9.79c-0.96,3.08,3.87,4.4,4.82,1.33
			c1.52-4.88,2.99-10.65-0.09-15.25c-2.24-3.35-6.52-5.4-10.41-3.81C89.38,357.55,90.67,362.39,93.65,361.17L93.65,361.17z"/>
	</g>
</g>
<g>
	<g>
		<path class="st0" d="M151.8,367.97c0.21,1.36-0.04,2.66-0.5,3.94c1.03-0.58,2.05-1.16,3.08-1.75c-0.09-0.03-0.17-0.06-0.26-0.09
			c0.37,0.21,0.74,0.43,1.1,0.64c0.31,0.82,0.43,0.94,0.35,0.34c-0.02-0.34-0.06-0.68-0.11-1.01c-0.08-0.43-0.18-0.79-0.4-1.19
			c-0.48-0.88-1.37-1.53-2.33-1.8c-1.9-0.53-4.14,0.29-5.08,2.06c-1.08,2.03-0.33,4.56,1.29,6.07c1.76,1.64,4.19,1.85,6.48,1.86
			c3.22,0.01,3.22-4.99,0-5c-0.85,0-2.06,0.14-2.82-0.34c-0.12-0.07-0.44-0.54-0.48-0.55c0.27,0.05-0.52,0.72-0.58,0.74
			c-0.45,0.09-0.72-1.22-0.96-0.84c-0.15,0.23,0.11,1.32,0.16,1.51c0.33,1.26,1.11,2,2.32,2.43c1.34,0.48,2.65-0.55,3.08-1.75
			c0.78-2.16,0.85-4.34,0.5-6.59c-0.21-1.33-1.88-2.08-3.08-1.75C152.13,365.28,151.59,366.63,151.8,367.97L151.8,367.97z"/>
	</g>
</g>
<g>
	<g>
		<path class="st0" d="M244.54,121.6c-0.67,0-1.35,0-2.02,0c-1.31,0-2.56,1.15-2.5,2.5c0.06,1.35,1.1,2.5,2.5,2.5
			c0.67,0,1.35,0,2.02,0c1.31,0,2.56-1.15,2.5-2.5C246.98,122.75,245.94,121.6,244.54,121.6L244.54,121.6z"/>
	</g>
</g>
<g>
	<g>
		<path class="st0" d="M239.61,123.5c-0.49,2.44-0.73,5.37,1.23,7.28c2.11,2.06,5.23,1.46,7.49,0c2-1.31,5.13-3.79,5.1-6.45
			c-0.04-2.8-3.27-4.81-5.57-5.68c-2.81-1.07-6.14-1.14-8.2,1.33c-1.8,2.16-2.57,5.54-1.56,8.2c0.89,2.34,3.36,4.04,5.9,3.78
			c1.34-0.14,2.44-0.73,3.31-1.74c0.98-1.11,1.16-2.61,2.07-3.73c0.99-1.23,1.01-3.05-0.51-3.93c-4.77-2.77-9.11,6.65-10.13,9.96
			c-0.95,3.08,3.88,4.4,4.82,1.33c0.43-1.41,1.01-2.71,1.81-3.95c0.48-0.74,1.66-2.75,2.59-2.96c-0.64-0.08-1.28-0.17-1.93-0.25
			c0.11,0.06,0.21,0.12,0.32,0.19c-0.17-1.31-0.34-2.62-0.51-3.93c-0.57,0.71-2.06,4.2-2.76,3.87c-0.71-0.34-0.41-1.82-0.24-2.31
			c0.54-1.55,1.56-1.74,2.98-1.29c0.6,0.19,2.6,0.97,2.72,1.71c-0.21-1.24-1.08,0.15-1.46,0.5c-0.28,0.26-2.18,2.03-2.63,1.71
			c-0.54-0.38-0.11-1.81-0.01-2.31C245.06,121.69,240.24,120.35,239.61,123.5L239.61,123.5z"/>
	</g>
</g>
<g>
	<g>
		<path class="st0" d="M154.17,371.83c0,0.33,0,0.65,0,0.98c0,1.31,1.15,2.56,2.5,2.5c1.35-0.06,2.5-1.1,2.5-2.5
			c0-0.33,0-0.65,0-0.98c0-1.31-1.15-2.56-2.5-2.5C155.31,369.39,154.17,370.42,154.17,371.83L154.17,371.83z"/>
	</g>
</g>
<g>
	<g>
		<path class="st0" d="M123.92,361.83c3.75-2.19,7.96-3.03,12.26-2.24c3.15,0.57,4.5-4.24,1.33-4.82
			c-5.64-1.03-11.15-0.15-16.11,2.75C118.62,359.13,121.13,363.46,123.92,361.83L123.92,361.83z"/>
	</g>
</g>
<g>
</g>
<g>
</g>
<g>
</g>
<g>
</g>
<g>
</g>
<g>
</g>
</svg>
