<?xml version="1.0" encoding="utf-8"?>
<!-- Generator: Adobe Illustrator 21.0.2, SVG Export Plug-In . SVG Version: 6.00 Build 0)  -->
<svg version="1.1" id="cat_2" xmlns="http://www.w3.org/2000/svg" xmlns:xlink="http://www.w3.org/1999/xlink" x="0px" y="0px"
	 viewBox="0 0 358.47 225.77" style="enable-background:new 0 0 358.47 225.77;" xml:space="preserve">
<title>2 cats with tails in shape of heart</title>
<style type="text/css">
</style>
<g>
	<g>
		<path class="st0" d="M12.65,115.23c-0.01-2.06-0.02-4.13-0.04-6.19c-0.01-0.88-0.01-1.77-0.02-2.65
			c-0.56-1.72-0.25-2.19,0.93-1.42c2.54-0.11,5.85,5.62,7.58,7.04c5.08,4.17,10.36,1.81,15.59-0.65c4.36-2.04,8.74-3.28,13.55-3.55
			c2.56-0.14,5.19,0.23,7.13-1.79c1.81-1.88,2.04-4.84,2.8-7.22c1.32-4.13,3.28-7.87,5.67-11.48c-1.44,0-2.88,0-4.32,0
			c10.39,15.31,12.73,37.64-3.41,50.07c-7.52,5.79-17.05,6.87-25.74,3.02c-9.68-4.3-15.97-13.19-19.75-22.79
			c-1.17-2.96-6-1.67-4.82,1.33c4.31,10.95,11.32,20.97,22.33,25.95c9.51,4.29,20.34,3.69,29.06-2.13
			c19.88-13.27,18.96-39.82,6.65-57.96c-1.08-1.59-3.24-1.62-4.32,0c-1.99,3.01-3.7,6.14-5.03,9.5c-0.71,1.79-1.03,3.9-1.84,5.61
			c-1.52,3.19-3.26,2.76-6.23,3.03c-3.87,0.35-7.65,1.27-11.25,2.74c-3.97,1.62-8.52,5.36-12.74,2.52
			c-4.22-2.83-7.19-10.22-13.66-8.1c-5.36,1.76-3.15,11.06-3.12,15.14C7.67,118.44,12.67,118.45,12.65,115.23L12.65,115.23z"/>
	</g>
</g>
<g>
	<g>
		<path class="st0" d="M46.45,147.67c-0.44,23.93,0.45,47.84,2.65,71.67c0.17,1.8,2.02,3.23,3.76,2.16
			c16.43-10.08,9.73-31.69,15.29-46.98c-1.61,0-3.21,0-4.82,0c2.11,9.66,4.21,19.31,6.32,28.97c1.3,5.94,2.31,12.92,8.33,15.92
			c1.39,0.69,3.27,0.16,3.67-1.49c2.12-8.7,3.63-17.52,4.44-26.44c0.75-8.3-0.5-18.46,3.82-25.94c4.57-7.93,16.65-10.49,24.4-5.72
			c8.2,5.04,7.21,19.41,8.13,27.76c0.9,8.18,0.74,17.44,3.11,25.35c1.23,4.12,4.63,8.87,9.54,7.13c6.13-2.17,5.36-11.29,5.75-16.36
			c0.81-10.24,1.61-20.48,2.42-30.72c-1.64,0.22-3.27,0.44-4.91,0.66c2.49,11.98,4.45,24.22,7.49,36.08
			c1.31,5.11,7.22,12.63,12.19,6.04c2.12-2.82,1.86-6.95,2.02-10.27c0.3-6.19,0.6-12.37,0.9-18.56c0.54-11.23,1.41-22.77-1.79-33.71
			c-2.98-10.16-8.84-19.24-13.57-28.62c-5.27-10.45-9.92-21.26-12.75-32.64c-4.99-20.11-3.61-43.62,10.37-60.03
			c4.17-4.89,9.47-9.62,16.28-9.48c5.9,0.12,12.23,2.88,17.2,5.88c11.38,6.89,18.43,19.08,16.82,32.5c-0.38,3.19,4.62,3.16,5,0
			c2.4-19.96-12.54-36.41-30.83-41.89c-9.63-2.88-17.63-0.83-24.84,6.09c-6.59,6.32-11.26,14.47-14.12,23.09
			c-6.5,19.6-3.32,40.67,3.87,59.59c4.01,10.54,9.2,20.52,14.49,30.46c6,11.27,9.48,21.95,9.39,34.83c-0.04,6.5-0.48,13-0.8,19.49
			c-0.18,3.71-0.36,7.42-0.54,11.13c-0.07,1.46,0.6,7.35-0.71,8.29c-3.54,2.56-4.51-7.09-4.76-8.28c-0.72-3.48-1.44-6.96-2.17-10.44
			c-1.44-6.96-2.89-13.92-4.33-20.89c-0.61-2.92-4.7-1.99-4.91,0.66c-0.78,9.91-1.56,19.82-2.34,29.73
			c-0.18,2.25-0.25,15.79-4.64,11.08c-2.31-2.48-1.93-8.99-2.26-12.02c-1.03-9.34-1.96-18.7-3.11-28.03
			c-0.79-6.44-2.2-13.25-7.75-17.34c-11.09-8.16-28.72-3.25-33.85,9.37c-2.82,6.92-2.41,14.67-2.92,21.99
			c-0.67,9.74-2.25,19.35-4.56,28.83c1.22-0.5,2.45-1,3.67-1.49c-5.79-2.88-6.09-13.2-7.3-18.72c-1.68-7.73-3.37-15.45-5.05-23.18
			c-0.57-2.6-4.04-2.14-4.82,0c-4.91,13.52,1.29,35.24-12.99,44c1.25,0.72,2.51,1.44,3.76,2.16c-2.2-23.83-3.09-47.74-2.65-71.67
			C51.51,144.45,46.51,144.45,46.45,147.67L46.45,147.67z"/>
	</g>
</g>
<g>
	<g>
		<path class="st0" d="M195.4,62.26c2.64,4.01,8.41,3.9,11.31,0.07c4.35-5.73-0.45-14.73-2.9-20.29
			c-6.5-14.71-17.33-26.65-32.8-31.92c-14.57-4.96-32.5-4.04-42.52,8.9c-10.15,13.11-11.64,31.6-13.75,47.47
			c-2.56,19.24-3.13,39.24,6.13,56.89c1.14-1.14,2.28-2.28,3.42-3.42c-16.34-8.14-34.81-10.09-52.48-5.43
			c-3.11,0.82-1.79,5.64,1.33,4.82c16.33-4.31,33.5-2.61,48.63,4.93c2.24,1.12,4.61-1.14,3.42-3.42
			c-7.99-15.23-7.97-32.59-6.08-49.28c1.78-15.68,3.1-34.88,12.36-48.2c10.49-15.1,32.57-12.87,46.77-4.5
			c7.01,4.13,12.58,10.04,16.77,16.98c2.15,3.55,3.96,7.3,5.5,11.14c0.8,1.99,1.67,4.05,2.22,6.13c0.44,1.32,0.66,2.68,0.67,4.07
			c-0.61,2.87-1.83,3.71-3.67,2.54C197.95,57.06,193.62,59.56,195.4,62.26L195.4,62.26z"/>
	</g>
</g>
<g>
	<g>
		<path class="st0" d="M218.04,62.06c1.14-14.85-5.45-37.3,11.27-45.76c13.88-7.02,32.66-1.07,43.08,9.34
			c13.4,13.39,13.81,32.56,9.99,50.02c-3.83,17.54-14.81,31.09-25.55,44.99c-1.94,2.52,1.57,6.08,3.54,3.54
			c9.46-12.24,19.72-24.4,24.72-39.29c4.89-14.55,6.8-32.36,1.17-46.94c-4.9-12.69-15.52-22.71-28.4-27.02
			c-11.39-3.81-26.47-3.98-35.97,4.36c-13.43,11.8-7.67,31.29-8.85,46.75C212.79,65.27,217.79,65.25,218.04,62.06L218.04,62.06z"/>
	</g>
</g>
<g>
	<g>
		<path class="st0" d="M213.23,60.79c-0.3,0.93-0.44,1.53-0.53,2.46c-0.13,1.42,1.25,2.41,2.5,2.5c5.08,0.37,6.64-0.62,8.8-5.43
			c2.45-5.42,3.08-11.24,3.93-17.05c0.77-5.24,1.91-9.75,4.68-14.28c3.48-5.7,10.63-6.08,16.49-4.27
			c11.76,3.62,17.19,15.59,20.22,26.52c3.43,12.38,1.36,24.52-4.79,35.68c-10.95,19.88-30.75,32.91-42.07,52.38
			c-5.68,9.78-8.68,20.79-10.19,31.94c-1.39,10.25-2.72,22-1.46,32.32c0.5,4.06,2.27,9.02,6.39,10.63c4.16,1.63,8.09-1.32,9.69-5.14
			c2.29-5.45,1.51-13.34,2.12-19.16c0.83-7.97,2.1-15.84,4.27-23.56c-1.52,0.2-3.05,0.4-4.57,0.6c0.42,0.63,0.78,1.29,1.07,1.98
			c0.33,1,0.5,0.77,0.51-0.7c0.94-0.38,1.88-0.77,2.82-1.15c0.52,0.14,0.57-0.1,0.16-0.72c-1.61,0-3.21,0-4.82,0
			c3.88,9.73,4.36,19.98,4.3,30.35c-0.04,6.18-1.42,13.39,6.27,14.96c5.15,1.05,8.61-2.29,9.69-7.07c1.72-7.65-1.08-16.05-0.9-23.79
			c0.11-4.73-1.34-11.9,1.86-15.61c2.78-3.22,6.56-5.37,10.57-6.7c3.93-1.3,8.07-1.83,12.2-1.87c2.04-0.02,3.79-0.12,5.54,0.98
			c1.95,1.23,3.69,3.54,5.03,5.37c5.66,7.76,9.52,17.05,11.31,26.46c0.94,4.93,0.81,9.9,1.07,14.9c0.16,3.1,0.02,8.44,2.18,10.86
			c1.63,1.82,4.8,2.03,6.88,0.96c3.63-1.85,4.17-8.43,5-11.96c2.66-11.24,3.5-22.8,4.52-34.27c-1.67,0-3.33,0-5,0
			c0.14,1.37,0.83,4.77,0.34,5.85c0.94-0.38,1.88-0.77,2.82-1.15c-0.03-0.01-0.06-0.01-0.09-0.02c0.58,0.58,1.16,1.16,1.75,1.75
			c-0.57-1.79,0.03-4.64,0.18-6.43c-1.64,0.22-3.27,0.44-4.91,0.66c2.68,11.27,1.01,23.01,3.47,34.31
			c0.87,3.99,2.09,9.39,5.84,11.61c2.9,1.71,6,1.62,8.48-0.82c2.87-2.82,2.86-6.54,2.99-10.28c0.24-6.78,0.3-13.57,0.28-20.36
			c-0.05-13.77-0.48-27.53-0.61-41.29c-0.03-3.22-5.03-3.22-5,0c0.19,20.22,1.03,40.46,0.37,60.68c-0.06,1.9,0.37,4.66-0.64,6.37
			c-2.28,3.87-4.58,0.2-5.59-2.62c-1.56-4.37-2.12-9-2.42-13.6c-0.55-8.5-0.36-16.99-2.34-25.33c-0.69-2.89-4.69-2.02-4.91,0.66
			c-0.18,2.21-1.58,8.69,1.84,9.52c0.98,0.24,2.37-0.14,2.82-1.15c1.12-2.52,0.6-5.73,0.34-8.38c-0.31-3.2-4.71-3.23-5,0
			c-0.84,9.5-1.55,19.06-3.37,28.44c-0.41,2.11-0.88,4.22-1.41,6.3c-0.18,0.7-1,5.82-1.81,6.22c-2.09,1.03-1.87-4.52-1.95-5.71
			c-0.15-2.24-0.15-4.49-0.24-6.74c-0.55-14.66-5.75-30.89-15.97-41.79c-4.9-5.23-9.64-5.48-16.59-4.74
			c-6.23,0.66-12.51,2.46-17.59,6.23c-2.13,1.58-4.01,3.43-5.54,5.59c-2.54,3.58-1.47,7.03-1.52,11.29c-0.05,4.5-0.4,9-0.09,13.5
			c0.26,3.72,1.26,7.34,1.28,11.08c0.01,2.76-0.18,8.05-4.24,7.15c-3.68-0.82-2.14-10.47-2.16-13.52
			c-0.06-9.62-0.89-19.18-4.49-28.19c-0.78-1.96-4.45-2.75-4.82,0c-0.31,2.27,0.4,6.46,3.33,6.87c1.01,0.14,2.34-0.07,2.82-1.15
			c1.01-2.25-0.47-4.38-1.59-6.32c-1.08-1.87-3.99-1.46-4.57,0.6c-3.36,11.97-4.52,24.35-5.49,36.7c-0.18,2.27-1.15,11.93-5.62,6.31
			c-1.81-2.28-1.67-6.28-1.65-8.93c0.03-5.61,0.13-11.23,0.49-16.83c0.71-11.05,2.43-22.19,6.66-32.48
			c4.56-11.08,12.48-19.73,20.53-28.4c13.51-14.55,29.33-30.44,32.09-51.02c2.33-17.4-4.57-42.12-22.39-49.45
			c-8.52-3.51-19.69-3.04-24.8,5.6c-3.26,5.51-4.51,10.75-5.41,17.13c-0.47,3.32-0.89,6.67-1.76,9.92c-0.3,1.1-0.63,2.2-1.03,3.26
			c-1.2,3.16-1.74,4.2-4.89,3.97c0.83,0.83,1.67,1.67,2.5,2.5c0.12-0.38,0.23-0.75,0.35-1.13C219.03,59.05,214.2,57.73,213.23,60.79
			L213.23,60.79z"/>
	</g>
</g>
<g>
	<g>
		<path class="st0" d="M292.27,101.39c-0.81,15.3,5.16,30.79,18.35,39.32c6.2,4.01,14.43,6.7,21.86,5.47
			c6.67-1.11,9.95-7.21,12.23-13.03c2.95-7.52,3.73-15.69,4.07-23.69c0.12-2.85,1.06-7.12-1.61-9.1c-2.04-1.51-4.49-0.69-6.53,0.39
			c-2.01,1.06-3.64,2.92-5.89,3.56c-2.41,0.69-3.82-0.18-5.91-0.87c-4.02-1.34-8.17-2.01-12.41-1.77c-2.6,0.15-3.58,0.54-5.45-1.41
			c-1.16-1.21-1.94-2.96-3.08-4.25c-2.56-2.88-5.71-5.03-9.21-6.6c-1.61-0.72-3.01-0.11-3.67,1.49c-1.19,2.86-1.82,5.68-2.12,8.76
			c-0.31,3.2,4.69,3.18,5,0c0.26-2.66,0.92-4.98,1.94-7.43c-1.22,0.5-2.45,1-3.67,1.49c3.13,1.4,5.92,3.22,8.2,5.81
			c1.68,1.92,2.62,4.78,4.72,6.29c1.81,1.3,3.53,1.12,5.65,1c3.56-0.2,6.83-0.25,10.33,0.68c5.54,1.47,8.94,3.14,14.29,0.1
			c0.37-0.21,3.4-2.72,3.81-2.54c1.26,0.55,0.65,3.48,0.61,4.39c-0.16,3.71-0.4,7.44-0.96,11.12c-0.93,6.05-2.71,15.01-7.73,19.09
			c-5.34,4.35-15.48,0.56-20.65-2.47c-12.58-7.38-17.92-21.76-17.17-35.81C297.44,98.17,292.44,98.18,292.27,101.39L292.27,101.39z"
			/>
	</g>
</g>
<g>
	<g>
		<path class="st0" d="M302.75,130.93c-13.16-7.1-27.71-10.6-42.67-10.19c-3.21,0.09-3.22,5.09,0,5c14.1-0.39,27.73,2.81,40.14,9.5
			C303.06,136.77,305.59,132.46,302.75,130.93L302.75,130.93z"/>
	</g>
</g>
<g>
	<g>
		<path class="st0" d="M52.68,122.68c0.45-1.37,1.42-2.51,2.75-3.12c0.68-0.31,1.29-0.33,1.99-0.46c0.14-0.03,2.1,0.1,1.33-0.78
			c-2.15-2.4-5.68,1.14-3.54,3.54c1.84,2.06,5.13,2.13,6.9-0.06c1.82-2.24,1.08-5.5-1.4-6.9c-5.11-2.9-11.26,1.59-12.85,6.44
			C46.86,124.42,51.68,125.73,52.68,122.68L52.68,122.68z"/>
	</g>
</g>
<g>
	<g>
		<path class="st0" d="M27.08,128.68c0.47-1.38,1.3-2.62,2.45-3.53c0.65-0.51,1.33-0.71,2.05-1.06c0.51-0.08,0.67-0.07,0.5,0.05
			c0.46-1.43,1.09-1.51,1.9-0.24c-1.1-2.99-5.94-1.7-4.82,1.33c0.91,2.48,3.74,3.58,6.06,2.13c2.45-1.53,2.23-4.93,0.33-6.8
			c-4.95-4.89-11.73,2.23-13.29,6.79C21.21,130.4,26.04,131.71,27.08,128.68L27.08,128.68z"/>
	</g>
</g>
<g>
	<g>
		<path class="st0" d="M43.33,133.14c3.22,0,3.22-5,0-5C40.12,128.14,40.11,133.14,43.33,133.14L43.33,133.14z"/>
	</g>
</g>
<g>
	<g>
		<path class="st0" d="M41.6,132.34c0.12,4.4,4.49,6.67,8.5,6.05c4.16-0.65,7.52-3.9,8.47-7.97c0.73-3.13-4.09-4.47-4.82-1.33
			c-0.41,1.74-1.38,3.15-3.04,3.93c-0.91,0.43-4.07,1.1-4.12-0.68C46.51,129.13,41.51,129.12,41.6,132.34L41.6,132.34z"/>
	</g>
</g>
<g>
	<g>
		<path class="st0" d="M41.72,132.19c0.22,0.68-1.08,1.48-1.59,1.83c-0.39,0.27-1.01,0.74-1.47,0.87c-0.17,0.08-0.35,0.13-0.53,0.14
			c-0.28-0.14-0.26-0.11,0.06,0.09c-0.81-3.11-5.63-1.79-4.82,1.33c2.04,7.84,15.26,1.01,13.18-5.59
			C45.58,127.8,40.75,129.11,41.72,132.19L41.72,132.19z"/>
	</g>
</g>
<g>
	<g>
		<path class="st0" d="M43.08,127.74c-0.25,0.08-0.2,0.07,0.03,0.04c-0.09,0.01-0.63-0.06-0.31,0.01c0.4,0.09-0.35-0.15,0.01,0
			c0.28,0.11-0.25-0.17-0.27-0.19c-0.2,1.52-0.4,3.05-0.6,4.57c0.48-0.18,0.97-0.3,1.47-0.42c0.49-0.12-0.2-0.03,0.35-0.06
			c0.06,0,0.12-0.01,0.18-0.01c1.38,0.07,1.18-1.15-0.59-3.65c0.42-0.11,0.84-0.23,1.26-0.34c-0.04,0-0.08,0-0.12,0
			c-1.31,0.04-2.56,1.12-2.5,2.5c0.06,1.32,1.1,2.55,2.5,2.5c2.83-0.09,3.84-3.65,1.66-5.34c-1.52-1.18-3.88-0.6-5.54,0
			c-2.08,0.75-2.42,3.31-0.6,4.57c1.26,0.87,2.94,1.08,4.39,0.64c1.25-0.38,2.17-1.77,1.75-3.08
			C45.74,128.22,44.42,127.33,43.08,127.74L43.08,127.74z"/>
	</g>
</g>
<g>
	<g>
		<path class="st0" d="M316.04,115.6c-1.33-1.46-2.83-2.9-4.79-3.43c-1.91-0.52-4.23-0.17-5.63,1.34c-1.43,1.54-1.79,4.14-0.15,5.69
			c1.71,1.62,4.16,1.09,5.45-0.7c0.79-1.1,0.19-2.78-0.9-3.42c-1.26-0.74-2.63-0.2-3.42,0.9c-0.06,0.08-0.11,0.15-0.17,0.23
			c0.3-0.3,0.6-0.6,0.9-0.9c0.49,0.04,0.99,0.09,1.48,0.13c0.21,0.37,0.43,0.74,0.64,1.1c-0.09,0.12-0.15,0.26-0.18,0.41
			c0.1-0.03,0.19-0.03,0.29-0.02c0.15,0.11,0.53,0.11,0.74,0.21c0.88,0.43,1.55,1.29,2.19,2
			C314.68,121.51,318.2,117.97,316.04,115.6L316.04,115.6z"/>
	</g>
</g>
<g>
	<g>
		<path class="st0" d="M337.18,119.9c-2.95-1.64-9.3-4.06-11.54-0.11c-1.04,1.83-0.16,4.22,1.68,5.1c2.14,1.01,4.65-0.37,5.13-2.64
			c0.66-3.14-4.16-4.48-4.82-1.33c0-0.03,0-0.06,0-0.08c0.37-0.21,0.74-0.43,1.1-0.64c-0.05,0.01-0.1,0.03-0.15,0.04
			c0.42,0.11,0.84,0.23,1.26,0.34c-0.85,1.28-0.91,1.99-0.18,2.13c0.14,0.03,0.28,0.04,0.43,0.03c0.5,0.12,1.03,0.15,1.54,0.27
			c1.08,0.27,2.05,0.68,3.02,1.22C337.47,125.78,340,121.47,337.18,119.9L337.18,119.9z"/>
	</g>
</g>
<g>
	<g>
		<path class="st0" d="M317.25,128.46c0.29-0.06,0.27-0.06-0.05,0.01c0.29,0.01,0.28,0-0.05-0.04c0.11,0.02,0.74,0.26,0.49,0.12
			c-0.34-0.19,0.55,0.54,0.06,0.04c0.1,0.09,0.2,0.19,0.29,0.3c-0.18-0.23-0.2-0.23-0.05,0.01c0.5-1.22,1-2.45,1.49-3.67
			c-0.13,0.04-0.26,0.07-0.39,0.1c0.55-0.11,0.11-0.06-0.04-0.06c-0.36,0.01,0.41-0.06,0.07-0.01c-0.16,0.02-0.51-0.27-0.07,0.01
			c-0.11-0.07-0.24-0.15-0.35-0.2c0.17,0.08,0.26,0.17,0.03,0.01c-0.05-0.05-0.09-0.1-0.14-0.14c0.15,0.22,0.18,0.26,0.08,0.11
			c-0.04-0.14-0.18-0.31-0.24-0.45c-0.55-1.19-2.36-1.58-3.42-0.9c-1.23,0.79-1.48,2.15-0.9,3.42c1.13,2.46,4.16,3.66,6.7,2.93
			c1.56-0.45,2.3-2.26,1.49-3.67c-1.28-2.26-3.85-3.26-6.34-2.74c-1.28,0.27-2.14,1.85-1.75,3.08
			C314.62,128.07,315.88,128.75,317.25,128.46L317.25,128.46z"/>
	</g>
</g>
<g>
	<g>
		<path class="st0" d="M316.58,127.36c-1.33,8.61,7.62,15.28,15.3,10.39c2.71-1.72,0.2-6.05-2.52-4.32
			c-3.59,2.28-8.67-0.14-7.96-4.75C321.88,125.54,317.07,124.18,316.58,127.36L316.58,127.36z"/>
	</g>
</g>
<g>
	<g>
		<path class="st0" d="M314.71,129.57c-0.16,0.61,0.19-0.51-0.02,0.06c0.06-0.08,0.12-0.15,0.18-0.23
			c-0.16,0.15-0.17,0.16-0.01,0.04c0.16-0.12,0.15-0.12-0.04,0.01c-0.05,0.03-0.1,0.06-0.16,0.08c0.39-0.27,0.17-0.1-0.08-0.02
			c0.34-0.12,0.31,0.09,0.03-0.03c-0.28-0.12,0.49,0.19,0.04,0.02c-0.57-0.22,0.51,0.23-0.05-0.01c0.08,0.06,0.15,0.12,0.23,0.18
			c-0.19-0.19-0.17-0.16,0.04,0.1c-0.77-1.11-2.19-1.62-3.42-0.9c-1.1,0.64-1.67,2.31-0.9,3.42c1.2,1.73,3.1,2.46,5.17,2.07
			c1.79-0.34,3.34-1.68,3.8-3.47c0.33-1.31-0.43-2.71-1.75-3.08C316.5,127.47,315.04,128.26,314.71,129.57L314.71,129.57z"/>
	</g>
</g>
<g>
	<g>
		<path class="st0" d="M344.51,133.61c2.44,0,4.88,0,7.33,0c3.22,0,3.22-5,0-5c-2.44,0-4.88,0-7.33,0
			C341.29,128.61,341.29,133.61,344.51,133.61L344.51,133.61z"/>
	</g>
</g>
<g>
	<g>
		<path class="st0" d="M339.55,136.21c2.12,2.61,4.25,5.22,6.37,7.83c0.85,1.05,2.65,0.89,3.54,0c1.04-1.04,0.85-2.48,0-3.54
			c-2.12-2.61-4.25-5.22-6.37-7.83c-0.85-1.05-2.65-0.89-3.54,0C338.52,133.71,338.7,135.16,339.55,136.21L339.55,136.21z"/>
	</g>
</g>
<g>
	<g>
		<path class="st0" d="M296.82,115.85c-2.97-1.88-5.58-4.15-7.91-6.79c-2.13-2.42-5.66,1.13-3.54,3.54c2.6,2.94,5.6,5.47,8.92,7.57
			C297.03,121.9,299.54,117.57,296.82,115.85L296.82,115.85z"/>
	</g>
</g>
<g>
	<g>
		<path class="st0" d="M293.87,118.74c-2.9,0.78-5.53,2.4-7.47,4.7c-0.87,1.03-1.01,2.52,0,3.54c0.89,0.89,2.66,1.04,3.54,0
			c1.42-1.69,3.13-2.84,5.26-3.41C298.31,122.73,296.99,117.9,293.87,118.74L293.87,118.74z"/>
	</g>
</g>
<g>
	<g>
		<path class="st0" d="M15.32,127.29c-2.84-0.19-5.62,0.01-8.42,0.49c-1.33,0.23-2.08,1.87-1.75,3.08c0.39,1.41,1.74,1.97,3.08,1.75
			c2.35-0.4,4.72-0.46,7.09-0.31C18.54,132.5,18.52,127.5,15.32,127.29L15.32,127.29z"/>
	</g>
</g>
<g>
	<g>
		<path class="st0" d="M14.82,133.15c-1.15,1.15-2.3,2.3-3.45,3.45c-0.93,0.93-1,2.62,0,3.54c1,0.92,2.55,0.99,3.54,0
			c1.15-1.15,2.3-2.3,3.45-3.45c0.93-0.93,1-2.62,0-3.54C17.35,132.23,15.8,132.16,14.82,133.15L14.82,133.15z"/>
	</g>
</g>
<g>
	<g>
		<path class="st0" d="M73.55,110.96c3.41-1.97,6.58-4.32,9.47-7.01c2.36-2.2-1.18-5.73-3.54-3.54c-2.58,2.4-5.4,4.46-8.45,6.22
			C68.24,108.25,70.75,112.57,73.55,110.96L73.55,110.96z"/>
	</g>
</g>
<g>
	<g>
		<path class="st0" d="M71.35,112.45c4.6,0,9.19,0,13.79,0c3.22,0,3.22-5,0-5c-4.6,0-9.19,0-13.79,0
			C68.13,107.45,68.12,112.45,71.35,112.45L71.35,112.45z"/>
	</g>
</g>
<g>
	<g>
		<path class="st0" d="M201.68,93.49c-2.09-11.9-9.26-22.48-19.4-29.04c-4.59-2.97-10.38-5.64-15.9-6.06
			c-6.09-0.46-10.2,4.44-12.68,9.49c-6.47,13.18,0.64,24.85,7.84,35.85c9.55,14.6,19.1,29.19,28.65,43.79
			c1.04,1.59,3.29,1.64,4.32,0c7.23-11.52,15.57-22.27,25.07-32.03c7.55-7.76,18.06-15.61,19.57-27.15
			c1.21-9.25-6.38-15.55-15.27-14.93c-11.67,0.81-21.45,12.83-29.6,20c-2.42,2.13,1.13,5.65,3.54,3.54
			c3.95-3.48,7.89-6.97,11.86-10.43c4.01-3.49,8.67-7.59,14.21-8.11c5.71-0.54,10.77,2.73,10.32,8.94
			c-0.37,5.15-3.88,9.85-7.18,13.57c-6.18,6.95-13.22,13.05-19.28,20.14c-6.44,7.53-12.27,15.54-17.54,23.93c1.44,0,2.88,0,4.32,0
			c-7.07-10.81-14.15-21.62-21.22-32.44c-3.48-5.32-7-10.62-10.44-15.96c-3.37-5.23-6.73-10.78-6.81-17.19
			c-0.07-5.43,2.83-15.25,9.2-15.69c5.3-0.36,10.8,2.52,15.11,5.43c8.8,5.95,14.68,15.23,16.51,25.65
			C197.41,97.98,202.23,96.64,201.68,93.49L201.68,93.49z"/>
	</g>
</g>
<g>
	<g>
		<path class="st0" d="M164.93,76.43c-3.75,14.53,9.81,31.28,25.49,25.44c7.78-2.9,3.13-11.3,0.12-16.22
			c-3.53-5.77-8.84-10.9-16.02-10.74c-5.61,0.13-11.31,3.8-11.68,9.8c-0.51,8.05,6.87,12.87,13.68,14.88
			c6.59,1.95,13.67,1.42,15.23-6.5c1.36-6.87-3.54-12.09-8.95-15.45c-2.64-1.64-6.43-4.33-9.73-3.03c-3.05,1.2-4.42,5.21-4.52,8.23
			c-0.3,8.72,7.9,14.15,15.94,11.95c1.07-0.29,1.82-1.31,1.84-2.41c0.08-5.72-0.1-12.11-4.3-16.52c-3.2-3.36-8.17-4.7-12.35-2.29
			c-3.93,2.27-5.21,7.02-2.96,10.95c3.01,5.25,9.43,5.67,14.8,5.52c1.08-0.03,2.14-0.75,2.41-1.84c0.91-3.61,0.09-7.37-2.67-10.01
			c-2.4-2.29-6.79-3.72-9.42-1.05c-2.47,2.51-0.9,6.37,1.07,8.71c2.83,3.37,6.84,4.46,11.07,3.85c1.61-0.23,2.25-2.43,1.49-3.67
			c-2.24-3.66-5.68-5.06-9.86-4.46c-0.99,0.14-1.93,1.43-1.84,2.41c0.5,5.16,5.03,14.52,11.75,13.03
			c6.83-1.51,6.37-11.67,3.67-16.25c-3.79-6.44-12.63-9.45-19.77-9.52c-3.37-0.03-6.81,0.95-9.04,3.62c-1.04,1.25-1.72,2.7-1.9,4.32
			c-0.11,1.02,1.21,6.89,0.28,7.14c1.03,0.58,2.05,1.16,3.08,1.75c-0.96-4.52-2.09-9.48-0.74-14.06c1.47-5.02,6.38-8.94,11.53-6.16
			c3.61,1.94,6.47,5.71,9.3,8.6c3.21,3.28,6.43,6.55,9.64,9.83c0.92,0.94,1.84,1.87,2.75,2.81c-0.51-0.44-0.79-1.01-0.86-1.71
			c-0.39-1.1-0.84-2.21-1.35-3.26c-1.33-2.8-3.1-5.38-5.15-7.69c-3.92-4.41-9.54-8.33-15.46-9.27c-4.53-0.73-10.03,0.23-12.27,4.72
			c-2.17,4.35,0.27,9.11,4.4,11.19c10.6,5.33,16.01-9.11,9.99-16.4c-0.91-1.1-2.58-0.8-3.54,0c-5.34,4.46,0.92,11.34,3.75,15.15
			c4.15,5.58,8.14,13.39,14.04,17.34c3.74,2.51,9.62,3.01,12.56-1.03c2.71-3.73,0.73-9.21-3.71-10.23c-1.55-0.35-3.2,0.73-3.16,2.41
			c0.14,6.9-0.7,13.69-2.77,20.29c-1.08,3.46-2.48,6.81-4.17,10.01c-0.41,0.79-0.84,1.56-1.29,2.32c-1.37-0.23-2.73-0.47-4.1-0.7
			c-0.82-0.56-1.73-3.28-2.12-4.09c-5.27-11.16-11.87-21.48-19.74-30.99c-1.01,1.31-2.02,2.62-3.03,3.93
			c12.49,8.03,15.68,24.43,26.31,34.37c1.98,1.85,5.62-0.6,3.93-3.03c-6.44-9.25-11.02-19.38-13.67-30.34
			c-1.52,0.64-3.05,1.28-4.57,1.93c5.11,8.65,11.16,16.62,18.11,23.88c1.19,1.24,3.9,0.8,4.18-1.1c0.99-6.85-0.96-13.16-6.03-17.97
			c-1.68-1.59-5.12-0.03-4.18,2.43c3.62,9.5,15.77,10.94,20.98,1.91c1.03-1.79-0.7-4.42-2.82-3.67c-5.42,1.91-10.85,3.81-16.27,5.72
			c-3.02,1.06-1.84,5.55,1.33,4.82c4.21-0.97,7.73-3.03,10.63-6.23c1.06-1.17,0.95-3.1-0.51-3.93c-4.39-2.49-8.93-3.82-13.96-4.15
			c-1.03-0.07-2.2,0.82-2.41,1.84c-1.74,8.31,0.38,16.32,6,22.68c1.3,1.47,3.65,0.59,4.18-1.1c2.06-6.63-0.76-13.58-6.87-16.89
			c-2.22-1.21-4.61,1.2-3.42,3.42c2.93,5.45,5.19,14.48,12.73,13.75c7.25-0.7,14.66-3.66,21.03-7.1
			c9.41-5.09,26.94-17.21,20.85-30.12c-2.95-6.25-9.45-6.72-15.31-4.37c-7.3,2.93-15.29,7.3-21.23,12.46
			c-5.93,5.16-4.57,11.92-4.27,19.02c0.41,9.6-0.82,19.08-3.43,28.32c1.61,0,3.21,0,4.82,0c-1.27-3.62-2.54-7.24-3.81-10.86
			c-1.61,0.44-3.21,0.89-4.82,1.33c1.42,3.76,2.84,7.52,4.25,11.28c0.59,1.56,2.14,2.28,3.67,1.49c5.92-3.01,9.97-8.02,13.68-13.38
			c4.29-6.21,8.48-11.84,14.07-16.98c4.6-4.23,9.43-8.37,12.77-13.71c2.63-4.2,5.91-11.63,0.91-15.41
			c-9.87-7.47-25.27,11.71-30.15,18.03c-4.81,6.22-9.11,12.92-13.07,19.7c-1.55,2.65-2.94,5.28-2.83,8.44
			c0.14,4.15,2.69,7.71,2.73,11.89c0.02,2.64,3.27,3.18,4.66,1.26c5.63-7.77,10.95-15.74,15.97-23.91c1.56-2.54-1.85-4.79-3.93-3.03
			c-5.16,4.37-10.32,8.73-15.48,13.1c1.31,1.01,2.62,2.02,3.93,3.03c5.24-11.09,13.39-20.1,23.97-26.32
			c-1.25-0.72-2.51-1.44-3.76-2.16c0.07,3.37-5.22,4.58-7.28,6.17c-1.64,1.27-2.47,2.55-3.25,4.42c1.64,0.22,3.27,0.44,4.91,0.66
			c0.5-4.13,3.48-24.86-7.26-21.01c-3.81,1.36-4.57,6.09-3.98,9.58c0.79,4.67,3.84,8.41,8.03,10.48c1.79,0.88,3.58-0.21,3.76-2.16
			c0.58-6.32,0.12-12.48-1.3-18.67c-0.6-2.6-4.02-2.14-4.82,0c-2.56,6.81-4.84,13.57-5.22,20.89c-0.13,2.42,3.57,3.48,4.66,1.26
			c5.06-10.32,11.14-20.04,18.32-29.02c1.38-1.73,0.18-5.13-2.43-4.18c-5.92,2.15-12.27,5.06-14.61,11.39
			c-1.84,4.98-0.53,10.77,4.39,13.36c4.31,2.27,9.96,1.4,13.7-1.58c5.37-4.27,6.47-11.65,6.02-18.08c-0.12-1.78-1.49-2.64-3.16-2.41
			c-7.71,1.05-13.63,6.21-16.27,13.43c-0.34,0.93,0.21,2.41,1.15,2.82c4.88,2.15,10.09,0.76,12.73-4.05
			c1.13-2.07-0.73-3.99-2.82-3.67c-5.67,0.87-10.27,4.4-12.56,9.67c-0.89,2.04,1.12,4.99,3.42,3.42c5.06-3.45,9-7.78,11.82-13.22
			c-1.55-0.42-3.11-0.84-4.66-1.26c-0.14,3.86-0.96,7.35-2.44,10.91c-1.17,2.83,3.03,3.99,4.57,1.93c2.65-3.56,4.49-7.4,5.67-11.66
			c0.86-3.11-3.96-4.43-4.82-1.33c-1.08,3.91-2.76,7.23-5.17,10.47c1.52,0.64,3.05,1.28,4.57,1.93c1.65-3.97,2.46-7.95,2.61-12.24
			c0.09-2.44-3.52-3.46-4.66-1.26c-2.42,4.67-5.68,8.46-10.03,11.43c1.14,1.14,2.28,2.28,3.42,3.42c1.84-4.23,5.02-6.68,9.57-7.37
			c-0.94-1.22-1.88-2.45-2.82-3.67c-1.16,2.11-3.43,3.34-5.89,2.26c0.38,0.94,0.77,1.88,1.15,2.82c2.08-5.69,6.88-9.14,12.78-9.94
			c-1.05-0.8-2.11-1.61-3.16-2.41c0.45,6.51-1.47,17.22-10.38,15.83c-5.08-0.79-5.46-6.09-2.96-9.74c2.32-3.41,6.45-4.99,10.17-6.34
			c-0.81-1.39-1.62-2.79-2.43-4.18c-7.45,9.32-13.85,19.31-19.1,30.03c1.55,0.42,3.11,0.84,4.66,1.26
			c0.36-6.85,2.66-13.2,5.04-19.56c-1.61,0-3.21,0-4.82,0c1.32,5.76,1.66,11.47,1.12,17.34c1.25-0.72,2.51-1.44,3.76-2.16
			c-2.51-1.24-4.48-3.01-5.35-5.76c-0.69-2.17,0.09-6.62,1.76-2.66c1.48,3.51-0.28,10.03-0.73,13.69c-0.37,3.06,3.94,3,4.91,0.66
			c1.21-2.9,5.54-3.58,7.8-5.57c1.96-1.72,2.95-3.72,2.9-6.34c-0.04-1.88-2.1-3.14-3.76-2.16c-11.26,6.63-20.17,16.3-25.76,28.12
			c-1.22,2.59,1.72,4.9,3.93,3.03c5.16-4.37,10.32-8.73,15.48-13.1c-1.31-1.01-2.62-2.02-3.93-3.03
			c-5.02,8.18-10.34,16.15-15.97,23.91c1.55,0.42,3.11,0.84,4.66,1.26c-0.02-2.62-0.66-4.89-1.51-7.37
			c-1.39-4.09-1.23-6.66,0.93-10.43c2.84-4.98,6.01-9.85,9.29-14.55c3.45-4.95,7.24-9.69,11.63-13.84c2.39-2.26,4.95-4.38,7.72-6.14
			c0.97-0.61,2.32-1.64,3.51-1.75c1.57-0.9,2.54-0.41,2.91,1.47c1.22,0.93,1.46,1.98,0.72,3.16c-1.03,4.9-5.93,9.35-9.39,12.64
			c-3.6,3.42-7.46,6.6-10.78,10.31c-6.96,7.79-10.98,18.67-20.68,23.6c1.22,0.5,2.45,1,3.67,1.49c-1.42-3.76-2.84-7.52-4.25-11.28
			c-1.12-2.97-5.9-1.74-4.82,1.33c1.27,3.62,2.54,7.24,3.81,10.86c0.79,2.26,4.12,2.49,4.82,0c3.24-11.46,4.08-22.94,3.24-34.79
			c-0.2-2.88-0.36-5.46,1.19-8c1.73-2.83,5.06-4.58,7.81-6.31c5.03-3.17,12.59-8.8,18.65-8.09c8.56,1.01,3.32,11.36-0.07,15
			c-3.86,4.15-8.48,7.62-13.38,10.44c-4.95,2.85-10.29,4.98-15.84,6.33c-2.96,0.72-6,1.61-7.67-1.44c-1.63-2.97-3.21-5.98-4.82-8.97
			c-1.14,1.14-2.28,2.28-3.42,3.42c4.23,2.29,5.99,6.67,4.57,11.25c1.39-0.37,2.79-0.74,4.18-1.1c-4.38-4.96-6.07-11.34-4.71-17.82
			c-0.8,0.61-1.61,1.22-2.41,1.84c4.17,0.28,7.8,1.4,11.44,3.46c-0.17-1.31-0.34-2.62-0.51-3.93c-2.37,2.62-4.97,4.15-8.42,4.95
			c0.44,1.61,0.89,3.21,1.33,4.82c5.42-1.91,10.85-3.81,16.27-5.72c-0.94-1.22-1.88-2.45-2.82-3.67c-2.86,4.96-9.68,4.97-11.84-0.72
			c-1.39,0.81-2.79,1.62-4.18,2.43c3.66,3.48,5.48,8.04,4.74,13.11c1.39-0.37,2.79-0.74,4.18-1.1
			c-6.66-6.96-12.42-14.57-17.32-22.87c-1.46-2.47-5.24-0.82-4.57,1.93c2.75,11.35,7.51,21.95,14.18,31.54
			c1.31-1.01,2.62-2.02,3.93-3.03c-11.04-10.33-14.19-26.71-27.32-35.15c-2.54-1.63-4.74,1.86-3.03,3.93
			c5.74,6.93,10.81,14.36,15.09,22.27c2.71,5,5.2,15.21,11.87,16.4c6.57,1.18,9.55-8.69,11.34-13.26c3.21-8.24,4.6-16.98,4.42-25.8
			c-1.05,0.8-2.11,1.61-3.16,2.41c-0.48,1.14-0.97,2.29-1.45,3.43c-1.26,0-2.34-0.4-3.24-1.18c-0.95-0.6-1.66-1.35-2.4-2.17
			c-2.18-2.45-4.05-5.28-6-7.91c-1.35-1.81-11.12-12.65-8.69-14.68c-1.18,0-2.36,0-3.54,0c2.64,3.19,1.03,11.4-4.48,8.28
			c-2.32-1.31-2.7-4.56-0.28-5.92c1.61-0.91,3.77-0.74,5.51-0.45c6.95,1.17,13.15,7.21,16.32,13.24c2.02,3.85,2.83,10.64,8.49,10.79
			c4.54,0.12,6.08-4.47,4.21-8c-1.54-2.92-4.55-5.19-6.82-7.5c-2.98-3.04-5.97-6.08-8.95-9.13c-3.91-3.98-8.24-9.32-14.28-9.69
			c-5.23-0.32-9.83,3.15-12.23,7.61c-3.3,6.16-1.95,13.48-0.56,19.96c0.28,1.33,1.83,2.08,3.08,1.75c2.39-0.64,3.88-2.41,4.21-4.88
			c0.3-2.26-1.5-5.58-0.55-7.58c1.55-3.26,6.89-2.49,9.59-1.95c4.48,0.91,9.67,2.77,11.86,7.12c0.76,1.51,1.86,6.11,0.01,7.37
			c-3.49,2.38-6.25-5.2-6.45-7.24c-0.61,0.8-1.22,1.61-1.84,2.41c1.93-0.23,3.34,0.49,4.21,2.16c0.5-1.22,1-2.45,1.49-3.67
			c-1.55,0.25-2.98-0.03-4.29-0.83c-1.35-0.8-2.27-1.95-2.75-3.47c2.29-1.88,3.73,5.39,3.51,6.29c0.8-0.61,1.61-1.22,2.41-1.84
			c-2.82,0.08-6.19,0.4-8.68-1.23c-4.55-2.98-0.17-8.09,4.2-5.68c4.71,2.6,4.35,9.73,4.29,14.25c0.61-0.8,1.22-1.61,1.84-2.41
			c-3.58,0.98-7.53-0.09-9.01-3.87c-1.11-2.83-0.87-7.23,3-5.91c3.76,1.29,8.95,5.21,9.73,9.31c1.57,8.37-7.99,6.06-12.52,3.99
			c-5.25-2.4-10.21-10.81-2.11-13.2c4.68-1.38,8.91,1.23,11.81,4.77c1.43,1.74,2.57,3.74,3.63,5.72c1.4,2.62,3.25,5.41-0.4,6.72
			c-4.58,1.65-10.84-1.27-13.96-4.48c-3.92-4.04-4.95-9.94-3.58-15.25C170.56,74.64,165.73,73.31,164.93,76.43L164.93,76.43z"/>
	</g>
</g>
<g>
	<g>
		<path class="st0" d="M224.56,91.44c3.22,0,3.22-5,0-5C221.34,86.44,221.34,91.44,224.56,91.44L224.56,91.44z"/>
	</g>
</g>
<g>
	<g>
		<path class="st0" d="M160.28,86.52c0.08,9.87,9.17,18.18,17.13,22.81c5.63,3.27,18.37,9.36,22.92,1.67
			c0.83-1.41,0.04-3.22-1.49-3.67c-16.37-4.82-21.45,28.03-2.42,25.28c3.17-0.46,1.82-5.28-1.33-4.82
			c-10.02,1.45-6.61-18.3,2.42-15.64c-0.5-1.22-1-2.45-1.49-3.67c-2.7,4.56-16.03-3.3-18.61-5.06c-5.39-3.67-12.06-9.91-12.12-16.9
			C165.25,83.31,160.25,83.3,160.28,86.52L160.28,86.52z"/>
	</g>
</g>
<g>
	<g>
		<path class="st0" d="M16.43,116.09c0.03-1.25,0.05-2.51,0.08-3.76c-0.63,0.36-1.25,0.72-1.88,1.08c1.33,0.72,2.49,1.62,3.52,2.74
			c1.09,1.19,2.86-0.58,1.77-1.77c-1.16-1.26-2.52-2.32-4.02-3.13c-0.84-0.45-1.86,0.11-1.88,1.08c-0.03,1.25-0.05,2.51-0.08,3.76
			C13.89,117.7,16.39,117.7,16.43,116.09L16.43,116.09z"/>
	</g>
</g>
<g>
	<g>
		<path class="st0" d="M63.23,102.85c0.03-0.99,0.33-1.94,0.95-2.72c-0.65-0.08-1.31-0.17-1.96-0.25c0.68,1.44,1.12,2.95,1.4,4.51
			c0.28,1.58,2.69,0.91,2.41-0.66c-0.31-1.78-0.88-3.47-1.65-5.1c-0.32-0.68-1.48-0.85-1.96-0.25c-1.05,1.32-1.63,2.79-1.68,4.48
			C60.68,104.46,63.18,104.46,63.23,102.85L63.23,102.85z"/>
	</g>
</g>
<g>
	<g>
		<path class="st0" d="M300.71,105.56c0-0.68,0-1.37,0-2.05c0-0.34,0-0.68,0-1.02c0-0.11,0-0.23,0-0.34
			c0.05-0.38,0.03-0.45-0.08-0.2c-0.29,0.12-0.59,0.24-0.88,0.37c0.31-0.04,1.17,1.02,1.37,1.25c0.47,0.52,0.85,1.1,1.2,1.71
			c0.8,1.4,2.96,0.14,2.16-1.26c-0.55-0.96-1.22-1.87-2-2.65c-0.68-0.68-1.58-1.6-2.61-1.56c-1.13,0.04-1.61,1-1.66,2.01
			c-0.06,1.25,0,2.51,0,3.76C298.21,107.17,300.71,107.17,300.71,105.56L300.71,105.56z"/>
	</g>
</g>
<g>
	<g>
		<path class="st0" d="M338.43,111.9c1.01-0.68,2.07-1.26,3.18-1.77c-0.61-0.25-1.22-0.5-1.84-0.75c0.22,1.51,0.25,3.03,0.14,4.55
			c-0.11,1.61,2.39,1.6,2.5,0c0.12-1.76,0.02-3.48-0.23-5.22c-0.13-0.87-1.19-1.04-1.84-0.75c-1.11,0.51-2.16,1.1-3.18,1.77
			C335.84,110.62,337.09,112.79,338.43,111.9L338.43,111.9z"/>
	</g>
</g>
<g>
	<g>
		<path class="st0" d="M212.71,109.61c-1.2,0-2.4,0-3.6,0c-1.31,0-2.56,1.15-2.5,2.5c0.06,1.35,1.1,2.5,2.5,2.5c1.2,0,2.4,0,3.6,0
			c1.31,0,2.56-1.15,2.5-2.5C215.15,110.76,214.11,109.61,212.71,109.61L212.71,109.61z"/>
	</g>
</g>
<g>
	<g>
		<path class="st0" d="M232.01,77.76c-1.56-0.38-2.92,0.04-4.15,1.03c-1.02,0.83-0.92,2.69,0,3.54c0.48,0.44,1.1,0.76,1.77,0.73
			c0.7-0.03,1.22-0.29,1.77-0.73c-0.31,0.23-0.35,0.27-0.13,0.14c-0.37,0.14-0.42,0.18-0.17,0.1c-0.41,0.04-0.48,0.05-0.21,0.04
			c-0.41-0.07-0.48-0.08-0.21-0.02c1.27,0.31,2.77-0.4,3.08-1.75C234.05,79.55,233.37,78.09,232.01,77.76L232.01,77.76z"/>
	</g>
</g>
<g>
	<g>
		<path class="st0" d="M182.06,115.96c-0.66-3.03-6.21-4.35-7-0.71c-0.3,1.37,0.13,2.96,1.24,3.87c1.34,1.09,3.2,1.32,4.7,0.39
			c1.11-0.69,1.64-2.26,0.9-3.42c-0.72-1.11-2.23-1.64-3.42-0.9c-0.28,0.18,0.1-0.03,0.2-0.06c-0.32,0.11,0.12-0.02,0.23-0.02
			c0.11,0,0.55,0.14,0.23,0.03c0.11,0.05,0.22,0.09,0.33,0.14c0.29,0.25,0.36,0.31,0.22,0.18c-0.2-0.23,0.29,0.45,0.14,0.19
			c-0.15-0.26,0.18,0.51,0.1,0.22c-0.08-0.29,0.05,0.56,0.04,0.26c0-0.13,0-0.09-0.02,0.13c-0.01,0.21-0.06,0.4-0.16,0.59
			c-0.3,0.3-0.6,0.6-0.9,0.9c0.04-0.02,0.08-0.04,0.12-0.06c-0.42,0.11-0.84,0.23-1.26,0.34c0.44-0.02-0.66-0.16-0.01,0
			c0.12,0.03,0.25,0.1,0.38,0.12c-0.37-0.17-0.48-0.21-0.31-0.12c0.05,0.03,0.11,0.06,0.16,0.1c-0.24-0.13-0.44-0.32-0.57-0.56
			c-0.15-0.43-0.19-0.52-0.13-0.27c0.28,1.28,1.84,2.15,3.08,1.75C181.67,118.6,182.36,117.33,182.06,115.96L182.06,115.96z"/>
	</g>
</g>
<g>
</g>
<g>
</g>
<g>
</g>
<g>
</g>
<g>
</g>
<g>
</g>
</svg>
