<?xml version="1.0" encoding="utf-8"?>
<!-- Generator: Adobe Illustrator 21.0.2, SVG Export Plug-In . SVG Version: 6.00 Build 0)  -->
<svg version="1.1" id="cat_3" xmlns="http://www.w3.org/2000/svg" xmlns:xlink="http://www.w3.org/1999/xlink" x="0px" y="0px"
	 viewBox="0 0 145.29 240.67" style="enable-background:new 0 0 145.29 240.67;" xml:space="preserve">
<title>cat in a cup</title>
<style type="text/css">
</style>
<g>
	<g>
		<path class="st0" d="M8.45,127.77c-0.98,20.96-1.4,44.27,12.91,61.27c6.53,7.75,15.4,13.17,24.72,16.92
			c10.1,4.06,22.19,7.45,33.08,4.86c19.61-4.68,30.7-27.54,35.55-45.21c2.78-10.11,4.25-20.54,5.36-30.94
			c0.33-3.06,1.5-7.24-1.13-9.63c-3.21-2.92-10.52-1.28-14.34-1.26c-31.05,0.19-62.1,0.38-93.15,0.58c-3.22,0.02-3.22,5.02,0,5
			c23.12-0.14,46.25-0.29,69.37-0.43c5.29-0.03,10.57-0.07,15.86-0.1c2.64-0.02,5.29-0.03,7.93-0.05c2.03-0.01,8.13-1.06,9.91-0.06
			c1.71,0.96,0.68-0.09,1.01,1.41c0.16,0.69-0.22,2.23-0.3,3.03c-0.23,2.29-0.49,4.57-0.77,6.85c-0.6,4.88-1.34,9.75-2.3,14.58
			c-3.46,17.42-10.32,36.89-25.61,47.45c-9.83,6.79-21.7,4.84-32.44,1.49c-9.29-2.9-18.37-7.33-25.49-14.07
			c-16.81-15.91-16.18-40.34-15.18-61.69C13.6,124.55,8.6,124.56,8.45,127.77L8.45,127.77z"/>
	</g>
</g>
<g>
	<g>
		<path class="st0" d="M118.92,150.64c1.88-3.01,9.86-5.34,12.8-2.45c1.43,1.41,2.47,4.95,3.18,6.76c1.02,2.61,1.85,5.36,1.89,8.18
			c0.16,12.85-16.52,13.88-26.11,14.45c-3.2,0.19-3.22,5.19,0,5c7.98-0.47,18.08-1.22,24.84-5.95c5.81-4.07,7.13-11.56,5.73-18.13
			c-1.15-5.39-4-15.28-10.37-16.24c-5.87-0.88-12.99,0.6-16.27,5.86C112.89,150.86,117.21,153.37,118.92,150.64L118.92,150.64z"/>
	</g>
</g>
<g>
	<g>
		<path class="st0" d="M37.88,128.65c-4.49,10.97,16.77,15.72,19.77,4.76c1.25-4.56-0.76-9.9-4.82-12.38
			c-4.51-2.76-10.45-1.69-14.04,2.05c-2.23,2.32,1.3,5.86,3.54,3.54c3.82-3.98,10.61-1.87,10.69,3.91c0.04,3.22-1.99,4.07-4.94,4.07
			c-2.61,0-6.76-1.19-5.37-4.6C43.92,127.01,39.08,125.71,37.88,128.65L37.88,128.65z"/>
	</g>
</g>
<g>
	<g>
		<path class="st0" d="M74.84,124.44c-2.6,4.57-0.91,10.34,3.97,12.52c5.02,2.24,10.77-0.29,13-5.18c2.23-4.87,0.05-10.53-4.6-13.03
			c-5.58-3-11.32,0.44-15.49,4.17c-2.4,2.15,1.14,5.67,3.54,3.54c1.91-1.71,4.28-3.71,6.99-3.85c2.84-0.14,5.53,2.24,5.49,5.16
			c-0.12,7.51-12.1,5.39-8.58-0.8C80.75,124.16,76.43,121.64,74.84,124.44L74.84,124.44z"/>
	</g>
</g>
<g>
	<g>
		<path class="st0" d="M42.46,118.47c-2.05-2.66-4.34-5.47-5.36-8.73c-1.17-3.76-0.27-7.76-0.37-11.62
			c-0.17-6.42-2.01-12.51-5.01-18.15c-0.5,1.22-1,2.45-1.49,3.67c2.51-0.71,5.57,1.81,7.8,2.62c2.18,0.79,4.51,1.15,6.82,1.27
			c5.48,0.28,10.89-1.07,16.36-1.07c4.98,0,10,3.04,14.91,2.01c5.35-1.12,10.69-6.58,15.07-9.73c-1.25-0.72-2.51-1.44-3.76-2.16
			c0.6,7.94,1.25,15.87,1.81,23.81c0.44,6.22,0.97,13.24-3.4,18.27c-2.1,2.42,1.42,5.97,3.54,3.54c4.33-4.98,5.28-11.09,5.11-17.51
			c-0.25-9.36-1.35-18.76-2.06-28.1c-0.13-1.7-2.09-3.36-3.76-2.16c-5.24,3.76-10.91,9.95-17.76,8.58
			c-5.14-1.03-9.33-1.73-14.63-1.24c-5.04,0.46-10.42,1.53-15.41,0.17c-4.29-1.17-7.28-4.44-11.96-3.11
			c-1.6,0.45-2.25,2.25-1.49,3.67c4.03,7.59,3.99,14.5,4.11,22.82c0.09,6.25,2.9,10.85,6.62,15.68
			C40.08,123.51,44.43,121.02,42.46,118.47L42.46,118.47z"/>
	</g>
</g>
<g>
	<g>
		<path class="st0" d="M92.21,109.87c4.09,1.58,8.1,3.34,12.04,5.26c2.88,1.4,5.42-2.91,2.52-4.32c-4.33-2.11-8.74-4.03-13.23-5.76
			C90.53,103.89,89.23,108.72,92.21,109.87L92.21,109.87z"/>
	</g>
</g>
<g>
	<g>
		<path class="st0" d="M93.21,106.99c2.82-0.18,5.61-0.57,8.37-1.18c3.14-0.7,1.81-5.52-1.33-4.82c-2.33,0.52-4.66,0.85-7.04,1.01
			C90.02,102.2,89.99,107.2,93.21,106.99L93.21,106.99z"/>
	</g>
</g>
<g>
	<g>
		<path class="st0" d="M93.71,103.05c3-2.37,5.99-4.75,8.99-7.12c1.07-0.85,0.87-2.65,0-3.54c-1.03-1.06-2.48-0.83-3.54,0
			c-3,2.37-5.99,4.75-8.99,7.12c-1.07,0.85-0.87,2.65,0,3.54C91.21,104.11,92.66,103.89,93.71,103.05L93.71,103.05z"/>
	</g>
</g>
<g>
	<g>
		<path class="st0" d="M31.03,106.68c-3.11,0.86-6.04,2.24-8.65,4.15c-1.09,0.79-1.63,2.17-0.9,3.42c0.63,1.07,2.32,1.7,3.42,0.9
			c2.29-1.67,4.72-2.89,7.45-3.64C35.45,110.64,34.14,105.82,31.03,106.68L31.03,106.68z"/>
	</g>
</g>
<g>
	<g>
		<path class="st0" d="M32.47,102c-4.1,0-8.2,0-12.3,0c-3.22,0-3.22,5,0,5c4.1,0,8.2,0,12.3,0C35.68,107,35.69,102,32.47,102
			L32.47,102z"/>
	</g>
</g>
<g>
	<g>
		<path class="st0" d="M31.31,99.74c-3.19,0.03-6.22-0.64-9.07-2.1c-2.86-1.47-5.39,2.85-2.52,4.32c3.63,1.86,7.51,2.82,11.59,2.78
			C34.53,104.71,34.54,99.71,31.31,99.74L31.31,99.74z"/>
	</g>
</g>
<g>
	<g>
		<path class="st0" d="M45.5,103.32c1.81-1.55,4.5-1.05,6,0.62c2.16,2.4,5.68-1.15,3.54-3.54c-3.42-3.8-9.29-3.86-13.07-0.62
			C39.51,101.88,43.06,105.4,45.5,103.32L45.5,103.32z"/>
	</g>
</g>
<g>
	<g>
		<path class="st0" d="M49.38,105.08c3.22,0,3.22-5,0-5C46.17,100.08,46.16,105.08,49.38,105.08L49.38,105.08z"/>
	</g>
</g>
<g>
	<g>
		<path class="st0" d="M72.52,103.96c0.81-0.86,1.86-1.79,3.1-1.91c0.85-0.08,2.13,0.32,2.22,1.33c0.29,3.18,5.29,3.21,5,0
			c-0.28-3.1-2.38-5.55-5.47-6.2c-3.18-0.66-6.25,1-8.39,3.24C66.76,102.75,70.29,106.3,72.52,103.96L72.52,103.96z"/>
	</g>
</g>
<g>
	<g>
		<path class="st0" d="M74.76,105.08c3.22,0,3.22-5,0-5C71.54,100.08,71.54,105.08,74.76,105.08L74.76,105.08z"/>
	</g>
</g>
<g>
	<g>
		<path class="st0" d="M60.92,111.62c3.22,0,3.22-5,0-5C57.7,106.62,57.69,111.62,60.92,111.62L60.92,111.62z"/>
	</g>
</g>
<g>
	<g>
		<path class="st0" d="M58.12,110.35c-0.84,3.47,1.37,7.01,4.86,7.87c3.65,0.9,7.14-1.45,8.94-4.47c1.65-2.77-2.67-5.29-4.32-2.52
			c-0.61,1.02-1.63,2.18-2.94,2.18c-0.89,0-1.96-0.74-1.72-1.73C63.69,108.55,58.87,107.21,58.12,110.35L58.12,110.35z"/>
	</g>
</g>
<g>
	<g>
		<path class="st0" d="M59.14,110.18c-0.52,1.21-1.16,2.73-2.37,3.42c-0.52,0.3-1.83,0.38-1.87-0.26c-0.16-3.2-5.16-3.22-5,0
			c0.16,3.33,3.09,5.68,6.39,5.51c3.49-0.18,5.89-3.18,7.16-6.15c0.54-1.25,0.36-2.67-0.9-3.42
			C61.51,108.65,59.67,108.94,59.14,110.18L59.14,110.18z"/>
	</g>
</g>
<g>
	<g>
		<path class="st0" d="M59.76,109.7c3.22,0,3.22-5,0-5C56.55,104.7,56.54,109.7,59.76,109.7L59.76,109.7z"/>
	</g>
</g>
<g>
	<g>
		<path class="st0" d="M62.07,110.08c3.22,0,3.22-5,0-5C58.85,105.08,58.85,110.08,62.07,110.08L62.07,110.08z"/>
	</g>
</g>
<g>
	<g>
		<path class="st0" d="M81.64,126.75c3.22,0,3.22-5,0-5C78.42,121.75,78.41,126.75,81.64,126.75L81.64,126.75z"/>
	</g>
</g>
<g>
	<g>
		<path class="st0" d="M81.69,124.74c-0.03,1.37-0.24,2.68-0.67,3.98c-0.02,0.05-0.27,0.63-0.24,0.67c-0.04-0.04,1.7-0.36,1.53-0.13
			c0.14-0.2,0.03-1.18,0.05-1.42c-1.05,0.8-2.11,1.61-3.16,2.41c2.07,0.85,4.15,1.69,6.22,2.54c1.25,0.51,2.75-0.55,3.08-1.75
			c0.39-1.43-0.49-2.56-1.75-3.08c-2.07-0.85-4.15-1.69-6.22-2.54c-1.63-0.66-3.05,0.98-3.16,2.41c-0.12,1.57,0,3.21,1.02,4.49
			c1.03,1.3,2.8,2.01,4.43,1.53c3.31-0.97,3.82-6.27,3.87-9.11C86.76,121.52,81.76,121.53,81.69,124.74L81.69,124.74z"/>
	</g>
</g>
<g>
	<g>
		<path class="st0" d="M40.76,127.62c-1.78,5.16,2.72,10.25,8.04,9.28c2.38-0.43,4.73-2.25,4.88-4.82c0.15-2.61-1.9-4.49-3.88-5.82
			c-0.95-0.63-2.24-0.33-3.03,0.39c-1.66,1.52-1.21,4.06,0.63,5.19c2.75,1.68,5.27-2.64,2.52-4.32c-0.09-0.05-0.18-0.11-0.26-0.16
			c0.3,0.3,0.6,0.6,0.9,0.9c-0.05-0.09-0.1-0.18-0.15-0.27c0.11,0.42,0.23,0.84,0.34,1.26c-0.01,0.02-0.02,0.03-0.02,0.05
			c-0.21,0.37-0.43,0.74-0.64,1.1c0.08-0.07,0.15-0.14,0.23-0.21c-1.01,0.13-2.02,0.26-3.03,0.39c0.44,0.3,1.33,0.81,1.45,1.38
			c-0.14-0.64,0.16-0.19-0.36-0.11c-0.39,0.06-0.7,0.22-1.11,0.19c-1.64-0.12-2.12-1.73-1.66-3.09
			C46.64,125.9,41.81,124.59,40.76,127.62L40.76,127.62z"/>
	</g>
</g>
<g>
	<g>
		<path class="st0" d="M43.12,133.75c3.22,0,3.22-5,0-5C39.9,128.75,39.89,133.75,43.12,133.75L43.12,133.75z"/>
	</g>
</g>
<g>
	<g>
		<path class="st0" d="M45.62,134.75c3.22,0,3.22-5,0-5C42.4,129.75,42.4,134.75,45.62,134.75L45.62,134.75z"/>
	</g>
</g>
<g>
	<g>
		<path class="st0" d="M31.91,87.39c3.87,4.54,3.18,11.4,5.56,16.7c2.46,5.49,6.98,9.76,8.32,15.75c0.58-1.03,1.16-2.05,1.75-3.08
			c-2.73,0.93-7.45-11.93-7.26-13.84c0.5-5.08,9.08-3.81,12.65-2.86c4.6,1.23,8.11,4.6,11.24,8.01c0.89,0.91,1.72,1.88,2.49,2.91
			c0.27,3.46-1.1,4.31-4.11,2.54c-1.85-0.79-3.4-2.43-4.65-3.96c-0.96-1.17-3.04-3.74-2.95-5.31c0.17-2.86,3.95-1.34,5.66-0.78
			c2.36,0.77,4.55,2.08,6.33,3.81c0.9,0.86,1.69,1.82,2.34,2.89c-0.34-0.68-0.76-0.79-1.24-0.31c-2.31,1.91-5.98,2.5-8.56,4.11
			c-2.43,1.51-4.31,3.41-5.44,6.05c-0.6,1.41-0.24,3.26,1.49,3.67c4.56,1.09,9.03,1.52,13.72,1.28c-0.22-1.64-0.44-3.27-0.66-4.91
			c-2.66,0.38-5.58,0.74-8.25,0.23c-4.07-0.78-5.51-3.43-6.55-7.21c-0.61-2.21-1.28-4.24-2.59-6.15c-1.75-2.56-5.01-5.06-4.22-8.61
			c-1.39,0.37-2.79,0.74-4.18,1.1c10.4,8.94,20.9,17.82,32.92,24.55c2.08,1.16,4.87-1.26,3.42-3.42
			c-3.52-5.26-7.98-10.5-13.47-13.81c-4.1-2.47-8.26-0.68-8.01,4.35c0.22,4.39,2.59,10.1,7.94,9.36c0.83-0.11,1.43-0.58,2.24-0.78
			c2.41-0.58,3.93,0.44,5.99,2.17c1.14,0.96,8.89,7.68,8,8.97c0.94-0.38,1.88-0.77,2.82-1.15c-6.5-2.25-9.79-6.41-13.72-11.73
			c-2.37-3.22-5.43-4.97-9.43-3.99c-3.12,0.76-1.8,5.59,1.33,4.82c3.15-0.77,8.49,8.39,10.73,10.3c2.91,2.47,6.17,4.18,9.76,5.43
			c1.1,0.38,2.22-0.27,2.82-1.15c1.95-2.83,0.05-5.59-1.81-7.9c-3.01-3.72-6.65-7.55-10.79-10.04c-1.56-0.94-3.2-1.65-5.07-1.37
			c-0.49,0.07-1.3,0.55-1.75,0.56c-0.5,0.2-0.97,0.46-1.41,0.77c-0.88-1.42-1.77-2.85-2.65-4.27c2.05-1.56,11.24,10.59,12.17,11.98
			c1.14-1.14,2.28-2.28,3.42-3.42c-11.65-6.52-21.82-15.1-31.91-23.77c-1.34-1.15-3.74-0.86-4.18,1.1c-0.83,3.72,0.3,6.67,2.55,9.67
			c1.71,2.29,3.19,4.19,4.06,6.97c0.62,1.98,0.94,3.99,1.98,5.83c3.86,6.85,12.43,6.38,19.17,5.43c2.79-0.4,2.13-5.06-0.66-4.91
			c-4.23,0.22-8.26-0.12-12.39-1.1c0.5,1.22,1,2.45,1.49,3.67c2.61-6.15,9.91-5.67,14.34-9.67c3.83-3.45-0.67-7.91-3.56-10.29
			c-3.89-3.2-10.86-6.32-15.97-4.53c-5.7,2-2.99,8.97-0.67,12.59c2.65,4.13,7.57,8.85,12.87,8.64c4.66-0.19,8.12-4.38,6.53-8.95
			c-1.79-5.13-8.14-10.46-12.73-13.07c-5.45-3.1-12.72-3.49-18.79-2.36c-7.38,1.36-5.45,8.91-3.54,14.24
			c1.64,4.58,5.57,14.66,12.03,12.45c1.32-0.45,2.06-1.69,1.75-3.08c-1.55-6.9-7.03-11.59-9.25-18.14
			c-1.97-5.8-1.75-11.63-5.91-16.51C33.36,81.4,29.83,84.95,31.91,87.39L31.91,87.39z"/>
	</g>
</g>
<g>
	<g>
		<path class="st0" d="M78.59,119.06c-0.55-2.41,0.83-4.59-0.53-6.85c-1.13-1.88-3.11-2.31-5.13-2.74
			c-6.86-1.44-13.83-0.9-20.5,1.19c-1.96,0.61-2.57,3.52-0.6,4.57c5.95,3.16,11.05,7.21,15.49,12.28c0.81-1.39,1.62-2.79,2.43-4.18
			c-3.44-1.22-6.88-2.45-10.32-3.67c-2.02-0.72-8.87-1.96-9.9-4.02c0.23-1.81,0.46-3.62,0.69-5.43c0.71-0.73,1.51-1.34,2.39-1.84
			c1.07-0.69,2.24-1.27,3.4-1.79c3.64-1.65,7.32-2.49,11.32-2.19c-0.22-1.64-0.44-3.27-0.66-4.91
			c-11.04,2.69-22.97-3.54-26.89-14.26c-1.03,1.03-2.05,2.05-3.08,3.08c10.48,4.35,21.66,2.34,32.58,4.09
			c3.76,0.6,8.72,3.87,12.45,2.68c3.86-1.23,6.14-7.39,7.83-10.56c0.79-1.48-0.15-4.03-2.16-3.76
			c-11.13,1.47-22.48,17.73-16.92,28.56c2.04,3.96,6.76,7.62,10.46,3.53c1.95-2.15,2.44-5.15,2.61-7.94
			c0.21-3.43-1.11-10.1,3.08-11.81c-1.05-0.8-2.11-1.61-3.16-2.41c0.13,5.62,0.2,11.25,0.19,16.87c0,1.56-0.01,3.13-0.02,4.69
			c0,0.63-0.01,1.25-0.02,1.88c0.21,1.2-0.04,1.26-0.77,0.2c-0.52-0.01-1.05-0.01-1.57-0.02c0.4,0.28,0.8,0.55,1.2,0.83
			c0.71,0.03,1.87-0.59,2.47-0.93c3.2-1.8,3.83-5.28,4.46-8.65c1.01-5.45,1.35-10.95,1.13-16.49c-0.13-3.29-4.64-3.14-5,0
			c-0.77,6.74-1.27,13.49-1.49,20.28c-0.11,3.31,4.59,3.08,5,0c0.02-0.19,0.05-0.37,0.07-0.56c-0.61,0.8-1.22,1.61-1.84,2.41
			c-1.03,0.74-1.77,1.69-2.23,2.87c1.55,0.42,3.11,0.84,4.66,1.26c-1.02-9.01-3.1-18.91-12.84-22c-1.3-0.41-2.71,0.49-3.08,1.75
			c-2.49,8.57-2.82,17.22-1.12,25.97c0.36,1.83,2.96,2.43,4.18,1.1c3.08-3.35,3.05-7.4,2.63-11.72c-0.6-6.19-1.81-12.28-3.5-18.26
			c-0.77-2.73-4.85-2.16-4.91,0.66c-0.04,1.6-0.07,3.2-0.11,4.8c1.05-0.8,2.11-1.61,3.16-2.41c-5.74-0.98-10.48-4.82-15.78-7.06
			c-5.53-2.34-11.24-3.7-17.19-4.41c-2.2-0.26-3.23,2.88-1.77,4.27c6.32,6,13.8,10.18,22.25,12.35c0-1.61,0-3.21,0-4.82
			c-4.81,0.78-9.22,0.13-13.71-1.68c-0.22,1.64-0.44,3.27-0.66,4.91c3.33-0.06,6.66-0.11,9.99-0.17c3.3-0.06,7.31-0.76,10.52,0.04
			c-0.58-0.58-1.16-1.16-1.75-1.75c-0.62,1.51-1.24,3.02-1.85,4.53c0.84,0,1.68,0,2.52,0c-0.23-0.16-0.7-4.5-0.65-4.58
			c0.27-0.4,4.63-0.44,5.15-0.5c3.1-0.39,3.29-5.2,0-5c-9.11,0.54-17.96-0.39-26.74-2.87c-1.73-0.49-2.96,0.84-3.16,2.41
			c-0.81,6.24-0.58,12.32,0.57,18.5c0.59,3.16,5.41,1.82,4.82-1.33c-1.06-5.73-1.14-11.4-0.39-17.17c-1.05,0.8-2.11,1.61-3.16,2.41
			c9.18,2.59,18.55,3.61,28.07,3.05c0-1.67,0-3.33,0-5c-3.18,0.4-9.17-0.17-10.11,3.98c-0.73,3.2,0.26,8.55,3.09,10.42
			c0.73,0.49,1.79,0.43,2.52,0c3.37-1.98,5.18-6.41,4.15-10.18c-0.23-0.82-0.91-1.54-1.75-1.75c-3.17-0.79-6.6-0.31-9.85-0.25
			c-4,0.07-7.99,0.13-11.99,0.2c-2.99,0.05-3.17,3.9-0.66,4.91c5.37,2.17,10.68,2.61,16.37,1.68c2.51-0.41,2.25-4.24,0-4.82
			c-7.64-1.97-14.31-5.63-20.04-11.07c-0.59,1.42-1.18,2.85-1.77,4.27c6.39,0.76,12.61,2.54,18.37,5.43c4.4,2.21,8.33,5,13.27,5.85
			c1.61,0.28,3.13-0.66,3.16-2.41c0.04-1.6,0.07-3.2,0.11-4.8c-1.64,0.22-3.27,0.44-4.91,0.66c1.14,4.04,2.09,8.11,2.73,12.26
			c0.55,3.61,2.18,9.87-0.58,12.86c1.39,0.37,2.79,0.74,4.18,1.1c-1.53-7.87-1.11-15.62,1.12-23.31c-1.03,0.58-2.05,1.16-3.08,1.75
			c7.27,2.31,8.43,10.66,9.17,17.18c0.28,2.45,3.19,3.42,4.66,1.26c1.95-2.87,2.43-12.44-3.42-10.21c-1.17,0.44-1.67,1.21-1.84,2.41
			c-0.02,0.19-0.05,0.37-0.07,0.56c1.67,0,3.33,0,5,0c0.22-6.78,0.72-13.54,1.49-20.28c-1.67,0-3.33,0-5,0
			c0.19,4.78,0.03,9.52-0.78,14.24c-0.22,1.31-0.39,3.61-1.04,4.84c-1.42,2.68-2.75,1.63-4.41,2.91c-2.84,2.2-3.86,6.29,0.08,7.95
			c3.58,1.51,8.49,0.57,9.17-3.52c0.6-3.67,0.1-7.94,0.08-11.67c-0.02-4.38-0.09-8.75-0.19-13.12c-0.03-1.46-1.6-3.05-3.16-2.41
			c-7.21,2.95-6.3,10.13-6.75,16.64c-0.2,2.81-1.17,5.97-3.48,2.45c-1.48-2.24-1.23-5.38-0.49-7.8c1.61-5.22,7.04-13.04,12.81-13.8
			c-0.72-1.25-1.44-2.51-2.16-3.76c-0.98,1.85-1.96,4.48-3.42,6c-0.49,1.59-1.61,2.17-3.36,1.77c-1.01-0.43-2.03-0.8-3.08-1.11
			c-3.61-1.09-7.42-1.52-11.18-1.76c-8.88-0.57-17.78,0.09-26.18-3.4c-1.73-0.72-3.69,1.4-3.08,3.08
			c4.88,13.33,19.2,21.12,33.04,17.75c2.87-0.7,2.03-4.71-0.66-4.91c-7.93-0.59-22.13,3.5-23.49,12.87
			c-0.65,4.48,2.01,7.48,5.9,9.19c6.02,2.64,12.49,4.5,18.68,6.7c2.53,0.9,3.94-2.46,2.43-4.18c-4.7-5.37-10.19-9.71-16.5-13.06
			c-0.2,1.52-0.4,3.05-0.6,4.57c4.88-1.53,9.9-2.22,15.01-1.64c1.54,0.18,3.05,0.46,4.54,0.85c0.85,0.32,0.94,1,0.26,2.04
			c0.07,1.32-0.11,2.32,0.19,3.66C74.48,123.52,79.3,122.19,78.59,119.06L78.59,119.06z"/>
	</g>
</g>
<g>
	<g>
		<path class="st0" d="M45.12,114.77c9.75-0.53,19.48,0.32,29.23,0.09c4.43-0.11,8.88-0.45,13.24-1.26
			c2.64-0.49,7.15-0.92,8.78-3.53c3.75-6.03-7.58-8.09-11.15-8.53c-4.75-0.59-10.26,3.68-6.77,8.56c0.63,0.88,1.71,1.51,2.82,1.15
			c3.27-1.07,5.09-3.61,6.06-6.87c1.35-4.58-0.69-6.64-3.99-9.71c-6.47-6.01-16.66-13.18-25.93-11.51
			c-3.16,0.57-1.82,5.39,1.33,4.82c5.34-0.96,11.63,3.12,15.87,6.04c2.06,1.42,3.99,3.01,5.8,4.74c1.14,1.09,2.06,1.75,2.19,3.31
			c0.13,1.56-1.17,3.88-2.65,4.36c0.94,0.38,1.88,0.77,2.82,1.15c-1.49-2.08,6.12,0.06,5.71-0.06c1.42,0.41,3.31,0.54,4.33,1.69
			c-0.21-0.81-0.43-1.62-0.64-2.43c-0.29,2.11-11.18,2.73-12.38,2.82c-3.92,0.31-7.87,0.33-11.8,0.27
			c-7.63-0.11-15.23-0.51-22.86-0.1C41.92,109.94,41.9,114.94,45.12,114.77L45.12,114.77z"/>
	</g>
</g>
<g>
	<g>
		<path class="st1" d="M47.62,104.23c3.22,0,3.22-5,0-5C44.4,99.23,44.4,104.23,47.62,104.23L47.62,104.23z"/>
	</g>
</g>
<g>
	<g>
		<path class="st1" d="M75.13,104.23c3.22,0,3.22-5,0-5C71.92,99.23,71.91,104.23,75.13,104.23L75.13,104.23z"/>
	</g>
</g>
<g>
	<g>
		<path class="st1" d="M59.93,109.58c1-0.05,1.99-0.03,2.99,0.07c-0.36-0.63-0.72-1.25-1.08-1.88c-0.16,0.24-0.31,0.48-0.47,0.72
			c-0.07,0.1-0.13,0.21-0.2,0.31c-0.18,0.25-0.18,0.27-0.01,0.07c0.21-0.06,0.42-0.11,0.63-0.17c0.16-0.01-0.04-0.07-0.1-0.13
			c-0.11-0.1-0.23-0.18-0.35-0.28c-0.25-0.21-0.48-0.44-0.71-0.68c-1.12-1.16-2.89,0.61-1.77,1.77c0.68,0.71,1.69,1.79,2.74,1.83
			c1.26,0.05,1.82-1.29,2.4-2.18c0.56-0.86-0.2-1.79-1.08-1.88c-1-0.1-1.99-0.12-2.99-0.07C58.33,107.16,58.32,109.66,59.93,109.58
			L59.93,109.58z"/>
	</g>
</g>
<g>
	<g>
		<path class="st1" d="M35.12,87.02c-0.08-1.09-0.17-2.18-0.25-3.26c-0.63,0.36-1.25,0.72-1.88,1.08c0.72,0.33,1.44,0.66,2.16,1
			c0.61,0.28,1.35,0.17,1.71-0.45c0.32-0.54,0.17-1.43-0.45-1.71c-0.72-0.33-1.44-0.66-2.16-1c-0.78-0.36-1.96,0.05-1.88,1.08
			c0.08,1.09,0.17,2.18,0.25,3.26c0.05,0.67,0.54,1.25,1.25,1.25C34.51,88.27,35.18,87.7,35.12,87.02L35.12,87.02z"/>
	</g>
</g>
<g>
	<g>
		<path class="st1" d="M85.46,85.48c0.81-0.65,1.61-1.31,2.42-1.96c-0.7-0.18-1.39-0.37-2.09-0.55c0.28,1.06,0.46,2.12,0.54,3.22
			c0.11,1.6,2.61,1.61,2.5,0c-0.09-1.31-0.3-2.61-0.63-3.88c-0.26-0.98-1.39-1.12-2.09-0.55c-0.81,0.65-1.61,1.31-2.42,1.96
			c-0.53,0.43-0.44,1.33,0,1.77C84.21,86,84.93,85.91,85.46,85.48L85.46,85.48z"/>
	</g>
</g>
<g>
	<g>
		<path class="st0" d="M26.87,194.51c-7.25,1.13-14.97,2.68-20.01,8.49c-3.72,4.28-5.09,10.19-2.61,15.43
			c6.07,12.8,26.67,15.19,38.85,16.59c18.69,2.15,38.15,1.86,56.87,0.23c8.23-0.72,16.87-1.51,24.83-3.78
			c5.26-1.5,11.02-4.3,13-9.78c2.44-6.77-2.02-13.22-7.61-16.72c-8.35-5.22-18.82-8.02-27.93-11.65c-2.99-1.19-4.29,3.64-1.33,4.82
			c8.31,3.31,17.5,5.98,25.32,10.33c3.75,2.08,7.88,5.5,7.12,10.3c-0.62,3.95-4.48,6.02-7.93,7.26c-7.67,2.76-16.47,3.4-24.52,4.13
			c-8.61,0.78-17.26,1.08-25.9,1.13c-17.12,0.09-34.75-0.07-51.24-5.25c-6.12-1.92-16.35-5.75-15.84-13.79
			c0.62-9.64,12.82-11.76,20.25-12.92C31.37,198.84,30.02,194.02,26.87,194.51L26.87,194.51z"/>
	</g>
</g>
<g>
	<g>
		<path class="st0" d="M44.32,201.84c-6.92-1.74-11.86,5.67-8.63,11.75c4.43,8.34,17.65,8.29,25.76,8.31
			c10.17,0.03,21.92-1.24,31.34-5.28c5.89-2.53,10.37-10.72,3.37-14.96c-2.76-1.67-5.28,2.65-2.52,4.32
			c6.3,3.81-9.17,7.98-10.9,8.39c-5.18,1.22-10.44,2.04-15.76,2.37c-4.9,0.3-9.84,0.21-14.71-0.38c-2.51-0.31-5.32-0.63-7.71-1.57
			c-1.75-0.57-3.17-1.61-4.24-3.13c-1.61-2.77-0.72-4.44,2.68-5C46.11,207.45,47.44,202.62,44.32,201.84L44.32,201.84z"/>
	</g>
</g>
<g>
	<g>
		<path class="st0" d="M99.64,125.29c1.93-6.94,14.76-3.9,19.96-7.51c4.69-3.26,6.85-9.42,8.57-14.6
			c4.59-13.84,0.82-26.46-12.29-33.57c-6.69-3.63-14.22-5.12-21.45-7.26c-5.13-1.51-8.5-2.76-9.59-8.49
			c-0.9-4.74-0.85-9.9-0.33-14.68c0.72-6.61,4.26-14.44,1-20.88c-2.43-4.8-7.53-6.52-12.57-7.02c-6.19-0.6-13.95-0.62-19.52,2.53
			c-6.29,3.55-7.66,10.38-8.15,17.04c-0.23,3.21,4.77,3.2,5,0c0.35-4.81,1-10.14,5.67-12.73c3.28-1.81,7.27-1.95,10.92-2.02
			c3.24-0.06,6.9-0.21,9.96,0.97c5.69,2.19,5.26,7.62,4.34,12.58c-1.59,8.57-2.72,16.81-1.15,25.52c1.23,6.83,5.07,9.47,11.32,11.45
			c8.05,2.55,16.68,3.85,23.95,8.4c8.93,5.6,11.61,14.28,8.83,24.31c-1.04,3.74-2.36,7.67-4.41,10.97
			c-2.92,4.7-7.06,4.88-12.13,5.35c-5.53,0.52-11.12,2.42-12.76,8.29C93.95,127.06,98.78,128.39,99.64,125.29L99.64,125.29z"/>
	</g>
</g>
<g>
	<g>
		<path class="st0" d="M45.65,28.76c-3.76,1.7-0.37-7.95-0.05-8.45c1.2-1.88,2.86-3.54,4.58-4.95c3.3-2.7,7.22-4.57,11.34-5.63
			c6.71-1.72,16.75-1.6,22.49,3.04C88,16,86.53,22.4,86.34,26.89c-0.19,4.32-0.38,8.65-0.22,12.97c0.26,7.16,1.43,14.47,5.05,20.76
			c1.69,2.94,3.72,5.69,6.97,6.96c3.37,1.32,7.39,1.4,10.9,2.32c9.46,2.48,19.51,6.22,21.19,17c1.38,8.91-0.02,19.81-6.95,26.18
			c-6.62,6.08-15.99,3.09-23.24,7.72c-2.7,1.73-0.2,6.06,2.52,4.32c3.86-2.47,8.29-2.24,12.66-2.94c3.9-0.62,7.43-2.08,10.49-4.61
			c5.94-4.91,8.86-12.31,9.64-19.82c0.78-7.52,0.36-16.81-4.98-22.74c-5.2-5.78-14.38-8.64-21.72-10.34
			c-2.28-0.53-4.64-0.71-6.91-1.25c-3.24-0.77-4.64-2.48-6.25-5.31c-2.62-4.59-3.74-9.82-4.19-15.04
			c-0.74-8.69,1.14-17.52,0.19-26.14C89.89,2.26,67.17,2.12,56.84,5.96c-7.04,2.62-14.48,7.79-17.21,15.09
			c-2.26,6.03,0.64,15.6,8.55,12.01C51.1,31.75,48.56,27.44,45.65,28.76L45.65,28.76z"/>
	</g>
</g>
<g>
	<g>
		<path class="st0" d="M128,108.64c1.26-10.88,6.5-22.27-1.58-31.82c-2.08-2.46-5.6,1.09-3.54,3.54c6.61,7.81,1.14,19.42,0.11,28.28
			C122.63,111.83,127.63,111.81,128,108.64L128,108.64z"/>
	</g>
</g>
<g>
	<g>
		<path class="st0" d="M130.27,105.63c0.18-2.82,0.36-5.63,0.54-8.45c0.2-3.21-4.8-3.2-5,0c-0.18,2.82-0.36,5.63-0.54,8.45
			C125.07,108.84,130.07,108.83,130.27,105.63L130.27,105.63z"/>
	</g>
</g>
<g>
	<g>
		<path class="st0" d="M91.88,60c-4.15-9.32-1.14-19.91-1.93-29.71c-0.2-2.52-3.21-3.34-4.66-1.26c-4.76,6.82-5.84,15.3-2.91,23.09
			c1.12,2.98,5.96,1.69,4.82-1.33c-2.5-6.67-1.67-13.39,2.41-19.24c-1.55-0.42-3.11-0.84-4.66-1.26
			c0.88,10.96-2.03,21.82,2.61,32.24C88.87,65.46,93.18,62.92,91.88,60L91.88,60z"/>
	</g>
</g>
<g>
	<g>
		<path class="st0" d="M88.18,19.11C86.45,7.18,68.41,7.03,59.42,7.18c-9.96,0.17-18.18,12.36-18.65,21.49c-0.17,3.22,4.83,3.21,5,0
			c0.21-4.06,1.92-7.52,4.58-10.54c3.12-3.54,6.04-5.91,10.97-5.84c6.51,0.09,20.79-0.41,22.03,8.16
			C83.82,23.61,88.64,22.26,88.18,19.11L88.18,19.11z"/>
	</g>
</g>
<g>
	<g>
		<path class="st0" d="M85.14,56.54c3.22,0,3.22-5,0-5C81.93,51.54,81.92,56.54,85.14,56.54L85.14,56.54z"/>
	</g>
</g>
<g>
	<g>
		<path class="st0" d="M85.14,58.23c3.22,0,3.22-5,0-5C81.93,53.23,81.92,58.23,85.14,58.23L85.14,58.23z"/>
	</g>
</g>
<g>
	<g>
		<path class="st0" d="M46.17,127.35c-0.15,0-0.3,0-0.45,0c-1.31,0-2.56,1.15-2.5,2.5c0.06,1.35,1.1,2.5,2.5,2.5
			c0.15,0,0.3,0,0.45,0c1.31,0,2.56-1.15,2.5-2.5C48.61,128.49,47.57,127.35,46.17,127.35L46.17,127.35z"/>
	</g>
</g>
<g>
	<g>
		<path class="st0" d="M128.71,93.43c0,0.98,0,1.96,0,2.94c0,1.31,1.15,2.56,2.5,2.5c1.35-0.06,2.5-1.1,2.5-2.5
			c0-0.98,0-1.96,0-2.94c0-1.31-1.15-2.56-2.5-2.5C129.85,91,128.71,92.03,128.71,93.43L128.71,93.43z"/>
	</g>
</g>
<g>
	<g>
		<path class="st0" d="M53.91,155.99c-3.87-5.61-13.11-14.06-17.93-4.37c-4.78,9.6,6.82,20.81,12.69,27.08
			c2.2,2.35,5.74-1.19,3.54-3.54c-3.74-3.99-7.54-8.25-10.28-13c-0.79-1.38-1.52-2.76-1.8-4.33c-0.42-2.42-0.37-3.1,1.95-4.19
			c2.42-1.14,2.64-0.51,4.43,1.18c1.19,1.12,2.15,2.35,3.09,3.71C51.41,161.14,55.74,158.65,53.91,155.99L53.91,155.99z"/>
	</g>
</g>
<g>
	<g>
		<path class="st0" d="M53.59,159.45c1.26-2.17,3.29-5.28,5.8-6.23c4.35-1.65,5.25,1.32,4.48,4.14c-0.47,1.73-1.99,3.29-3.11,4.57
			c-3.64,4.19-7.01,8.3-9.84,13.09c-1.64,2.78,2.68,5.3,4.32,2.52c3.13-5.31,7.3-9.46,10.95-14.34c2.51-3.36,3.96-7.54,2.05-11.55
			c-4.65-9.78-15.64-0.48-18.97,5.26C47.66,159.71,51.98,162.24,53.59,159.45L53.59,159.45z"/>
	</g>
</g>
<g>
	<g>
		<path class="st0" d="M88.15,154.62c-3.94-2.9-14.93-9.24-16.02-0.03c-0.42,3.56,1.65,7.17,3.67,9.91
			c3.23,4.38,7.06,8.39,10.61,12.51c2.1,2.44,5.63-1.11,3.54-3.54c-3.59-4.16-7.79-8.21-10.79-12.83c-1.1-1.7-3.23-5.68-0.03-5.62
			c1.87,0.04,5.09,2.87,6.49,3.91C88.22,160.85,90.72,156.51,88.15,154.62L88.15,154.62z"/>
	</g>
</g>
<g>
	<g>
		<path class="st0" d="M90.74,158.65c0.21-2.02,4.35-4.81,6.46-4.3c1.17,0.29,0.77,1.16,0.36,2.57c-0.38,1.32-1.06,2.56-1.71,3.76
			c-2.27,4.15-4.93,8.09-7.74,11.89c-1.92,2.59,2.42,5.09,4.32,2.52c3.45-4.67,14.87-18.06,9.22-24.29
			c-2.41-2.66-6.52-1.34-9.37-0.18c-3.7,1.5-6.13,3.99-6.55,8.03C85.41,161.84,90.41,161.82,90.74,158.65L90.74,158.65z"/>
	</g>
</g>
<g>
	<g>
		<path class="st0" d="M115.76,153.4c-1.16-2.02-2.69-3.83-5.17-3.95c-2.35-0.11-4.37,1.48-5.29,3.56
			c-2.24,5.07,0.88,11.51,4.03,15.46c2.01,2.52,5.52-1.04,3.54-3.54c-1.37-1.71-2.34-3.66-2.86-5.79c-0.36-1.47-0.54-6.66,1.44-3.21
			C113.04,158.71,117.36,156.2,115.76,153.4L115.76,153.4z"/>
	</g>
</g>
<g>
	<g>
		<path class="st0" d="M19.37,160.21c0.73-2.34,4.27-7.47,6.36-2.77c0.65,1.47-0.44,4.56-0.83,6.11c-1.07,4.31-3.06,8.22-5.84,11.68
			c-2,2.49,1.52,6.05,3.54,3.54c3-3.74,5.35-7.8,6.73-12.42c1.09-3.66,2.38-9.08,0.75-12.76c-3.69-8.3-13.83-0.18-15.53,5.29
			C13.59,161.96,18.41,163.28,19.37,160.21L19.37,160.21z"/>
	</g>
</g>
<g>
	<g>
		<path class="st0" d="M17.97,157.37c-0.64-1.16-1.29-2.32-1.93-3.49c-0.63-1.15-2.3-1.62-3.42-0.9c-1.16,0.75-1.57,2.2-0.9,3.42
			c0.64,1.16,1.29,2.32,1.93,3.49c0.63,1.15,2.3,1.62,3.42,0.9C18.24,160.04,18.65,158.6,17.97,157.37L17.97,157.37z"/>
	</g>
</g>
<g>
	<g>
		<path class="st0" d="M83.55,117.86c3.22,0,3.22-5,0-5C80.33,112.86,80.33,117.86,83.55,117.86L83.55,117.86z"/>
	</g>
</g>
<g>
	<g>
		<path class="st0" d="M64.44,100.66c0,0.23,0,0.45,0,0.68c0,1.31,1.15,2.56,2.5,2.5c1.35-0.06,2.5-1.1,2.5-2.5
			c0-0.23,0-0.45,0-0.68c0-1.31-1.15-2.56-2.5-2.5C65.58,98.22,64.44,99.26,64.44,100.66L64.44,100.66z"/>
	</g>
</g>
<g>
	<g>
		<path class="st0" d="M81.69,87.8c-1.29-0.31-2.62-0.48-3.94-0.49c-1.31-0.01-2.56,1.15-2.5,2.5c0.06,1.36,1.1,2.49,2.5,2.5
			c0.51,0,1.02,0.04,1.53,0.08c0.18,0.02,0.16,0.02-0.08-0.01c0.12,0.02,0.23,0.04,0.35,0.06c0.27,0.05,0.54,0.11,0.81,0.18
			c1.27,0.31,2.77-0.4,3.08-1.75C83.73,89.58,83.05,88.12,81.69,87.8L81.69,87.8z"/>
	</g>
</g>
<g>
	<g>
		<path class="st0" d="M40.41,121.64c0.93,0.39,1.87,0.79,2.8,1.18c0.55,0.23,1.43,0.04,1.93-0.25c0.52-0.3,1.01-0.9,1.15-1.49
			c0.15-0.64,0.11-1.36-0.25-1.93c-0.38-0.59-0.86-0.88-1.49-1.15c-0.93-0.39-1.87-0.79-2.8-1.18c-0.55-0.23-1.43-0.04-1.93,0.25
			c-0.52,0.3-1.01,0.9-1.15,1.49c-0.15,0.64-0.11,1.36,0.25,1.93C39.29,121.07,39.77,121.37,40.41,121.64L40.41,121.64z"/>
	</g>
</g>
<g>
	<g>
		<path class="st0" d="M125.13,113.07c3.22,0,3.22-5,0-5C121.91,108.07,121.91,113.07,125.13,113.07L125.13,113.07z"/>
	</g>
</g>
<g>
	<g>
		<path class="st0" d="M88.51,56.21c3.22,0,3.22-5,0-5C85.3,51.21,85.29,56.21,88.51,56.21L88.51,56.21z"/>
	</g>
</g>
<g>
</g>
<g>
</g>
<g>
</g>
<g>
</g>
<g>
</g>
<g>
</g>
</svg>
