<?xml version="1.0" encoding="utf-8"?>
<!-- Generator: Adobe Illustrator 21.0.2, SVG Export Plug-In . SVG Version: 6.00 Build 0)  -->
<svg version="1.1" id="cat_4" xmlns="http://www.w3.org/2000/svg" xmlns:xlink="http://www.w3.org/1999/xlink" x="0px" y="0px"
	 viewBox="0 0 407.2 338.66" style="enable-background:new 0 0 407.2 338.66;" xml:space="preserve">
<title>cat farting hearts</title>
<style type="text/css">
</style>
<g>
	<g>
		<path class="st0" d="M25.06,147.96c-0.04-10.11-0.09-20.21-0.13-30.32c-1.25,0.72-2.51,1.44-3.76,2.16
			c3.52,2.62,7.04,5.24,10.56,7.86c2.53,1.88,5.57,5.05,8.67,5.99c5.35,1.63,9.39-4.58,12.76-7.63c5.89-5.33,12.79-10.22,20.9-11.11
			c8.9-0.98,17.68,2.64,25.77,5.86c1.57,0.63,3.13-0.94,3.16-2.41c0.21-8.91,2.01-17.53,5.5-25.74c-1.44,0-2.88,0-4.32,0
			c9.62,15.53,15.55,33.77,13.44,52.2c-1.79,15.66-9.93,31.13-23.02,40.2c-12.46,8.64-29.37,10.54-43.24,4.1
			c-16.15-7.5-21.73-24.53-26.4-40.39c-0.91-3.08-5.73-1.77-4.82,1.33c4.02,13.66,8.57,28.42,19.98,37.83
			c9.74,8.04,22.88,11.19,35.31,9.63c27.66-3.47,45.89-29.53,47.48-56.1c1.09-18.16-4.94-36.03-14.41-51.33
			c-0.89-1.43-3.54-1.82-4.32,0c-3.85,9.05-5.95,18.42-6.18,28.26c1.05-0.8,2.11-1.61,3.16-2.41c-13.93-5.55-27.97-9.3-41.65-1.04
			c-5.72,3.46-9.73,8.67-15.03,12.5c-3.63,2.62-7.22-1.83-10.23-4.07c-3.52-2.62-7.04-5.24-10.56-7.86
			c-1.57-1.17-3.77,0.42-3.76,2.16c0.04,10.11,0.09,20.21,0.13,30.32C20.07,151.17,25.07,151.18,25.06,147.96L25.06,147.96z"/>
	</g>
</g>
<g>
	<g>
		<path class="st0" d="M66.57,200.97c-3.17,24.97-4.47,50.15-3.74,75.32c0.32,11.16,0.17,23.09,2.37,34.07
			c1.29,6.43,4.99,13.85,12.54,13.42c1.46-0.08,2.35-1.09,2.5-2.5c2.84-25.92,5.68-51.84,8.52-77.76c-1.55,0.42-3.11,0.84-4.66,1.26
			c12.41,26.45,15.01,55.86,17.39,84.6c0.12,1.41,1.54,3.1,3.16,2.41c21.43-9.01,10.64-42.78,10.8-59.83
			c0.23-24.48,18.54-48,44.84-45.18c12.28,1.32,22.56,8.55,28.19,19.48c5.58,10.84,6.51,23.43,6.95,35.4
			c0.47,12.87,0.17,26.62,4.74,38.88c2.41,6.48,11.11,15.4,17.25,7.22c3.52-4.69,2.61-12.77,2.96-18.2
			c0.52-7.9,1.03-15.79,1.55-23.69c1.08-16.45,2.15-32.9,3.23-49.35c-1.25,0.72-2.51,1.44-3.76,2.16
			c12.18,7.9,11.2,26.45,13.21,39.14c2.71,17.06,7.35,33.74,13.67,49.81c0.54,1.37,1.61,1.97,3.08,1.75
			c3.88-0.59,5.99-3.78,7.13-7.3c1.87-5.76,2.36-12.19,3.16-18.17c1.85-13.82,2.72-27.74,2.87-41.68
			c0.31-27.77-2.16-55.48-4.91-83.09c-2.77-27.76-5.87-55.52-6.9-83.41c-0.5-13.67-1.19-28.03,3.28-41.17
			c3.75-11.02,12.13-21.57,23.98-24.14c13.19-2.86,26.28,4.01,39.55,2.95c9.52-0.76,18.84-5.96,21.48-15.72
			c1.94-7.19-3.07-18.84-11.55-12.46c-4.41,3.32-6.96,6.91-12.75,8.27c-6.52,1.54-13.21,0.53-19.71-0.53
			c-11.22-1.83-21.82-2.81-32.28,2.51c-9.35,4.75-16.65,12.92-21.61,22.04c-5.91,10.87-8.87,23.05-11.41,35.08
			c-2.82,13.36-4.94,26.88-6.38,40.46c-1.61,15.23-0.92,30.85-3.28,45.97c-0.2,1.3-0.24,3.76-0.97,4.89
			c-2.15,3.32-4.11,1.92-6.51,1.01c-3.36-1.28-6.66-2.63-10.1-3.71c-6.59-2.07-13.34-3.52-20.18-4.42
			c-25.95-3.43-52.6,1.62-75.46,14.35c-2.81,1.57-0.29,5.89,2.52,4.32c20.46-11.4,44.01-16.31,67.33-14.29
			c12.04,1.04,23.32,4.26,34.55,8.58c3.7,1.42,7.95,2.43,10.9-0.97c2.74-3.16,2.86-8.75,3.3-12.68c1.48-13,1.25-26.18,2.5-39.22
			c1.3-13.47,3.3-26.87,6-40.13c4.47-21.97,11.18-49.73,34.81-58.48c11.89-4.4,23.73,0.26,35.79,0.95
			c9.61,0.55,17.56-1.89,24.44-8.61c1.79-1.75,3.08-3.76,5.26,0.58c0.59,1.18,0.33,2.96,0.12,4.21c-0.43,2.6-1.72,4.97-3.46,6.94
			c-4.69,5.32-11.88,6.43-18.63,6.12c-12.16-0.56-24.09-5.67-36.32-2.65c-20.76,5.13-29.01,27.7-30.26,46.79
			c-1.68,25.75,1.55,52.21,4.05,77.81c2.86,29.31,6.29,58.6,7.44,88.05c0.57,14.57,0.57,29.18-0.37,43.73
			c-0.49,7.68-1.24,15.35-2.31,22.97c-0.62,4.38-0.82,18.57-6.45,19.43c1.03,0.58,2.05,1.16,3.08,1.75
			c-7.14-18.15-12.16-37.1-14.63-56.46c-1.64-12.83-2.62-27.73-14.56-35.47c-1.69-1.1-3.65,0.38-3.76,2.16
			c-0.9,13.82-1.81,27.63-2.71,41.45c-0.9,13.78-1.26,27.72-2.71,41.45c-0.18,1.69-0.15,4.62-1.65,5.8c-2.13,1.68-3.87,0-5.15-1.21
			c-2.49-2.35-3.43-6.01-4.28-9.2c-1.75-6.6-2.4-13.4-2.76-20.21c-0.6-11.51-0.35-23.09-2.6-34.45
			c-3.93-19.91-16.86-36.24-38.01-38.38c-20.17-2.04-38.35,10.85-45.93,29.16c-5.29,12.79-3.95,26.48-2.68,39.91
			c0.99,10.47,4.26,30.81-8.36,36.12c1.05,0.8,2.11,1.61,3.16,2.41c-2.46-29.68-5.26-59.81-18.08-87.13
			c-1.17-2.49-4.42-0.91-4.66,1.26c-2.84,25.92-5.68,51.84-8.52,77.76c0.83-0.83,1.67-1.67,2.5-2.5c-8.96,0.5-8.49-16.36-8.89-21.94
			c-0.77-10.76-1.18-21.54-1.22-32.32c-0.09-21.25,1.26-42.48,3.94-63.56C71.98,197.79,66.97,197.82,66.57,200.97L66.57,200.97z"/>
	</g>
</g>
<g>
	<g>
		<path class="st0" d="M272.93,192.52c15.93,0.21,31.63-10.27,42.89-20.78c9.64-9,21.27-25.32,16.67-39.38
			c-3.35-10.22-23.7-21.65-32.09-11.11c-8.17,10.26,9.6,21.45,15.55,9.27c1.41-2.88-2.9-5.42-4.32-2.52
			c-1.47,3.01-5.43,4.23-7.43,1.03c-1.95-3.12,0.67-6.14,3.91-6.76c4.99-0.95,10.9,2.69,14.76,5.57c9.54,7.11,4.47,20.45-0.8,28.8
			c-5.04,7.99-12.32,14.47-20.09,19.73c-8.65,5.86-18.31,11.29-29.04,11.15C269.71,187.48,269.71,192.48,272.93,192.52
			L272.93,192.52z"/>
	</g>
</g>
<g>
	<g>
		<path class="st0" d="M276.39,212.28c9.47,1.21,18.86-0.61,28.34-0.24c11.21,0.45,19.31,6.2,26.77,14.12
			c6.33,6.72,11.79,14.72,13.86,23.83c0.77,3.36,2.21,10.94-0.91,13.69c-2.9,2.56-6.8-0.33-8.79-2.84
			c-2.02-2.55-3.41-5.81-2.02-9.04c1.26-2.92-3.05-5.47-4.32-2.52c-2.18,5.07-1.15,10.01,2.17,14.38c2.82,3.72,7.94,7.82,12.94,6.14
			c11.12-3.73,6.23-21.95,2.97-29.27c-5.23-11.74-15.61-24.02-27.22-29.83c-13.75-6.89-29.23-1.56-43.79-3.42
			C273.21,206.88,273.24,211.88,276.39,212.28L276.39,212.28z"/>
	</g>
</g>
<g>
	<g>
		<path class="st0" d="M47.81,155.59c2.28-3.02,5.18-7.05,9.21-7.64c1.45-0.21,3.35-0.05,4.52,0.93c0.9,0.76,0.65,1.81,1.3,2.49
			c0.25,0.26,0.02-1.87,0.02-2.03c-0.05-3.21-5.05-3.22-5,0c0.05,3.54,1.93,8.58,6.47,7.15c4.24-1.34,4.22-6.96,1.94-9.91
			c-2.53-3.28-7.24-4.38-11.15-3.37c-5.14,1.33-8.58,5.83-11.62,9.85C41.56,155.64,45.9,158.13,47.81,155.59L47.81,155.59z"/>
	</g>
</g>
<g>
	<g>
		<path class="st0" d="M87.07,147.11c2.21-2.41,4.5-5.01,7.32-6.74c1.25-0.77,2.6-1.45,4.04-1.77c1.06-0.29,2.13-0.3,3.19-0.05
			c1.51,0.22,1.66,0.6,0.45,1.17c-0.58-3.16-5.4-1.82-4.82,1.33c1.78,9.73,16.09,3.15,10.29-4.38c-6.96-9.05-18.97,1.41-24,6.91
			C81.37,145.95,84.9,149.49,87.07,147.11L87.07,147.11z"/>
	</g>
</g>
<g>
	<g>
		<path class="st0" d="M71.4,168.19c2.65,0.56,5.34,0.17,7.6-1.38c-1.22-0.5-2.45-1-3.67-1.49c0.72,2.07,0.67,3.99-0.12,6.03
			c1.22-0.5,2.45-1,3.67-1.49c-1.82-0.86-3.12-2.07-4.04-3.86c-1.48-2.86-5.8-0.33-4.32,2.52c1.27,2.46,3.33,4.47,5.84,5.66
			c1.56,0.74,3.06,0.1,3.67-1.49c1.06-2.78,1.09-5.88,0.12-8.69c-0.49-1.42-2.25-2.46-3.67-1.49c-1.15,0.78-2.36,1.17-3.75,0.87
			C69.59,162.71,68.25,167.52,71.4,168.19L71.4,168.19z"/>
	</g>
</g>
<g>
	<g>
		<path class="st0" d="M75.77,174.77c-2.11,4.22-8.08,5.81-11.77,2.57c-2.41-2.12-5.96,1.41-3.54,3.54c5.96,5.24,16,3.68,19.62-3.58
			C81.52,174.42,77.21,171.88,75.77,174.77L75.77,174.77z"/>
	</g>
</g>
<g>
	<g>
		<path class="st0" d="M76.25,178.36c8.49,1.9,16.99-2.87,19.86-11.06c1.07-3.04-3.76-4.35-4.82-1.33
			c-1.94,5.53-8.01,8.85-13.71,7.57C74.45,172.84,73.11,177.66,76.25,178.36L76.25,178.36z"/>
	</g>
</g>
<g>
	<g>
		<path class="st0" d="M124.17,141.79c5.73-3.67,11.46-7.34,17.19-11.02c2.7-1.73,0.2-6.06-2.52-4.32
			c-5.73,3.67-11.46,7.34-17.19,11.02C118.95,139.2,121.45,143.53,124.17,141.79L124.17,141.79z"/>
	</g>
</g>
<g>
	<g>
		<path class="st0" d="M118.16,148.3c6.42,0.89,12.85,1.79,19.27,2.68c3.15,0.44,4.51-4.38,1.33-4.82
			c-6.42-0.89-12.85-1.79-19.27-2.68C116.35,143.05,114.99,147.86,118.16,148.3L118.16,148.3z"/>
	</g>
</g>
<g>
	<g>
		<path class="st0" d="M122.96,144.95c5.73,0,11.47,0,17.2,0c3.22,0,3.22-5,0-5c-5.73,0-11.47,0-17.2,0
			C119.74,139.95,119.73,144.95,122.96,144.95L122.96,144.95z"/>
	</g>
</g>
<g>
	<g>
		<path class="st0" d="M33.52,171.6c-8.71,0-17.43,0-26.14,0c-3.22,0-3.22,5,0,5c8.71,0,17.43,0,26.14,0
			C36.74,176.6,36.75,171.6,33.52,171.6L33.52,171.6z"/>
	</g>
</g>
<g>
	<g>
		<path class="st0" d="M32.58,178.96c-1.43,7.09-3.52,13.94-6.29,20.62c-1.23,2.97,3.61,4.26,4.82,1.33
			c2.77-6.68,4.86-13.53,6.29-20.62C38.04,177.14,33.22,175.8,32.58,178.96L32.58,178.96z"/>
	</g>
</g>
<g>
	<g>
		<path class="st0" d="M30.43,175.84c-4.61,3.87-9.21,7.75-13.82,11.62c-2.47,2.07,1.09,5.6,3.54,3.54
			c4.61-3.87,9.21-7.75,13.82-11.62C36.44,177.3,32.88,173.78,30.43,175.84L30.43,175.84z"/>
	</g>
</g>
<g>
	<g>
		<path class="st0" d="M32.58,141.77c0.01-1.53,0.03-3.05,0.04-4.58c-0.61,0.8-1.22,1.61-1.84,2.41c1.07-0.33,1.9-0.27,2.82,0.24
			c2.81,1.57,5.34-2.75,2.52-4.32c-2.04-1.14-4.43-1.44-6.68-0.75c-1.06,0.33-1.82,1.29-1.84,2.41c-0.01,1.53-0.03,3.05-0.04,4.58
			C27.55,144.98,32.55,144.99,32.58,141.77L32.58,141.77z"/>
	</g>
</g>
<g>
	<g>
		<path class="st0" d="M110.78,120.37c0.76-2.53,0.4-5.26-0.99-7.5c-1.17-1.88-3.89-1.44-4.57,0.6c-0.4,1.18-0.79,2.37-1.19,3.55
			c-0.43,1.28,0.49,2.73,1.75,3.08c1.36,0.37,2.65-0.46,3.08-1.75c0.4-1.18,0.79-2.37,1.19-3.55c-1.52,0.2-3.05,0.4-4.57,0.6
			c0.72,1.16,0.88,2.34,0.49,3.64C105.03,122.13,109.86,123.45,110.78,120.37L110.78,120.37z"/>
	</g>
</g>
<g>
	<g>
		<path class="st0" d="M224.09,202.74c3.22,0,3.22-5,0-5C220.87,197.74,220.86,202.74,224.09,202.74L224.09,202.74z"/>
	</g>
</g>
<g>
	<g>
		<path class="st0" d="M338.4,199.38c6.56,2.15,9.79,8.77,13.75,13.9c3.68,4.78,8.27,8.66,14.16,10.38
			c10.28,3.01,22.82-2.9,23.98-14.38c1-9.91-9.65-23.07-20.36-19.65c-4.13,1.32-7.53,5.14-6.99,9.66c0.6,5.05,5.27,7.41,9.73,5.27
			c2.9-1.39,0.37-5.7-2.52-4.32c-2.78-0.43-3.16-1.9-1.12-4.43c1.2-1.09,2.59-1.67,4.18-1.73c2.23-0.08,4.42,1.11,6.08,2.46
			c3.24,2.63,6.17,7.07,6.11,11.35c-0.13,8.93-10.19,13.22-17.74,10.94c-12.93-3.9-15.19-20.12-27.9-24.28
			C336.66,193.55,335.35,198.38,338.4,199.38L338.4,199.38z"/>
	</g>
</g>
<g>
	<g>
		<path class="st0" d="M308.11,194.11c18.14,3.62,32.16-9.55,44.67-20.63c6.13-5.43,14.4-13.03,22.95-13.98
			c3.86-0.43,6.59,1.13,7.74,4.8c0.55,1.76,0.56,3.72,0.2,5.52c-0.41,2.02-1.35,3.98-2.75,5.5c-0.62,0.68-1.36,1.29-2.16,1.75
			c-0.42,0.29-0.88,0.49-1.39,0.61c-1.79,0.92-3.3,0.09-4.54-2.49c1.7-2.74-2.62-5.26-4.32-2.52c-2.28,3.67-0.66,8.22,3.32,9.86
			c4.16,1.71,9.18-0.23,12.22-3.25c6.4-6.34,7.07-19.93-2.16-24.21c-5.03-2.33-11.37,0.48-15.95,2.75
			c-5.72,2.84-10.75,6.92-15.54,11.1c-11.32,9.89-24.38,23.69-40.98,20.38C306.3,188.67,304.96,193.49,308.11,194.11L308.11,194.11z
			"/>
	</g>
</g>
<g>
	<g>
		<path class="st0" d="M346.75,188.77c1.63-1.56,3.38-2.93,5.34-4.04c1.01-0.57,2.06-1.15,3.23-1.25c0.75-0.2,1.47-0.1,2.18,0.3
			c0.86,2.6,0.36,3.57-1.51,2.91c-1.45-0.47-2.03,1.5-0.96,2.28c1.31,0.97,2.38,4.6-1.16,4.06c-1.03-0.16-2.12-1.24-2.85-1.93
			c-1.31-1.24-2.46-2.69-3.66-4.03c-1.07-1.2-2.84,0.57-1.77,1.77c2.51,2.81,6.33,8.31,10.86,6.5c3.76-1.5,2.42-6.62-0.15-8.53
			c-0.32,0.76-0.64,1.52-0.96,2.28c4.25,1.37,7.73-3.91,4.15-6.96c-4.54-3.87-11.27,1.77-14.5,4.86
			C343.82,188.12,345.59,189.88,346.75,188.77L346.75,188.77z"/>
	</g>
</g>
<g>
	<g>
		<path class="st0" d="M346.74,147.11c0.08-1.98-0.23-3.78-0.84-5.66c-0.13-0.39-0.27-0.77-0.37-1.16
			c-0.05-0.28-0.11-0.55-0.16-0.83c1.32-0.84,1.92-0.88,1.79-0.11c0.24,0.58-0.02,1.03,0.44,1.61c0.85,1.09,1.83,0.66,2.96,0.7
			c2.51,0.1,0.58,1.78-0.38,2.33c-1.19,0.68-2.52,1.02-3.85,1.24c-1.58,0.27-0.91,2.68,0.66,2.41c2.74-0.46,7.31-1.96,7.42-5.41
			c0.04-1.2-0.59-2.5-1.69-3.05c-0.56-0.28-1.21-0.33-1.82-0.21c-0.27,0.05-0.8,0.39-0.99,0.39c-0.24,0.29-0.33,0.28-0.25-0.02
			c0.03-0.26,0.02-0.51-0.04-0.77c-0.43-2.76-3.89-3.9-5.82-1.82c-1,1.08-1.05,2.52-0.75,3.89c0.5,2.25,1.29,4.07,1.2,6.45
			C344.17,148.72,346.67,148.71,346.74,147.11L346.74,147.11z"/>
	</g>
</g>
<g>
	<g>
		<path class="st0" d="M330.64,171.31c1.75-2.46-1.11-5.34-3.72-4.41c-1.43,0.51-2.41,1.84-2.84,3.25c-0.75,2.43-0.66,5.1-1.29,7.58
			c-0.15,0.59,0.19,1.44,0.87,1.54c4.16,0.59,8.33-0.98,10.85-4.41c1.01-1.37,2.1-3.33,0.52-4.69c-1.58-1.36-4.42-0.84-6.16-0.18
			c-1.49,0.56-0.85,2.98,0.66,2.41c0.62-0.23,3.41-1.22,3.59-0.01c0.12,0.78-1.74,2.27-2.29,2.7c-1.84,1.43-4.2,2.11-6.52,1.78
			c0.29,0.51,0.58,1.03,0.87,1.54c0.36-1.39,0.64-2.79,0.82-4.22c0.11-0.87,0.11-1.79,0.3-2.65c0.06-0.24,0.12-0.47,0.17-0.71
			c0.24-1.28,0.91-1.54,1.99-0.76C327.55,171.37,329.72,172.62,330.64,171.31L330.64,171.31z"/>
	</g>
</g>
<g>
	<g>
		<path class="st0" d="M329.65,203.78c0.35,3.52,2.21,8.59,6.32,9.09c1.36,0.17,2.98-0.37,3.29-1.88c0.34-1.69-1.39-2.33-1.76-3.74
			c-0.4,0.53-0.8,1.05-1.21,1.58c1.53-0.04,7.02,0.24,5.28-3c-0.64-1.18-2.11-1.47-3.29-1.73c-2.35-0.51-4.7-1.03-7.05-1.54
			c-1.57-0.34-2.24,2.07-0.66,2.41c2.23,0.49,4.45,0.97,6.68,1.46c0.46,0.1,1.02,0.32,1.48,0.32c0.18,0.07,0.36,0.14,0.54,0.21
			c0.04-0.24,0.07-0.47,0.11-0.71c-0.23-0.26-2.63,0.06-3.08,0.07c-0.82,0.02-1.41,0.78-1.21,1.58c0.15,0.59,0.4,1.05,0.77,1.53
			c0.07,0.09,0.69,0.67,0.67,0.79c-0.09,0.47-1.23-0.23-1.4-0.34c-1.89-1.29-2.76-3.95-2.97-6.12
			C332,202.19,329.5,202.18,329.65,203.78L329.65,203.78z"/>
	</g>
</g>
<g>
	<g>
		<path class="st0" d="M354.04,236.06c-0.5,2.55-0.55,6.32,2.72,6.98c2.42,0.49,4.46-2.16,3.52-4.4c-0.4,0.53-0.8,1.05-1.21,1.58
			c2.54,0.23,6.02-1.03,4.72-4.25c-1.55-3.84-5.79-1.6-8.68-2.04c-1.57-0.24-2.25,2.17-0.66,2.41c1.77,0.27,3.35-0.29,5.1-0.29
			c0.71,0,2.3,0.28,1.85,1.25c-0.33,0.71-1.67,0.48-2.32,0.42c-0.74-0.07-1.51,0.87-1.21,1.58c0.41,0.99-0.55,1.74-1.29,0.77
			c-0.7-0.92-0.34-2.33-0.14-3.35C356.76,235.15,354.35,234.48,354.04,236.06L354.04,236.06z"/>
	</g>
</g>
<g>
	<g>
		<path class="st0" d="M291.71,226.83c1.12,2.37,2.67,6.69,6.13,5.82c3.04-0.77,3.1-4.38,0.91-6.06c0,0.72,0,1.44,0,2.16
			c1.29-0.87,2.98-0.39,3.84-2.02c0.71-1.34-0.09-2.61-1.36-3.16c-2.86-1.24-6.86-0.96-9.22,1.12c-1.21,1.07,0.57,2.83,1.77,1.77
			c1.44-1.27,3.48-1.18,5.27-0.88c0.36,0.06,0.71,0.14,1.06,0.24c0.76,0.21-0.38,0.04-0.63,0.06c-0.71,0.06-1.39,0.31-1.98,0.71
			c-0.84,0.57-0.75,1.58,0,2.16c1.14,0.87-0.33,1.63-1.04,1.28c-0.44-0.22-0.82-0.92-1.06-1.33c-0.58-0.99-1.02-2.09-1.52-3.13
			C293.19,224.11,291.03,225.38,291.71,226.83L291.71,226.83z"/>
	</g>
</g>
<g>
	<g>
		<path class="st0" d="M278.05,174.42c0.15-1.88,0.71-5.08,2.26-6.4c1.07-0.91,1,0.22,1.13,1.09c0.09,0.61,0.27,1.09,0.76,1.48
			c0.48,0.38,0.95,0.31,1.49,0.45c0.49,0.12,1.76-0.67,1.25,1.05c-0.12,0.41-0.9,0.76-1.25,0.9c-2.07,0.83-4.86,0.69-7.05,0.94
			c-1.58,0.17-1.6,2.68,0,2.5c3.02-0.33,7.91,0.04,10.08-2.56c0.85-1.02,1.16-2.39,0.6-3.63c-0.7-1.51-1.76-1.51-3.17-1.73
			c-0.57-0.09,0.03,0.45-0.23,0.02c-0.14-0.23-0.05-0.72-0.11-1c-0.12-0.58-0.31-1.17-0.67-1.65c-0.75-1.01-1.98-1.35-3.14-0.87
			c-3.09,1.28-4.22,6.51-4.45,9.41C275.42,176.02,277.92,176.01,278.05,174.42L278.05,174.42z"/>
	</g>
</g>
<g>
	<g>
		<path class="st0" d="M305.1,150.81c-0.51-1.16-0.95-2.89-2.19-3.51c-1.02-0.51-2.23-0.19-3.01,0.6c-0.85,0.85-1,2.04-1.14,3.18
			c-0.22,1.87-0.27,3.74-0.2,5.63c0.03,0.89,0.77,1.33,1.58,1.21c1.96-0.29,3.85-0.94,5.55-1.96c1.39-0.84,3.25-2.11,3.9-3.65
			c0.59-1.4-0.4-2.7-1.76-3.08c-1.66-0.47-3.53,0.13-4.87,1.11c-1.29,0.94-0.04,3.11,1.26,2.16c0.3-0.22,2.86-1.52,2.94-0.86
			c0.04,0.3-2,1.69-2.27,1.86c-1.64,1.1-3.48,1.73-5.43,2.01c0.53,0.4,1.05,0.8,1.58,1.21c-0.06-1.66-0.04-3.31,0.13-4.97
			c0.03-0.33,0.01-2.05,0.68-2.02c0.21,0.01,0.95,2.11,1.06,2.35C303.59,153.54,305.75,152.27,305.1,150.81L305.1,150.81z"/>
	</g>
</g>
<g>
	<g>
		<path class="st0" d="M396.65,187.05c2.95,0.33,3.72-3.72,1.44-5.14c-3.43-2.15-5.79,2.16-8.86,2.59
			c-1.59,0.23-0.91,2.64,0.66,2.41c1.33-0.19,2.38-0.85,3.44-1.65c0.51-0.38,1.01-0.8,1.58-1.08c0.37-0.22,0.77-0.33,1.19-0.34
			c0.51-0.07,0.69,0.16,0.55,0.7C395.05,184.37,395.06,186.87,396.65,187.05L396.65,187.05z"/>
	</g>
</g>
<g>
	<g>
		<path class="st0" d="M396.29,187.8c2.18,0.44,1.6,3.27-0.59,2.82c-1.24-0.26-2.21-1.27-2.95-2.23c-1.18-1.53-2.14-3.01-3.69-4.2
			c-1.28-0.98-2.52,1.19-1.26,2.16c2.98,2.28,5.08,8.47,10.01,6.55c3.76-1.46,2.86-6.75-0.86-7.51
			C395.38,185.07,394.71,187.48,396.29,187.8L396.29,187.8z"/>
	</g>
</g>
<g>
	<g>
		<path class="st0" d="M289.4,198c1.18-0.52,2.37-1.04,3.55-1.56c0.52-0.23,1.27-0.78,1.82-0.75c0.16-0.04,0.32-0.09,0.49-0.13
			c0.62,0.93,0.49,1.29-0.37,1.09c-1.31-0.06-1.6,1.68-0.63,2.33c0.31,0.21,1.62,0.66,1.75,0.96c0.3,0.72-0.8,0.34-0.98,0.28
			c-0.4-0.14-0.8-0.53-1.14-0.77c-1.51-1.07-3.02-2.16-4.53-3.23c-1.31-0.94-2.56,1.23-1.26,2.16c1.73,1.24,3.43,2.58,5.22,3.72
			c1.2,0.77,2.64,1.31,4.02,0.66c1.12-0.53,1.81-1.66,1.54-2.9c-0.38-1.73-2.06-2.17-3.36-3.04c-0.21,0.78-0.42,1.55-0.63,2.33
			c2.82,0.12,5.56-3.39,2.73-5.51c-1.1-0.82-2.51-0.7-3.75-0.28c-1.95,0.66-3.84,1.64-5.72,2.47
			C286.67,196.48,287.94,198.64,289.4,198L289.4,198z"/>
	</g>
</g>
<g>
</g>
<g>
</g>
<g>
</g>
<g>
</g>
<g>
</g>
<g>
</g>
</svg>
