<?xml version="1.0" encoding="utf-8"?>
<!-- Generator: Adobe Illustrator 21.0.2, SVG Export Plug-In . SVG Version: 6.00 Build 0)  -->
<svg version="1.1" id="cat_5" xmlns="http://www.w3.org/2000/svg" xmlns:xlink="http://www.w3.org/1999/xlink" x="0px" y="0px"
	 viewBox="0 0 323.02 301.67" style="enable-background:new 0 0 323.02 301.67;" xml:space="preserve">
<title>cat and kitten with hearts</title>
<style type="text/css">
</style>
<g>
	<g>
		<path class="st0" d="M121.32,91.22c-2.14-4.4-3.44-8.91-4.12-13.74c-0.8,1.05-1.61,2.11-2.41,3.16c5.71-0.55,8.87,1.58,13.22,4.91
			c2.21,1.69,4.36,2.36,6.95,1.07c3.54-1.76,6.26-5.84,9.49-8.2c3.87-2.84,8.14-5.18,12.63-6.89c4.24-1.61,8.69-2.69,13.2-3.17
			c3.16-0.33,7.11,0.32,9.72-1.86c2.39-2,2.23-5.12,2.25-7.97c0.05-5.5,0.03-11.01,0.05-16.51c-1.42,0.59-2.85,1.18-4.27,1.77
			c12.32,13.86,23.77,29.75,26.97,48.43c2.89,16.87-1.6,36.31-16.67,46.12c-6.47,4.22-14.36,6.55-22.1,5.74
			c-8.45-0.88-15.19-5.89-20.71-12.07c-12.76-14.28-21.82-32.23-27.48-50.41c-0.95-3.06-5.78-1.76-4.82,1.33
			c5.13,16.47,12.9,32.03,23.29,45.83c8.42,11.18,18.9,20.88,33.76,20.45c12.91-0.37,25.23-7.49,32.39-18.16
			c8.43-12.56,9.79-28.83,6.54-43.31c-4.08-18.22-15.45-33.78-27.63-47.49c-1.47-1.66-4.26-0.31-4.27,1.77
			c-0.01,4.28-0.02,8.56-0.04,12.84c-0.01,2.36,0.88,6.79-1.8,8.2c-1,0.53-3.19,0.12-4.4,0.22c-7.06,0.59-13.9,2.49-20.29,5.54
			c-3.35,1.6-6.51,3.53-9.48,5.75c-2.49,1.87-4.82,5.18-7.46,6.62c-2.52,1.38-6.85-3.12-9.35-4.17c-3.12-1.32-6.34-1.7-9.69-1.38
			c-1.77,0.17-2.65,1.45-2.41,3.16c0.74,5.27,2.3,10.16,4.62,14.94C118.41,96.64,122.72,94.11,121.32,91.22L121.32,91.22z"/>
	</g>
</g>
<g>
	<g>
		<path class="st0" d="M103.71,159c3.52-2.91,7.38-5.28,11.51-7.2c-1.22-0.5-2.45-1-3.67-1.49c1.57,3.83,2.61,7.76,2.99,11.88
			c0.3,3.18,5.3,3.21,5,0c-0.43-4.58-1.43-8.95-3.17-13.21c-0.65-1.59-2.08-2.23-3.67-1.49c-4.54,2.11-8.67,4.79-12.52,7.98
			C97.7,157.52,101.25,161.04,103.71,159L103.71,159z"/>
	</g>
</g>
<g>
	<g>
		<path class="st0" d="M98.17,159.16c-2.68,13.51-9.04,31.58,3.8,41.87c10.7,8.57,27.54,11.95,39.29,3.59
			c6.12-4.35,9.49-11.38,12.66-17.97c2.24-4.66,7.28-13.89,3.06-18.78c-5.08-5.9-11.94,2.55-17.31,2.22
			c-8.6-0.54-14.7-8.45-23.59-8.9c-3.22-0.16-3.21,4.84,0,5c10.99,0.55,19.4,13.5,31.02,7.09c3-1.65,7.25-4.2,5.96,1.71
			c-0.69,3.19-2.06,6.21-3.46,9.14c-2.69,5.63-5.52,11.96-10.54,15.89c-9.99,7.8-25.8,4.52-34.75-3.5
			c-9.74-8.72-3.47-25.2-1.32-36.02C103.62,157.35,98.8,156,98.17,159.16L98.17,159.16z"/>
	</g>
</g>
<g>
	<g>
		<path class="st0" d="M151.64,93.36c-6.2-1.68-16.66,1.33-16.51,9.29c0.06,3.03,2.45,6.1,5.67,6c3.24-0.1,5.81-3.5,4.57-6.6
			c-1.18-2.95-6.02-1.66-4.82,1.33c-0.1-0.26-0.55-0.98-0.12-1.93c0.5-1.11,1.72-1.99,2.75-2.54c2.23-1.21,4.71-1.38,7.14-0.72
			C153.42,99.03,154.74,94.2,151.64,93.36L151.64,93.36z"/>
	</g>
</g>
<g>
	<g>
		<path class="st0" d="M186.36,80.46c-5.64-2.34-15.57-0.61-16.63,6.65c-0.42,2.89,1.26,6.12,4.31,6.66c3.06,0.54,5.94-1.91,5.82-5
			c-0.12-3.21-5.12-3.22-5,0c-0.04-1.07-0.24-1.41,0.6-2.32c0.73-0.81,1.85-1.32,2.86-1.65c2.28-0.75,4.54-0.41,6.71,0.49
			C188,86.52,189.29,81.68,186.36,80.46L186.36,80.46z"/>
	</g>
</g>
<g>
	<g>
		<path class="st0" d="M204.22,83.55c7.67-9.11,15.35-18.22,23.02-27.33c2.06-2.45-1.46-6-3.54-3.54
			c-7.67,9.11-15.35,18.22-23.02,27.33C198.63,82.46,202.15,86.02,204.22,83.55L204.22,83.55z"/>
	</g>
</g>
<g>
	<g>
		<path class="st0" d="M202.91,89.56c11.86-2.95,23.72-5.89,35.58-8.84c3.12-0.78,1.8-5.6-1.33-4.82
			c-11.86,2.95-23.72,5.89-35.58,8.84C198.46,85.52,199.78,90.34,202.91,89.56L202.91,89.56z"/>
	</g>
</g>
<g>
	<g>
		<path class="st0" d="M209.18,98.8c9.04,0,18.09,0,27.13,0c3.22,0,3.22-5,0-5c-9.04,0-18.09,0-27.13,0
			C205.97,93.8,205.96,98.8,209.18,98.8L209.18,98.8z"/>
	</g>
</g>
<g>
	<g>
		<path class="st0" d="M130.89,119.28c-15.77,0.57-31.01,4.16-45.4,10.61c-2.93,1.31-0.39,5.62,2.52,4.32
			c13.56-6.08,28.03-9.4,42.88-9.93C134.1,124.16,134.11,119.16,130.89,119.28L130.89,119.28z"/>
	</g>
</g>
<g>
	<g>
		<path class="st0" d="M130.67,123.22c-4.06,4.46-8.11,8.93-12.17,13.39c-2.16,2.38,1.37,5.92,3.54,3.54
			c4.06-4.46,8.11-8.93,12.17-13.39C136.37,124.38,132.84,120.83,130.67,123.22L130.67,123.22z"/>
	</g>
</g>
<g>
	<g>
		<path class="st0" d="M137.32,129.95c-2.31,5.18-4.61,10.35-6.92,15.53c-1.3,2.91,3.01,5.46,4.32,2.52
			c2.31-5.18,4.61-10.35,6.92-15.53C142.93,129.56,138.63,127.02,137.32,129.95L137.32,129.95z"/>
	</g>
</g>
<g>
	<g>
		<path class="st0" d="M145.62,197.25c3.88,0,7.75,0,11.63,0c3.22,0,3.22-5,0-5c-3.88,0-7.75,0-11.63,0
			C142.4,192.25,142.4,197.25,145.62,197.25L145.62,197.25z"/>
	</g>
</g>
<g>
	<g>
		<path class="st0" d="M144.15,198.46c1.35,3.39,3.24,6.4,5.81,9.01c2.26,2.3,5.8-1.24,3.54-3.54c-1.93-1.96-3.5-4.24-4.52-6.81
			c-0.5-1.25-1.67-2.13-3.08-1.75C144.7,195.71,143.65,197.19,144.15,198.46L144.15,198.46z"/>
	</g>
</g>
<g>
	<g>
		<path class="st0" d="M95.33,172.11c-3.3,0.51-6.52-0.05-9.58-1.32c-2.97-1.23-4.26,3.6-1.33,4.82c3.94,1.63,8.05,1.96,12.24,1.32
			C99.83,176.45,98.48,171.63,95.33,172.11L95.33,172.11z"/>
	</g>
</g>
<g>
	<g>
		<path class="st0" d="M94.45,176.77c-3.93-0.42-7.86,0.13-11.52,1.61c-2.94,1.19-1.66,6.03,1.33,4.82
			c3.32-1.34,6.63-1.81,10.19-1.43C97.65,182.11,97.62,177.11,94.45,176.77L94.45,176.77z"/>
	</g>
</g>
<g>
	<g>
		<path class="st0" d="M108.35,179.47c2.07-0.64,4.39-0.02,5.64,1.82c1.8,2.65,6.13,0.15,4.32-2.52c-2.49-3.66-6.99-5.44-11.29-4.12
			C103.95,175.6,105.26,180.42,108.35,179.47L108.35,179.47z"/>
	</g>
</g>
<g>
	<g>
		<path class="st0" d="M129.94,187.07c1.7-0.75,3.62,0.38,4.39,1.89c1.46,2.87,5.77,0.34,4.32-2.52c-2.11-4.14-7.14-5.49-11.23-3.68
			c-1.24,0.54-1.52,2.35-0.9,3.42C127.27,187.45,128.7,187.62,129.94,187.07L129.94,187.07z"/>
	</g>
</g>
<g>
	<g>
		<path class="st0" d="M115.17,190.32c0.26,0.26,0.52,0.52,0.78,0.78c0.93,0.93,2.62,0.99,3.54,0c0.92-1,0.99-2.55,0-3.54
			c-0.26-0.26-0.52-0.52-0.78-0.78c-0.93-0.93-2.62-0.99-3.54,0C114.25,187.78,114.18,189.33,115.17,190.32L115.17,190.32z"/>
	</g>
</g>
<g>
	<g>
		<path class="st0" d="M120.67,189.35c-0.78-0.25-1.55-0.5-2.33-0.76c-1.24-0.4-2.78,0.47-3.08,1.75c-0.31,1.37,0.41,2.64,1.75,3.08
			c0.78,0.25,1.55,0.5,2.33,0.76c1.24,0.4,2.78-0.47,3.08-1.75C122.72,191.06,122,189.79,120.67,189.35L120.67,189.35z"/>
	</g>
</g>
<g>
	<g>
		<path class="st0" d="M116.24,191.41c-3.25,3.36-1.58,8.94,2.75,10.41c5.35,1.81,9.71-2.28,12.72-6.15
			c1.95-2.51-1.56-6.07-3.54-3.54c-1.41,1.81-2.95,4.03-5.19,4.83c-0.84,0.3-2.14,0.52-2.9-0.11c-0.55-0.46-0.83-1.37-0.31-1.92
			C122.01,192.63,118.48,189.09,116.24,191.41L116.24,191.41z"/>
	</g>
</g>
<g>
	<g>
		<path class="st0" d="M115.41,190.58c-2.25,0.78-4.96-0.2-5.77-2.57c-1.03-3.03-5.86-1.73-4.82,1.33
			c1.63,4.82,6.99,7.78,11.92,6.06C119.76,194.35,118.46,189.52,115.41,190.58L115.41,190.58z"/>
	</g>
</g>
<g>
	<g>
		<path class="st0" d="M175.39,149.81c-0.97,36.56-1.94,73.13-2.91,109.69c-0.11,4.28-0.24,8.56-0.34,12.85
			c-0.06,2.74-0.31,5.88,1.08,8.37c2.59,4.62,8.06,3.66,11.67,0.93c10.12-7.63,8.82-25.67,9.28-36.79
			c0.76-18.58,0.84-37.76,9.01-54.9c-1.55-0.42-3.11-0.84-4.66-1.26c1.2,20.48,3.12,40.91,5.82,61.25c1.1,8.34,1.64,17.23,4.1,25.31
			c1.72,5.64,4.8,10.56,10.67,12.36c1.18,0.36,2.88-0.43,3.08-1.75c4.69-30.96,7.49-62.15,8.35-93.45c0.09-3.22-4.91-3.22-5,0
			c-0.84,30.85-3.55,61.61-8.17,92.12c1.03-0.58,2.05-1.16,3.08-1.75c-6.25-1.92-7.61-9.52-8.55-15.14
			c-1.52-9.09-2.68-18.25-3.78-27.4c-2.07-17.14-3.58-34.33-4.59-51.56c-0.13-2.27-3.51-3.67-4.66-1.26
			c-7.43,15.58-8.71,32.61-9.39,49.6c-0.34,8.64-0.5,17.34-1.54,25.94c-0.48,3.98-1.21,8.38-3.46,11.8c-1.22,1.85-4.52,6-7.14,2.83
			c-0.89-1.08-0.22-4.98-0.18-6.26c1.07-40.52,2.15-81.03,3.22-121.55C180.48,146.59,175.48,146.59,175.39,149.81L175.39,149.81z"/>
	</g>
</g>
<g>
	<g>
		<path class="st0" d="M206.97,127.51c28.84-2.53,45.93,25.58,51.18,50.13c3.08,14.38,3.92,29.2,5.27,43.81
			c1.44,15.69,2.89,31.38,4.33,47.08c0.29,3.18,5.3,3.21,5,0c-1.62-17.65-3.25-35.31-4.87-52.96c-1.42-15.42-2.41-31.11-6.57-46.09
			c-6.77-24.35-26.4-49.42-54.33-46.96C203.79,122.79,203.76,127.79,206.97,127.51L206.97,127.51z"/>
	</g>
</g>
<g>
	<g>
		<path class="st0" d="M256.52,238.38c-10.07,2.56-9.29,16.28-8.52,24.25c0.12,1.27,0.54,3.23,0.56,4.5c0.14,0.6,0.28,1.2,0.42,1.8
			c-1.66,0.3-3.32,0.35-4.99,0.16c-2.7-0.09-5.24-0.56-7.93-0.07c-4.55,0.83-7.65,3.74-8.42,8.33c-0.57,3.41-0.68,8.36,2.74,10.32
			c4.12,2.36,10.83,2.34,15.41,2.01c10.52-0.75,20.33-5.28,27.71-12.79c2.26-2.3-1.27-5.83-3.54-3.54
			c-6.1,6.2-14.05,10.2-22.72,11.2c-3.76,0.43-8.84,0.75-12.41-0.7c-2.37-0.96-2.55-1.82-2.39-4.42c0.24-3.94,2.68-5.56,6.35-5.7
			c5.13-0.2,15.31,2.82,14.99-5.36c-0.23-5.85-4.83-22.91,4.06-25.17C260.97,242.41,259.65,237.59,256.52,238.38L256.52,238.38z"/>
	</g>
</g>
<g>
	<g>
		<path class="st0" d="M276.58,272.97c15.02-16.59,24.21-37.12,30.72-58.33c7.1-23.14,12.72-47.43,10.85-71.77
			c-0.97-12.61-3.46-25.06-6.03-37.42c-2.42-11.63-5.13-23.26-9.75-34.24c-8.21-19.49-22.84-35.38-40.5-46.8
			c-19.1-12.36-41.84-19.65-64.59-20.51c-8.89-0.34-22.48-0.13-29.32,6.65c-5.68,5.63-1.45,13.46,5.9,14.22
			c5.34,0.55,10.24-2.75,15.34-3.77c6.67-1.33,13.58-0.25,20.05,1.53c11.76,3.24,23.42,8.32,34.18,14.04
			C264.61,47.87,281,65.5,288.2,88.68c8.47,27.27,6.54,57.54,6.27,85.74c-0.08,7.76-0.16,15.54-1.94,23.14
			c-1.64,7.01-4.34,13.71-6.86,20.43c-5.38,14.35-10.77,28.69-16.15,43.04c-1.13,3.02,3.7,4.32,4.82,1.33
			c4.45-11.85,8.9-23.7,13.34-35.55c4.21-11.22,9.23-22.47,10.86-34.43c1.6-11.77,1.03-23.94,1.05-35.79
			c0.02-12.16-0.06-24.35-0.94-36.49c-1.53-21.13-6.23-42.07-18.96-59.43c-12.26-16.71-29.6-27.35-48.42-35.34
			c-9.7-4.11-19.75-8.32-30.29-9.56c-4.95-0.59-10.01-0.46-14.85,0.8c-2.54,0.67-4.91,1.82-7.43,2.54
			c-1.77,0.51-3.62,1.04-5.46,0.46c-3.57-1.12-2.95-4.96-0.03-6.72c9.36-5.66,23.29-4.46,33.66-3.18
			c11.31,1.39,22.46,4.39,32.98,8.77c19.58,8.17,37.61,21.44,49.56,39.14c12.89,19.1,17.03,42.74,21.03,65.02
			c2.45,13.64,3.86,27.39,2.69,41.24c-1.14,13.47-4.28,26.73-7.83,39.75c-6.46,23.75-15.49,47.34-32.23,65.83
			C270.89,271.81,274.41,275.36,276.58,272.97L276.58,272.97z"/>
	</g>
</g>
<g>
	<g>
		<path class="st0" d="M126.73,210.31c3.07,19.38,4.75,38.96,4.94,58.58c0.02,1.77,0.7,5.23,0.01,6.83
			c-2.11,4.88-4.92,1.28-6.26-1.27c-1.78-3.38-2.37-7.48-3.28-11.13c-2.32-9.25-4.64-18.5-6.96-27.74c-0.58-2.31-4.34-2.46-4.82,0
			c-1.58,8.06-2.39,16.23-2.14,24.45c0.12,3.9,0.47,7.8,1.02,11.66c0.3,2.09,0.74,4.16,1.06,6.24c0.24,1.1,0.37,2.22,0.38,3.35
			c-1.87,3.34-3.35,3.73-4.47,1.16c-2.39-2.39-3.59-9.06-4.58-12.16c-1.31-4.1-2.47-8.25-3.45-12.45
			c-2.07-8.78-3.36-17.69-3.98-26.69c-0.22-3.19-5.22-3.22-5,0c0.78,11.28,2.56,22.46,5.52,33.38c1.6,5.91,3.44,11.85,5.82,17.51
			c1.23,2.93,2.84,6.1,6.06,7.2c2.85,0.98,5.81-0.34,7.5-2.73c2.45-3.47,1.41-7.77,0.71-11.62c-2.29-12.59-2.09-25.44,0.38-37.99
			c-1.61,0-3.21,0-4.82,0c3.02,12.05,5.27,24.67,9.26,36.43c1.85,5.47,9.66,14.97,15.58,7.76c2.69-3.27,1.52-9.36,1.47-13.18
			c-0.08-6.5-0.32-13.01-0.72-19.5c-0.81-13.21-2.32-26.36-4.39-39.44C131.05,205.81,126.23,207.15,126.73,210.31L126.73,210.31z"/>
	</g>
</g>
<g>
	<g>
		<path class="st0" d="M91.38,189.85c-9.03-0.72-14.53,9.49-18.21,16.26c-4.64,8.54-7.83,17.87-9.44,27.45
			c-3.2,19.06-0.4,38.64,8.36,55.88c1.46,2.87,5.77,0.34,4.32-2.52C68.89,272.1,66.08,255.29,68,238.8
			c0.96-8.21,3.13-16.37,6.44-23.95c2.74-6.28,8.71-20.66,16.94-20C94.59,195.1,94.57,190.1,91.38,189.85L91.38,189.85z"/>
	</g>
</g>
<g>
	<g>
		<path class="st0" d="M77.35,270.08c1.45-0.86,3.65,4.2,4.52,5.17c1.14,1.26,2.56,2.23,4.13,2.88c3.4,1.42,6.89,1.17,10.17-0.38
			c2.91-1.37,0.37-5.68-2.52-4.32c-2.1,0.99-4.56,0.88-6.57-0.31c-2-1.19-2.64-3.28-3.91-5.09c-1.97-2.79-5.27-4.08-8.34-2.27
			C72.06,267.4,74.57,271.72,77.35,270.08L77.35,270.08z"/>
	</g>
</g>
<g>
	<g>
		<path class="st0" d="M79.04,296.05c11.51,2.93,19.92-5.81,25.14-14.96c1.6-2.8-2.72-5.32-4.32-2.52
			c-4.02,7.04-10.29,15-19.5,12.66C77.25,290.44,75.92,295.26,79.04,296.05L79.04,296.05z"/>
	</g>
</g>
<g>
	<g>
		<path class="st0" d="M73.61,291.04c-10.4,0.47-18.48-6.45-25.2-13.61c-7.23-7.71-14.05-16.02-20.12-24.67
			c-12.46-17.73-22.02-39.33-18.8-61.47c2.64-18.18,15.85-36.65,35-39.56c5.94-0.9,12.59,0.06,16.77,4.75
			c3.8,4.27,4.47,11.22-0.88,14.53c-0.78,0.48-1.81,0.96-2.76,1.13c-0.56,0.04-1.13,0.09-1.69,0.13c-2.45-0.1-2.86-0.47-1.22-1.11
			c0.61-1.17,2.88-1.85,3.7-3.24c1.43-2.41,1.24-5.56,0.05-8.01c-3.69-7.62-14.57-7.03-21.48-5.21c-7.74,2.03-14.41,6.92-15.4,15.25
			c-0.38,3.19,4.62,3.16,5,0c1.44-12.03,29.31-14.63,27.46-5.58c-0.73,3.58-7,4.64-4.76,9.59c1.33,2.95,5.66,3.54,8.5,3.19
			c8.1-1,13.11-9.25,11.05-16.95c-2.56-9.56-12.35-14.2-21.64-13.75c-20.14,0.98-36.11,18.47-41.17,36.99
			c-6.22,22.79,1.79,46.79,14.07,66.06c7.14,11.19,15.7,21.78,24.78,31.45c7.63,8.13,17.01,15.61,28.73,15.08
			C76.81,295.9,76.83,290.9,73.61,291.04L73.61,291.04z"/>
	</g>
</g>
<g>
	<g>
		<path class="st0" d="M20.81,169.14c-4.24,11.42-8.58,23.55-7.31,35.93c1.19,11.61,7.44,22.67,13.07,32.68
			c11.27,20.05,25.95,38.15,43.94,52.54c2.49,1.99,6.05-1.53,3.54-3.54c-16.82-13.45-30.68-30.09-41.52-48.66
			c-5.61-9.61-12.09-20.46-13.8-31.57c-1.9-12.37,2.67-24.64,6.91-36.05C26.76,167.45,21.93,166.15,20.81,169.14L20.81,169.14z"/>
	</g>
</g>
<g>
	<g>
		<path class="st0" d="M54.94,173.88c5.28-0.02,10.11-3.81,10.19-9.35c0.09-6.24-5.62-10.73-10.79-13
			c-6.54-2.87-14.35-3.98-21.17-1.45c-6.99,2.6-12.77,8.58-17.92,13.72c-2.06,2.05,0.54,5.21,3.03,3.93
			c6.78-3.52,13.09-8.29,20.43-10.63c7.11-2.26,16.63-1.56,19.96,6.31c1.39-0.81,2.79-1.62,4.18-2.43
			c-8.01-7.88-19.77-11.05-30.48-7.12c-11.66,4.28-16.74,14.29-20.38,25.42c1.61,0.44,3.21,0.89,4.82,1.33
			c1.42-8.06,8.43-12.6,14.92-16.61c-1.01-1.31-2.02-2.62-3.03-3.93c-6.22,5.31-11.17,11.68-14.78,19.01
			c-1.42,2.88,2.89,5.41,4.32,2.52c3.45-6.99,8.08-12.94,14-18c2.17-1.85-0.64-5.4-3.03-3.93c-7.55,4.66-15.58,10.26-17.22,19.59
			c-0.55,3.14,3.81,4.43,4.82,1.33c3.07-9.38,7.06-18.16,16.88-21.93c9.01-3.46,18.86-0.82,25.62,5.83c1.63,1.61,5.2-0.01,4.18-2.43
			c-3.2-7.59-10.68-11.61-18.84-11.17c-10.82,0.58-19.64,7.71-28.89,12.5c1.01,1.31,2.02,2.62,3.03,3.93
			c6.35-6.34,13.4-13.83,23.06-13.67c4.19,0.07,8.91,1.31,12.55,3.44c1.98,1.16,4.16,2.75,5.16,4.91c1.67,3.63-0.89,6.84-4.6,6.86
			C51.73,168.89,51.72,173.89,54.94,173.88L54.94,173.88z"/>
	</g>
</g>
<g>
	<g>
		<path class="st0" d="M11.14,177.76c-1.54,15.3-2.12,30.64-1.74,46.01c0.07,2.7,4.4,3.55,4.91,0.66
			c2.54-14.22-5.77-32.44,3.96-44.83c-1.42-0.59-2.85-1.18-4.27-1.77c-1.17,13.71-1.41,27.47-0.56,41.2
			c0.34,5.46-0.11,12.54,2.25,17.61c1.95,4.17,6.45,5.81,10.03,8.26c5.05,3.45,9.54,7.85,13.08,12.84c0.76,1.07,1.47,2.17,2.15,3.3
			c0.76,1.26,1.73,2.97,0.09,0.97c-1.78-2.17-3.06-5.01-4.24-7.54c-4.83-10.28-7.33-21.49-13.95-30.89c-1.23-1.75-3.9-1.55-4.57,0.6
			c-2.12,6.77,1.67,13.28,4.35,19.35c3.42,7.73,7.05,15.37,10.85,22.92c1.31-1.01,2.62-2.02,3.93-3.03
			c-9.2-11.07-15.68-23.89-19.26-37.82c-0.8-3.11-5.62-1.79-4.82,1.33c3.8,14.79,10.79,28.29,20.55,40.03
			c1.9,2.29,5.14-0.63,3.93-3.03c-2.96-5.87-5.81-11.8-8.54-17.78c-2.65-5.82-8.2-14.1-6.15-20.64c-1.52,0.2-3.05,0.4-4.57,0.6
			c7.68,10.9,9.76,24.39,16.5,35.77c1.93,3.26,5.21,8.35,9.77,6.23c4.94-2.3,1.67-7.76-0.37-10.92c-3.39-5.26-7.62-9.96-12.51-13.87
			c-2.22-1.78-4.58-3.36-7.01-4.83c-1.21-0.73-2.81-1.41-3.75-2.52c-1.88-2.22-1.79-5.4-2.05-8.11
			c-1.55-16.64-1.54-33.37-0.12-50.01c0.17-2.05-2.94-3.45-4.27-1.77c-11.07,14.09-2.4,31.13-5.25,47.03
			c1.64,0.22,3.27,0.44,4.91,0.66c-0.38-15.37,0.2-30.71,1.74-46.01C16.46,174.56,11.46,174.58,11.14,177.76L11.14,177.76z"/>
	</g>
</g>
<g>
	<g>
		<path class="st0" d="M31.23,257.15c9.85,15.64,22.3,29.19,36.97,40.42c1.08,0.83,2.79,0.15,3.42-0.9
			c4.6-7.67-8.95-11.54-13.31-14.84c-8.45-6.41-14.56-15.35-17.71-25.45c-1.39,0.81-2.79,1.62-4.18,2.43
			c12.31,12.93,25.79,24.59,40.32,34.96c0.42-1.55,0.84-3.11,1.26-4.66c-3.76-0.14-7.39,0.09-11.11,0.59
			c-2.29,0.31-2.21,3.54-0.6,4.57c3.22,2.05,6.43,2.56,10.15,2c-0.64-1.52-1.28-3.05-1.93-4.57c-10.35,5.27-21.04-12.19-25.38-19.17
			c-0.72,1.25-1.44,2.51-2.16,3.76c4.64,0.38,8.07,4.74,12.34,6.32c1.93,0.72,15.33,1.54,15.5,2.45c0.21-0.81,0.43-1.62,0.64-2.43
			c-1.76,2.11-9.37,1.81-11.94,1.89c-2.86,0.09-4.78,0.15-5.87-2.87c-0.54-1.49-0.85-3.06-1.34-4.57c-1.57-4.92-4.27-9.61-9.8-10.44
			c-2.12-0.32-3.93,1.61-2.82,3.67c6.75,12.63,19.44,20.67,33.68,21.67c3.21,0.23,3.2-4.77,0-5c-12.51-0.88-23.48-8.18-29.37-19.2
			c-0.94,1.22-1.88,2.45-2.82,3.67c8.87,1.34,4.76,14.23,11.97,17.45c3.69,1.65,9.05,0.57,12.9,0.08c2.73-0.35,7.17-0.29,8.94-2.82
			c4.03-5.79-6.98-6.8-10.04-7.05c-5.28-0.43-8.88-1.41-13.27-4.36c-2.8-1.88-5.31-3.19-8.7-3.47c-1.9-0.16-3.11,2.24-2.16,3.76
			c6.2,9.97,18.21,28.1,32.22,20.96c2.73-1.39,0.66-4.96-1.93-4.57c-2.5,0.37-4.28-0.21-6.3-1.5c-0.2,1.52-0.4,3.05-0.6,4.57
			c3.26-0.44,6.5-0.54,9.78-0.42c2.67,0.1,3.14-3.32,1.26-4.66c-14.18-10.12-27.3-21.55-39.31-34.17c-1.7-1.79-4.92,0.05-4.18,2.43
			c2.38,7.65,6.23,14.67,11.53,20.7c2.46,2.8,5.23,5.33,8.21,7.56c1.03,0.77,12.4,7.14,11.78,8.18c1.14-0.3,2.28-0.6,3.42-0.9
			c-13.96-10.69-25.81-23.76-35.18-38.63C33.84,251.91,29.51,254.42,31.23,257.15L31.23,257.15z"/>
	</g>
</g>
<g>
	<g>
		<path class="st0" d="M78.37,293.73c10.42,2.02,20.14-5.3,21.19-15.83c0.08-0.78-0.51-1.84-1.24-2.16c-4.72-2.05-8.9-0.7-13.8-1.21
			c-6.79-0.7-6.29-8.4-8.97-13.23c-0.97-1.74-4.23-1.58-4.57,0.6c-1.23,7.78-1.33,15.54,0.03,23.32c0.86,4.96,2.6,10.85,8.95,9.54
			c4.04-0.83,11.17-5.42,8.88-10.39c-2.21-4.81-13.28-3.9-17.42-3.82c-2.74,0.05-3.5,4.28-0.66,4.91c5.94,1.31,11.7,1.28,17.62-0.14
			c1.76-0.42,2.51-2.94,1.1-4.18c-3.65-3.22-7.31-6.44-10.96-9.66c-3.44-3.03-10.03-7.25-8.73-12.61c-1.52,0.2-3.05,0.4-4.57,0.6
			c5.04,7.95,19.62,15.49,15.66,26.45c1.52-0.2,3.05-0.4,4.57-0.6c-1.38-2.98-4.41-14.76-9.77-12.63
			c-3.91,1.55-1.95,7.61-0.45,10.26c5.14,9.11,20.09,7.54,20.08-3.99c0-1.33-1.14-2.53-2.5-2.5c-3.58,0.08-6.65,1.01-9.6,3.06
			c-2.62,1.82-0.13,6.16,2.52,4.32c2.28-1.58,4.3-2.31,7.07-2.38c-0.83-0.83-1.67-1.67-2.5-2.5c0.01,7.87-9.97,5.43-11.55-0.52
			c0.27-2.58-0.5-2.82-2.32-0.73c0.52,1.13,1.04,2.25,1.57,3.38c1.04,2.25,2.09,4.5,3.13,6.75c0.99,2.13,3.91,1.23,4.57-0.6
			c4.87-13.5-10.12-20.79-16.16-30.31c-1.11-1.75-4.04-1.57-4.57,0.6c-1.23,5.03,1.13,9.06,4.61,12.6
			c5.09,5.17,10.93,9.74,16.37,14.54c0.37-1.39,0.74-2.79,1.1-4.18c-5.1,1.22-9.84,1.27-14.96,0.14c-0.22,1.64-0.44,3.27-0.66,4.91
			c2.09-0.04,9.92-0.76,11.27,0.74c1.59,0,1.39,0.69-0.6,2.05c-0.44,0.27-0.87,0.53-1.31,0.8c-4.22,1.38-4.1-0.96-4.62-3.45
			c-1.53-7.39-1.54-15.03-0.37-22.47c-1.52,0.2-3.05,0.4-4.57,0.6c2.59,4.67,2.26,10.83,7.21,14c5.38,3.45,11.82-0.16,17.35,2.23
			c-0.41-0.72-0.83-1.44-1.24-2.16c-0.72,7.15-7.84,12.37-14.86,11.01C76.55,288.3,75.21,293.12,78.37,293.73L78.37,293.73z"/>
	</g>
</g>
<g>
	<g>
		<path class="st0" d="M78.95,291.83c0.52,0,1.03,0,1.55,0c1.31,0,2.56-1.15,2.5-2.5c-0.06-1.35-1.1-2.5-2.5-2.5
			c-0.52,0-1.03,0-1.55,0c-1.31,0-2.56,1.15-2.5,2.5C76.51,290.68,77.55,291.83,78.95,291.83L78.95,291.83z"/>
	</g>
</g>
<g>
	<g>
		<path class="st0" d="M81.01,265.25c-1.12-13.04-2.06-30.05,11.76-36.87c-1.14-1.14-2.28-2.28-3.42-3.42
			c-1.55,3.09-6.34,4.14-8.87,6.43c-2.48,2.24-4.37,5.09-5.74,8.12c-3.51,7.79-3.2,16.42-2.78,24.76c1.64-0.22,3.27-0.44,4.91-0.66
			c-3.41-13.57-2.52-27.41,2.43-40.48c1.14-3.01-3.69-4.31-4.82-1.33c-5.26,13.87-6.04,28.76-2.43,43.14
			c0.68,2.69,5.05,2.19,4.91-0.66c-0.42-8.33-0.97-17.36,3.42-24.83c1.95-3.32,4.47-5.37,7.78-7.15c2.37-1.27,4.27-2.33,5.51-4.81
			c1.14-2.28-1.15-4.54-3.42-3.42c-15.54,7.66-15.51,26.32-14.23,41.18C76.29,268.43,81.29,268.46,81.01,265.25L81.01,265.25z"/>
	</g>
</g>
<g>
	<g>
		<path class="st0" d="M69.97,262.27c-1.85-12.41,2.19-24.9,10.75-34.02c-1.31-1.01-2.62-2.02-3.93-3.03
			c-5.15,9.57-9.1,19.64-11.81,30.17c-0.74,2.86,2.97,4.17,4.57,1.93c6.07-8.54,11.94-20.32,21.97-24.68c-1.22-0.5-2.45-1-3.67-1.49
			c2.65,10.29,5.3,20.57,7.94,30.86c1.11,4.32,2,14.31,8.24,14.82c7.56,0.62,6.29-10.04,6.19-14.53c-0.22-9.56,0.05-19.27-0.86-28.8
			c-0.53-5.52-1.41-14.52-7.3-17.25c-6.6-3.06-9.8,5.12-10.97,10.04c-4.07,17.14,4.31,33.6,12.2,48.26
			c1.27,2.36,4.44,1.03,4.66-1.26c0.99-10.56,1.13-21.54-0.77-32.01c-1.27-7.02-4.32-13.56-11.27-16.29
			c-1.2-0.47-2.83,0.52-3.08,1.75c-2.58,12.88,2.2,24.86,7.3,36.49c0.92,2.09,3.99,1.27,4.57-0.6c1.76-5.66-0.43-11.17-1.82-16.69
			c-1.82-7.22-3.28-14.52-4.46-21.88c-1.39,0.81-2.79,1.62-4.18,2.43c1.31,1.1,2.61,2.19,3.92,3.29c2.45,2.06,6-1.46,3.54-3.54
			c-1.31-1.1-2.61-2.19-3.92-3.29c-1.99-1.67-4.58-0.06-4.18,2.43c0.98,6.08,2.14,12.11,3.54,18.1c1.28,5.43,4.45,12.28,2.74,17.8
			c1.52-0.2,3.05-0.4,4.57-0.6c-4.5-10.26-9.08-21.24-6.8-32.64c-1.03,0.58-2.05,1.16-3.08,1.75c6.99,2.74,7.9,12.18,8.48,18.59
			c0.75,8.29,0.65,16.6-0.12,24.89c1.55-0.42,3.11-0.84,4.66-1.26c-5.61-10.43-11.53-21.31-12.44-33.35
			c-0.2-2.61,0.48-20.9,6.2-16.5c1.74,1.34,2.13,5.61,2.5,7.64c0.58,3.26,0.73,6.57,0.84,9.87c0.2,6.21,0.29,12.42,0.43,18.62
			c0.07,2.99,0.17,5.99,0.2,8.99c0.01,0.66-0.01,4.3-1.29,4.23c-0.75-0.04-1.54-3.51-1.69-4.09c-3.39-12.49-6.46-25.08-9.68-37.61
			c-0.44-1.71-2.24-2.12-3.67-1.49c-10.84,4.71-17.23,17.28-23.77,26.48c1.52,0.64,3.05,1.28,4.57,1.93
			c2.6-10.12,6.36-19.78,11.3-28.98c1.31-2.43-1.92-5.17-3.93-3.03c-9.89,10.55-14.16,24.61-12.03,38.88
			C65.62,266.77,70.44,265.42,69.97,262.27L69.97,262.27z"/>
	</g>
</g>
<g>
	<g>
		<path class="st0" d="M122.34,274.91c3.06-1.15,6.11-2.31,9.17-3.46c2.98-1.13,1.69-5.96-1.33-4.82c-3.06,1.15-6.11,2.31-9.17,3.46
			C118.03,271.21,119.32,276.05,122.34,274.91L122.34,274.91z"/>
	</g>
</g>
<g>
	<g>
		<path class="st0" d="M86.96,204.86c2.42,6.82,7.11,11.85,11.22,17.66c5.29,7.49,7.06,15.94,2.82,24.42
			c1.55,0.42,3.11,0.84,4.66,1.26c-0.37-5.13-0.8-10.26-1.33-15.38c-0.42-4.1-0.11-9.6-1.67-13.44c-2.81-6.96-10.35-0.5-13.96,2.07
			c-5.97,4.24-11.74,9.11-15.32,15.62c-4.17,7.58-4.93,16.35-5.6,24.81c1.64-0.22,3.27-0.44,4.91-0.66
			c-2.38-8.23,2.92-19.57,5.95-27.26c2.83-7.17,6.34-17.64,14.72-19.72c-0.81-1.39-1.62-2.79-2.43-4.18
			c-4.48,4.61-8.33,9.64-11.6,15.17c-1.04,1.76,0.72,4.46,2.82,3.67c4.21-1.57,7.31-3.95,9.94-7.6c1.24-1.73-0.5-3.55-2.16-3.76
			c-11.4-1.48-18.28,8.39-22.49,17.5c1.44,0,2.88,0,4.32,0c-2.18-3.09,3.84-12.83,5.18-15.95c1.82-4.24,3.55-8.52,5.47-12.72
			c1.46-3.21,3.66-8.35,7.83-8.55c5.95-0.28,7.43,7.73,8.31,12.03c1.52-0.64,3.05-1.28,4.57-1.93c-2.88-5.26-5.24-10.7-7.09-16.4
			c-0.64-1.98-3.48-2.55-4.57-0.6c-6.63,11.89-13.59,23.59-20.88,35.09c1.52,0.64,3.05,1.28,4.57,1.93
			c1.59-9.79,10.96-15.71,15.11-24.34c0.89-1.85-0.23-3.51-2.16-3.76c-1.87-0.25-3.29-0.09-5.07,0.47
			c-3.06,0.96-1.75,5.79,1.33,4.82c1.23-0.53,2.47-0.63,3.74-0.29c-0.72-1.25-1.44-2.51-2.16-3.76
			c-4.37,9.1-13.92,15.12-15.61,25.54c-0.44,2.71,2.97,4.45,4.57,1.93c7.28-11.5,14.24-23.2,20.88-35.09
			c-1.52-0.2-3.05-0.4-4.57-0.6c1.99,6.12,4.51,11.95,7.6,17.59c1.42,2.59,5.12,0.76,4.57-1.93c-1.2-5.87-3.1-12.47-9.23-14.93
			c-5.16-2.07-9.88,0.53-12.97,4.73c-4.41,6-6.75,14.06-9.67,20.84c-2.1,4.9-7.8,13.11-4.06,18.4c0.97,1.38,3.46,1.86,4.32,0
			c3.49-7.56,8.48-16.28,18.17-15.02c-0.72-1.25-1.44-2.51-2.16-3.76c-1.84,2.55-4.03,4.21-6.95,5.3c0.94,1.22,1.88,2.45,2.82,3.67
			c3.06-5.17,6.63-9.85,10.82-14.16c1.76-1.81-0.01-4.78-2.43-4.18c-9.35,2.32-13.46,11.81-16.87,19.91
			c-2.3,5.49-4.3,11.1-5.93,16.82c-1.55,5.45-2.98,10.81-1.37,16.4c0.81,2.81,4.69,2.08,4.91-0.66c0.53-6.57,1.05-13.3,3.6-19.45
			c2.32-5.6,6.34-9.99,11-13.77c2.25-1.83,4.65-3.48,7.05-5.1c1.29-0.87,1.91-1.92,3.2-1.02c1.22,0.85,0.91,3.16,1.07,4.54
			c0.81,7.03,1.44,14.08,1.95,21.14c0.16,2.28,3.46,3.65,4.66,1.26c3.63-7.25,4.21-15.45,0.95-22.96
			c-3.65-8.4-11.4-14.27-14.48-22.97C90.71,200.52,85.88,201.81,86.96,204.86L86.96,204.86z"/>
	</g>
</g>
<g>
	<g>
		<path class="st0" d="M58.8,169.35c3.22,0,3.22-5,0-5C55.58,164.35,55.57,169.35,58.8,169.35L58.8,169.35z"/>
	</g>
</g>
<g>
	<g>
		<path class="st0" d="M85,209.39c0.39,1.76-0.28,3.38-1.59,4.56c-2.39,2.16,1.15,5.69,3.54,3.54c2.65-2.39,3.64-5.99,2.87-9.42
			C89.12,204.92,84.3,206.25,85,209.39L85,209.39z"/>
	</g>
</g>
<g>
	<g>
		<path class="st0" d="M6.54,196.41c0,4.45,0,8.9,0,13.35c0,3.22,5,3.22,5,0c0-4.45,0-8.9,0-13.35
			C11.54,193.19,6.54,193.18,6.54,196.41L6.54,196.41z"/>
	</g>
</g>
<g>
	<g>
		<path class="st0" d="M122.64,270.39c4.1,0.3,7.66-1.09,10.6-3.93c1.59-1.53,0.36-4.24-1.77-4.27c-2.67-0.04-5.34-0.08-8.01-0.12
			c0.42,1.55,0.84,3.11,1.26,4.66c2.35-1.11,4.74-2.02,7.22-2.79c2.48-0.77,2.25-3.96,0-4.82c-3.44-1.31-7.28,1.04-10.87,0.92
			c0.59,1.42,1.18,2.85,1.77,4.27c2.37-2.23,6.7-1.67,9.53-3.42c2.01-1.24,1.31-4.79-1.26-4.66c-3.69,0.19-7.38,0.38-11.07,0.58
			c0.22,1.64,0.44,3.27,0.66,4.91c3.9-1.49,7.8-2.97,11.7-4.46c2.43-0.93,2.37-5.12-0.66-4.91c-4.22,0.29-8.44,0.59-12.65,0.88
			c0.42,1.55,0.84,3.11,1.26,4.66c3.82-1.67,7.64-3.33,11.46-5c2.45-1.07,0.97-4.54-1.26-4.66c-3.99-0.21-7.9,0.04-11.85,0.65
			c0.44,1.61,0.89,3.21,1.33,4.82c3.63-0.88,7.09-2.08,10.52-3.54c2.95-1.25,0.41-5.56-2.52-4.32c-3.03,1.29-6.13,2.26-9.33,3.03
			c-3.19,0.77-1.77,5.31,1.33,4.82c3.51-0.55,6.98-0.67,10.52-0.48c-0.42-1.55-0.84-3.11-1.26-4.66c-3.82,1.67-7.64,3.33-11.46,5
			c-2.28,0.99-1.12,4.82,1.26,4.66c4.22-0.29,8.44-0.59,12.65-0.88c-0.22-1.64-0.44-3.27-0.66-4.91c-3.9,1.49-7.8,2.97-11.7,4.46
			c-2.45,0.93-2.36,5.07,0.66,4.91c3.69-0.19,7.38-0.38,11.07-0.58c-0.42-1.55-0.84-3.11-1.26-4.66c-3.39,2.09-7.45,1.28-10.54,4.2
			c-1.63,1.54-0.33,4.2,1.77,4.27c1.48,0.05,2.94,0,4.41-0.26c1.52-0.27,3.59-1.43,5.14-0.84c0-1.61,0-3.21,0-4.82
			c-2.9,0.9-5.67,2-8.41,3.29c-2.34,1.11-1.07,4.62,1.26,4.66c2.67,0.04,5.34,0.08,8.01,0.12c-0.59-1.42-1.18-2.85-1.77-4.27
			c-2.04,1.96-4.28,2.67-7.07,2.46C119.43,265.15,119.44,270.15,122.64,270.39L122.64,270.39z"/>
	</g>
</g>
<g>
	<g>
		<path class="st0" d="M122.12,252.38c-1.3-6.27-2.33-12.67-4.19-18.8c-0.8,1.05-1.61,2.11-2.41,3.16c1.94-0.11,3.86-0.32,5.75-0.79
			c0.95-0.24,4.36-2.1,5.25-1.78c-0.58-0.58-1.16-1.16-1.75-1.75c2.11,5.55,2.87,12.05,4.21,17.84c1.03-1.03,2.05-2.05,3.08-3.08
			c-1.59-0.67-3.14-1.15-4.87-1.32c-2.79-0.27-2.82,0.59-3-2.4c-0.18-2.98-0.37-6.18-2-8.75c-0.72,1.25-1.44,2.51-2.16,3.76
			c1.64-0.1,3.26-0.17,4.9-0.19c-0.8-0.61-1.61-1.22-2.41-1.84c0.67,4.53,1.03,9.06,1.14,13.64c0.08,3.21,5.08,3.22,5,0
			c-0.13-5.03-0.59-10-1.32-14.97c-0.16-1.06-1.41-1.85-2.41-1.84c-1.64,0.02-3.26,0.08-4.9,0.19c-1.8,0.11-3.23,2.07-2.16,3.76
			c2.23,3.51,0.02,8.81,2.48,12.09c0.65,0.87,1.58,1.33,2.65,1.51c2.76,0.46,4.97,0.02,7.74,1.18c1.88,0.79,3.46-1.43,3.08-3.08
			c-0.79-3.41-1.58-6.83-2.37-10.24c-0.54-2.34-0.64-6.17-2.09-8.19c-0.84-1.18-2.23-1.56-3.63-1.43c-1.22,0.11-2.53,1.05-3.66,1.45
			c-2.12,0.75-4.3,1.1-6.54,1.23c-1.57,0.09-2.91,1.53-2.41,3.16c1.86,6.13,2.89,12.53,4.19,18.8
			C117.95,256.86,122.77,255.52,122.12,252.38L122.12,252.38z"/>
	</g>
</g>
<g>
	<g>
		<path class="st0" d="M87.38,202.09c4.97,15.11,18.16,23.86,31.1,31.77c0.42-1.55,0.84-3.11,1.26-4.66
			c-5.67,0.08-11.54,0.92-14.19,6.57c-0.97,2.07,0.62,4.04,2.82,3.67c5.16-0.86,5.22-7.08,3.08-10.74c-2.96-5.07-9-7.06-13.59-10.22
			c-3.94-2.7-7.22-6.24-10.37-9.8c-1.17-1.32-2.67-2.26-2.07-4.22c0.06-0.18,4.84-4.49,4.62-4.51c0.72,0.06,5.05,9.12,5.91,10.39
			c2.19,3.23,4.63,6.31,7.39,9.08c4.99,5.03,11.02,9.07,17.75,11.37c6.52,2.23,9.81,1.37,9.39-6.06c-0.3-5.41,1.4-14.35-5.25-16.33
			c-3.61-1.07-7.29-1.43-10.85-2.81c-4.41-1.7-8.41-4.14-12.14-7.02c-1.35-1.04-3.23,0.13-3.67,1.49
			c-3.62,11.24,7.89,18.28,15.43,24.09c2.75,2.12,7.82,7.75,11.68,4.55c1.71-1.41,1.87-4.5,2.3-6.49c0.82-3.8,1.63-7.6,2.45-11.39
			c0.39-1.82-1.16-3.62-3.08-3.08c-4.88,1.38-9.39-0.48-14.05-1.83c-4.2-1.21-8.45-2.06-12.78-2.67c-2.51-0.35-4.08,2.14-2.43,4.18
			c3.07,3.8,6.28,7.48,9.71,10.97c2.53,2.57,5.81,6.93,9.4,8.01c7.07,2.12,7.77-9.2,7.54-13.64c-0.07-1.46-1.09-2.35-2.5-2.5
			c-5.47-0.6-10.94-1.2-16.41-1.8c-2.37-0.26-3,2.8-1.77,4.27c3.72,4.41,7.43,8.82,11.15,13.23c1.49,1.76,4.18,0.23,4.27-1.77
			c0.16-3.6,2.03-7.92-0.84-11.01c-2.21-2.38-5.36-2.05-7.59-0.08c-0.87,0.77-0.86,2.07-0.39,3.03c0.76,1.54,1.36,1.95,3,2.37
			c3.12,0.8,4.45-4.02,1.33-4.82c0-0.02-0.01-0.05-0.01-0.07c-0.13,1.01-0.26,2.02-0.39,3.03c0.32-0.28,0.23,4.32,0.2,4.54
			c-0.15,1.07-0.25,1.9-0.3,3.02c1.42-0.59,2.85-1.18,4.27-1.77c-3.72-4.41-7.43-8.82-11.15-13.23c-0.59,1.42-1.18,2.85-1.77,4.27
			c5.47,0.6,10.94,1.2,16.41,1.8c-0.83-0.83-1.67-1.67-2.5-2.5c0.07,1.44,0.52,6.74-0.82,7.53c-2.02,1.19-5.89-3.73-6.94-4.79
			c-3.67-3.68-7.1-7.57-10.36-11.61c-0.81,1.39-1.62,2.79-2.43,4.18c5.48,0.76,10.72,2.08,16.02,3.64
			c4.53,1.34,8.83,2.16,13.46,0.85c-1.03-1.03-2.05-2.05-3.08-3.08c-1.16,5.39-1.72,11.51-3.85,16.59c0.58-0.58,1.16-1.16,1.75-1.75
			c-1.6,0.64-5.08-3.04-6.22-3.91c-2.45-1.89-4.94-3.74-7.34-5.68c-4.12-3.33-8.41-7.58-6.55-13.35c-1.22,0.5-2.45,1-3.67,1.49
			c5.38,4.14,11.43,7.27,18,9.04c3.8,1.02,6.6,0.24,7.3,4.51c0.16,0.99,1.02,10.88,0.62,11.06c0.5-0.21-3.52-1.64-3.96-1.8
			c-1.79-0.66-3.5-1.48-5.17-2.41c-3.3-1.85-6.32-4.14-9.03-6.79c-5.47-5.34-9.1-11.67-12.74-18.29c-2.43-4.42-5.41-3.55-8.89-0.63
			c-3.57,2.99-8.19,5.93-5.05,10.9c3.16,5,8.48,9.88,13.2,13.37c2.32,1.72,4.85,3.04,7.33,4.52c0.96,0.57,9.97,7.55,5.72,8.26
			c0.94,1.22,1.88,2.45,2.82,3.67c1.86-3.94,6.07-4.04,9.88-4.09c2.5-0.04,3.38-3.36,1.26-4.66c-11.72-7.17-24.28-15.04-28.8-28.79
			C91.2,197.72,86.37,199.02,87.38,202.09L87.38,202.09z"/>
	</g>
</g>
<g>
	<g>
		<path class="st0" d="M95.92,272.68c-3.8,0.3-8.3,0.76-11.18-2.28c-2.61-2.75-3.13-6.91-3.61-10.5c-0.41-3.14-5.42-3.19-5,0
			c0.66,5.01,1.44,10.22,5.07,14.04c3.88,4.08,9.48,4.15,14.71,3.74C99.11,277.43,99.14,272.42,95.92,272.68L95.92,272.68z"/>
	</g>
</g>
<g>
	<g>
		<path class="st0" d="M117.39,166.45c-1.42,3.74,1.84,6.51,4.82,8.06c3.13,1.63,6.45,2.25,9.7,0.63c2.15-1.07,1.19-3.83-0.6-4.57
			c-3.48-1.44-6.83-3.18-10.06-5.11c-2.77-1.66-5.28,2.66-2.52,4.32c3.61,2.16,7.37,4,11.26,5.62c-0.2-1.52-0.4-3.05-0.6-4.57
			c-1.31,0.65-2.75,0.24-4.02-0.32c-0.84-0.37-3.6-1.54-3.15-2.72C123.35,164.77,118.52,163.47,117.39,166.45L117.39,166.45z"/>
	</g>
</g>
<g>
	<g>
		<path class="st0" d="M146.07,178.96c1.14,0.11,2.29-0.02,3.39-0.35c-0.51-0.29-1.03-0.58-1.54-0.87c0.16,0.48,0.03,0.81-0.39,1.14
			c-0.53,0.42-0.44,1.33,0,1.77c0.52,0.52,1.24,0.42,1.77,0c1.04-0.82,1.44-2.32,1.03-3.57c-0.21-0.63-0.87-1.08-1.54-0.87
			c-0.9,0.27-1.78,0.35-2.72,0.26c-0.67-0.06-1.25,0.62-1.25,1.25C144.82,178.44,145.4,178.9,146.07,178.96L146.07,178.96z"/>
	</g>
</g>
<g>
	<g>
		<path class="st0" d="M107,161.08c1.1-0.66,2.2-1.32,3.31-1.98c-0.61-0.25-1.22-0.5-1.84-0.75c0.15,0.84,0.3,1.68,0.45,2.52
			c0.12,0.67,0.93,1.04,1.54,0.87c0.7-0.19,0.99-0.87,0.87-1.54c-0.15-0.84-0.3-1.68-0.45-2.52c-0.14-0.8-1.2-1.13-1.84-0.75
			c-1.1,0.66-2.2,1.32-3.31,1.98C104.36,159.74,105.62,161.91,107,161.08L107,161.08z"/>
	</g>
</g>
<g>
	<g>
		<path class="st0" d="M127.08,87.16c-1.33,0.18-2.53,0.04-3.78-0.44c-0.98-0.38-1.68,0.7-1.54,1.54c0.4,2.4,1.24,4.66,2.45,6.77
			c0.8,1.39,2.97,0.14,2.16-1.26c-1.12-1.93-1.83-3.97-2.2-6.17c-0.51,0.51-1.03,1.03-1.54,1.54c1.44,0.55,2.92,0.73,4.45,0.53
			C128.65,89.45,128.67,86.95,127.08,87.16L127.08,87.16z"/>
	</g>
</g>
<g>
	<g>
		<path class="st0" d="M185.55,64.12c0.03-1.47,0.05-2.95,0.08-4.42c-0.63,0.36-1.25,0.72-1.88,1.08c1.49,1.12,2.85,2.46,3.99,3.94
			c0.41,0.54,1.07,0.81,1.71,0.45c0.53-0.3,0.86-1.18,0.45-1.71c-1.42-1.85-3.02-3.44-4.89-4.84c-0.79-0.6-1.87,0.22-1.88,1.08
			c-0.03,1.47-0.05,2.95-0.08,4.42C183.03,65.73,185.53,65.73,185.55,64.12L185.55,64.12z"/>
	</g>
</g>
<g>
	<g>
		<path class="st0" d="M140.04,83.83c6.94,1.52,14.36,2.46,21.09-0.39c4.83-2.04,10.07-6.59,10.77-12.14c0.71-5.6-5.68-5-9.52-4.43
			c-7.76,1.16-14.49,5.3-20.99,9.43c-1.69,1.08-1.62,4.12,0.6,4.57c5.6,1.14,10.94,0.44,16.22-1.69c4.12-1.66,9.53-3.79,10.65-8.55
			c0.47-2.02-1.2-3.34-3.08-3.08c-5.6,0.8-10.71,2.63-15.58,5.47c-2.78,1.62-0.26,5.94,2.52,4.32c4.54-2.65,9.2-4.23,14.39-4.97
			c-1.03-1.03-2.05-2.05-3.08-3.08c-0.73,3.11-7.35,5.24-9.84,6.03c-3.62,1.15-7.14,1.48-10.88,0.72c0.2,1.52,0.4,3.05,0.6,4.57
			c3.41-2.16,6.82-4.37,10.49-6.08c2.42-1.13,4.97-2.05,7.59-2.56c1.48-0.3,2.98-0.44,4.49-0.43c0.48-0.46,0.4-0.2-0.22,0.78
			c-0.07,3.83-7.12,6.78-10.03,7.44c-4.95,1.12-10,0.3-14.88-0.77C138.24,78.32,136.9,83.14,140.04,83.83L140.04,83.83z"/>
	</g>
</g>
<g>
	<g>
		<path class="st0" d="M179.36,9.77c-0.4-0.26-0.79-0.53-1.19-0.79c-2.54-1.68-4.7,1.87-3.03,3.93c0.69,0.85,1.29,1.78,1.8,2.76
			c0.45,0.86,0.61,1.95,1.09,2.75c0.25,1.14,0.7,0.49,1.36-1.94c-0.21,0.05-0.42,0.09-0.63,0.14c-0.5-0.09-1.01,0.19-1.5-0.1
			c-0.72-0.43-0.22-0.35,0.07-0.93c0.96-1.91-0.2-4.1-2.22-4.65c-1.9-0.51-3.84,0.6-4.88,2.15c-1.2,1.78-1.21,3.97-1.34,6.04
			c-0.12,1.88-0.11,3.82,1.96,4.61c2.16,0.83,3.76-0.96,4.86-2.54c1.52-2.17,2.97-4.4,4.45-6.59c1.8-2.67-2.53-5.18-4.32-2.52
			c-0.82,1.21-1.63,2.42-2.45,3.63c-0.39,0.57-1.65,3.2-2.25,3.34c0.64,0.08,1.28,0.17,1.93,0.25c-0.13-0.07-0.26-0.15-0.38-0.22
			c0.38,0.5,0.77,1,1.15,1.49c-0.22-0.61,0.07-1.82,0.11-2.45c0.03-0.46,0.04-0.93,0.13-1.38c0.01-0.22,0.07-0.43,0.18-0.63
			c0.3-0.47,0.01-0.62-0.86-0.44c-0.24-0.59-0.49-1.18-0.73-1.77c0,0.14,0,0.28,0,0.42c0.24-0.59,0.49-1.18,0.73-1.77
			c-1.6,2.03-2.14,4.32-0.58,6.6c1.55,2.27,4.4,2.74,6.94,2.32c6.63-1.1,1.25-9.23-1.1-12.11c-1.01,1.31-2.02,2.62-3.03,3.93
			c0.4,0.26,0.79,0.53,1.19,0.79C179.53,15.87,182.04,11.54,179.36,9.77L179.36,9.77z"/>
	</g>
</g>
<g>
	<g>
		<path class="st0" d="M191.03,8.96c0,1.88-0.23,3.91,0.05,5.77c0.31,2.1,2.28,3.05,4.22,2.38c4.22-1.47,4.29-6.24,3.78-9.9
			c-1.61,0.44-3.21,0.89-4.82,1.33c0.37,2.24,0.74,4.47,1.11,6.71c0.22,1.33,1.87,2.08,3.08,1.75c1.41-0.39,1.97-1.74,1.75-3.08
			c-0.37-2.24-0.74-4.47-1.11-6.71c-0.22-1.33-1.87-2.08-3.08-1.75c-1.44,0.4-1.93,1.73-1.75,3.08c0.14,1.03,0.61,3.68-0.91,3.93
			c0.44,0,0.89,0,1.33,0c-0.08-0.02-0.16-0.04-0.24-0.05c0.37,0.21,0.74,0.43,1.1,0.64c-0.05-0.06-0.11-0.12-0.16-0.18
			c0.21,0.37,0.43,0.74,0.64,1.1c0.11,0.39,0.01-0.81,0.01-0.87c0-0.43,0-0.86,0-1.29c0-0.95,0-1.9,0-2.85
			C196.03,5.74,191.03,5.74,191.03,8.96L191.03,8.96z"/>
	</g>
</g>
<g>
	<g>
		<path class="st0" d="M211.24,10.44c-0.06,2.54-0.12,5.07-0.18,7.61c-0.05,2,2.13,2.97,3.76,2.16c2.85-1.42,4.67-4.62,4.33-7.8
			c-0.33-3.13-5.01-3.29-5,0c0,1.91,0.01,3.83,0.01,5.74c0.01,3.22,5.01,3.22,5,0c0-1.91-0.01-3.83-0.01-5.74c-1.67,0-3.33,0-5,0
			c0.17,1.59-0.41,2.77-1.85,3.49c1.25,0.72,2.51,1.44,3.76,2.16c0.06-2.54,0.12-5.07,0.18-7.61
			C216.31,7.22,211.31,7.23,211.24,10.44L211.24,10.44z"/>
	</g>
</g>
<g>
	<g>
		<path class="st0" d="M230.63,26.06c1.39-3.32,2.65-6.68,3.78-10.09c-1.64-0.22-3.27-0.44-4.91-0.66
			c0.15,3.61,0.11,7.22-0.11,10.83c-0.16,2.59,3.41,3.24,4.66,1.26c1.78-2.82,3.02-5.9,3.69-9.17c0.64-3.14-4.18-4.48-4.82-1.33
			c-0.59,2.88-1.62,5.48-3.18,7.97c1.55,0.42,3.11,0.84,4.66,1.26c0.22-3.61,0.25-7.21,0.11-10.83c-0.11-2.85-4.02-3.36-4.91-0.66
			c-1.13,3.41-2.39,6.78-3.78,10.09C224.57,27.69,229.4,28.99,230.63,26.06L230.63,26.06z"/>
	</g>
</g>
<g>
	<g>
		<path class="st0" d="M244.07,32.81c2.64-2.64,4.97-5.54,7.01-8.67c-1.55-0.42-3.11-0.84-4.66-1.26c-0.05,2.41-0.52,4.74-1.52,6.95
			c-1.16,2.57,1.7,4.95,3.93,3.03c2.48-2.14,4.54-4.67,6.17-7.51c1.61-2.79-2.71-5.31-4.32-2.52c-1.44,2.5-3.21,4.62-5.39,6.5
			c1.31,1.01,2.62,2.02,3.93,3.03c1.38-3.04,2.13-6.13,2.21-9.47c0.06-2.59-3.35-3.26-4.66-1.26c-1.82,2.78-3.89,5.31-6.23,7.65
			C238.26,31.55,241.8,35.09,244.07,32.81L244.07,32.81z"/>
	</g>
</g>
<g>
	<g>
		<path class="st0" d="M256.47,41.94c1.84-0.25,3.07-1.46,4.36-2.69c1.61-1.53,3.2-3.07,4.8-4.6c-1.42-0.59-2.85-1.18-4.27-1.77
			c0.36,2.97-0.36,5.64-2.43,7.84c-1.98,2.1,0.5,5.22,3.03,3.93c3.45-1.76,6.21-4.53,7.94-8.01c1.43-2.87-2.88-5.41-4.32-2.52
			c-1.39,2.78-3.37,4.8-6.14,6.21c1.01,1.31,2.02,2.62,3.03,3.93c2.91-3.08,4.4-7.14,3.9-11.38c-0.25-2.08-2.58-3.39-4.27-1.77
			c-1.14,1.1-2.29,2.19-3.43,3.29c-1.02,0.98-2.08,2.52-3.53,2.72C251.96,37.56,253.32,42.38,256.47,41.94L256.47,41.94z"/>
	</g>
</g>
<g>
	<g>
		<path class="st0" d="M271.17,53.34c3.16-1.38,5.95-3.26,8.48-5.59c-1.42-0.59-2.85-1.18-4.27-1.77c-0.34,2.57-1.46,4.96-3.15,6.91
			c-1.61,1.87-0.09,4.78,2.43,4.18c4.21-1,7.63-3.5,10.02-7.09c1.79-2.69-2.54-5.19-4.32-2.52c-1.68,2.53-4.09,4.09-7.03,4.79
			c0.81,1.39,1.62,2.79,2.43,4.18c2.64-3.08,4.08-6.44,4.61-10.45c0.3-2.31-2.85-3.07-4.27-1.77c-2.23,2.05-4.7,3.6-7.47,4.81
			C265.71,50.31,268.25,54.62,271.17,53.34L271.17,53.34z"/>
	</g>
</g>
<g>
	<g>
		<path class="st0" d="M279.24,49.42c3.22,0,3.22-5,0-5C276.02,44.42,276.02,49.42,279.24,49.42L279.24,49.42z"/>
	</g>
</g>
<g>
	<g>
		<path class="st0" d="M282.79,71.15c1.99,0.05,3.76-0.57,5.5-1.48c1.68-0.88,3.35-2.31,5.29-2.53c-0.59-1.42-1.18-2.85-1.77-4.27
			c-2.58,2.16-5.16,4.31-7.75,6.47c-1.97,1.65,0.15,4.82,2.43,4.18c3.19-0.9,6.31-1.96,9.39-3.18c2.96-1.17,1.67-6.01-1.33-4.82
			c-3.08,1.22-6.2,2.28-9.39,3.18c0.81,1.39,1.62,2.79,2.43,4.18c2.58-2.16,5.16-4.31,7.75-6.47c1.58-1.32,0.36-4.52-1.77-4.27
			c-2.02,0.24-3.74,0.89-5.51,1.89c-1.68,0.95-3.28,2.17-5.29,2.12C279.57,66.07,279.58,71.07,282.79,71.15L282.79,71.15z"/>
	</g>
</g>
<g>
	<g>
		<path class="st0" d="M292.9,93.21c3.8,0.35,7.46,0.21,10.52-2.32c1.45-1.19,0.62-3.78-1.1-4.18c-2.76-0.64-5.48-0.63-8.24,0.03
			c-3.13,0.75-1.8,5.56,1.33,4.82c2.47-0.58,4.91-1.28,7.32-2.09c1.34-0.45,2.04-1.69,1.75-3.08c-0.47-2.24-2.71-2.59-4.62-2.24
			c-2.37,0.43-4.72,0.96-7.08,1.45c0.64,1.52,1.28,3.05,1.93,4.57c2.18-1.32,4.43-2.35,6.87-3.11c3.07-0.95,1.76-5.77-1.33-4.82
			c-2.83,0.87-5.53,2.07-8.06,3.61c-2.49,1.51-0.81,5.13,1.93,4.57c1.24-0.25,2.47-0.5,3.71-0.76c0.56-0.11,1.12-0.23,1.68-0.34
			c0.23-0.05,1.63-0.17,1.24-0.42c-0.38-0.5-0.77-1-1.15-1.49c0.02,0.11,0.05,0.22,0.07,0.32c0.58-1.03,1.16-2.05,1.75-3.08
			c-2.41,0.81-4.85,1.5-7.32,2.09c0.44,1.61,0.89,3.21,1.33,4.82c1.87-0.45,3.71-0.46,5.58-0.03c-0.37-1.39-0.74-2.79-1.1-4.18
			c-1.83,1.51-4.82,1.05-6.99,0.85C289.7,87.92,289.72,92.92,292.9,93.21L292.9,93.21z"/>
	</g>
</g>
<g>
	<g>
		<path class="st0" d="M298.35,114.17c3.25-0.94,6.5-1.88,9.75-2.82c-0.44-1.61-0.89-3.21-1.33-4.82c-3.81,1.15-7.2,3.13-10.06,5.91
			c-1.27,1.24-0.77,3.82,1.1,4.18c3.3,0.62,13.18,1.58,12.78-4.08c-0.11-1.62-1.51-2.85-3.16-2.41c-3.55,0.93-6.95,2.29-10.18,4.04
			c-2.83,1.53-0.31,5.85,2.52,4.32c2.86-1.55,5.83-2.71,8.98-3.54c-1.05-0.8-2.11-1.61-3.16-2.41c0.12-0.29,0.25-0.58,0.37-0.87
			c-0.36,0.09-0.73,0.17-1.1,0.23c-0.64,0.11-1.28,0.17-1.93,0.19c-1.28,0.05-2.54-0.05-3.79-0.29c0.37,1.39,0.74,2.79,1.1,4.18
			c2.25-2.18,4.85-3.72,7.85-4.62c3.07-0.92,1.78-5.72-1.33-4.82c-3.25,0.94-6.5,1.88-9.75,2.82
			C293.93,110.24,295.24,115.07,298.35,114.17L298.35,114.17z"/>
	</g>
</g>
<g>
	<g>
		<path class="st0" d="M298.22,134.63c4.33-0.1,8.66-0.21,12.98-0.31c-0.22-1.64-0.44-3.27-0.66-4.91c-3.94,1.2-7.88,2.4-11.82,3.59
			c-2.75,0.84-2.14,4.75,0.66,4.91c4.31,0.25,8.62,0.28,12.94,0.08c-0.22-1.64-0.44-3.27-0.66-4.91c-4.37,1.51-8.81,2.62-13.37,3.36
			c-2.36,0.38-2.41,4.49,0,4.82c3.61,0.5,7.26,1.2,10.9,1.49c2.73,0.22,4.97-0.36,6.59-2.64c1.87-2.63-2.47-5.13-4.32-2.52
			c-0.67,0.94-4.27-0.1-5.28-0.24c-2.19-0.3-4.38-0.6-6.56-0.9c0,1.61,0,3.21,0,4.82c4.56-0.74,9-1.85,13.37-3.36
			c2.53-0.87,2.3-5.05-0.66-4.91c-4.32,0.2-8.62,0.18-12.94-0.08c0.22,1.64,0.44,3.27,0.66,4.91c3.94-1.2,7.88-2.4,11.82-3.59
			c2.64-0.8,2.23-4.98-0.66-4.91c-4.33,0.1-8.66,0.21-12.98,0.31C295.01,129.7,295,134.7,298.22,134.63L298.22,134.63z"/>
	</g>
</g>
<g>
	<g>
		<path class="st0" d="M298.52,119.42c3.62,0.15,7.2-0.24,10.72-1.11c3.12-0.78,1.8-5.6-1.33-4.82c-3.1,0.77-6.19,1.06-9.39,0.93
			C295.3,114.29,295.31,119.29,298.52,119.42L298.52,119.42z"/>
	</g>
</g>
<g>
	<g>
		<path class="st0" d="M299.41,156.21c5.19-0.02,10.39-0.03,15.58-0.05c-0.22-1.64-0.44-3.27-0.66-4.91
			c-4.72,0.94-9.44,1.29-14.25,1.12c-2.75-0.1-3.49,4.51-0.66,4.91c4.66,0.67,8.97,2.09,13.07,4.41c0.42-1.55,0.84-3.11,1.26-4.66
			c-4.58-0.09-9.16-0.18-13.74-0.27c-3.22-0.06-3.22,4.94,0,5c4.58,0.09,9.16,0.18,13.74,0.27c2.48,0.05,3.41-3.45,1.26-4.66
			c-4.46-2.52-9.19-4.18-14.27-4.91c-0.22,1.64-0.44,3.27-0.66,4.91c5.25,0.19,10.43-0.26,15.58-1.29c2.8-0.56,2.11-4.92-0.66-4.91
			c-5.19,0.02-10.39,0.03-15.58,0.05C296.19,151.22,296.19,156.22,299.41,156.21L299.41,156.21z"/>
	</g>
</g>
<g>
	<g>
		<path class="st0" d="M298.24,177.97c4.33-0.51,8.48-0.15,12.64,1.14c0-1.61,0-3.21,0-4.82c-3.7,1.47-7.5,1.95-11.43,1.16
			c-0.44,1.61-0.89,3.21-1.33,4.82c4.02,0.62,7.87,1.72,11.55,3.46c0.2-1.52,0.4-3.05,0.6-4.57c-3.41,0.88-6.83,1.06-10.31,0.45
			c-3.12-0.55-4.51,4.15-1.33,4.82c3.8,0.81,7.6,1.62,11.4,2.42c3.14,0.67,4.48-4.15,1.33-4.82c-3.8-0.81-7.6-1.62-11.4-2.42
			c-0.44,1.61-0.89,3.21-1.33,4.82c4.39,0.78,8.65,0.66,12.97-0.45c1.96-0.51,2.59-3.63,0.6-4.57c-4.08-1.92-8.28-3.27-12.75-3.96
			c-3.11-0.48-4.53,4.18-1.33,4.82c4.78,0.95,9.54,0.65,14.08-1.16c2.22-0.88,2.51-4.04,0-4.82c-4.55-1.41-9.24-1.87-13.97-1.32
			C295.08,173.34,295.04,178.35,298.24,177.97L298.24,177.97z"/>
	</g>
</g>
<g>
	<g>
		<path class="st0" d="M296.07,198.27c2.83,1.53,5.56,3.24,8.11,5.21c0.59-1.42,1.18-2.85,1.77-4.27c-2.73-0.04-5.27-0.67-7.69-1.94
			c-2.46-1.29-5.11,1.87-3.03,3.93c2.36,2.33,4.79,4.59,7.29,6.78c0.59-1.42,1.18-2.85,1.77-4.27c-2.78,0.12-5.28-0.47-7.69-1.86
			c-2.79-1.62-5.31,2.7-2.52,4.32c3.14,1.82,6.58,2.7,10.21,2.54c2.02-0.09,3.49-2.76,1.77-4.27c-2.5-2.19-4.92-4.44-7.29-6.78
			c-1.01,1.31-2.02,2.62-3.03,3.93c3.21,1.68,6.59,2.57,10.22,2.62c1.98,0.03,3.54-2.89,1.77-4.27c-2.89-2.24-5.89-4.25-9.12-5.99
			C295.76,192.43,293.23,196.74,296.07,198.27L296.07,198.27z"/>
	</g>
</g>
<g>
	<g>
		<path class="st0" d="M289.95,217.99c2.66,1.94,5.32,3.88,7.98,5.82c0.2-1.52,0.4-3.05,0.6-4.57c-2.77,0.66-5.35,0.06-7.67-1.55
			c-2.27-1.58-4.34,1.39-3.42,3.42c1.86,4.12,5.69,7.11,10.13,7.96c3.14,0.6,4.49-4.22,1.33-4.82c-3.33-0.64-5.75-2.58-7.14-5.66
			c-1.14,1.14-2.28,2.28-3.42,3.42c3.4,2.36,7.52,3.02,11.52,2.06c2.28-0.55,2.22-3.39,0.6-4.57c-2.66-1.94-5.32-3.88-7.98-5.82
			C289.87,211.77,287.37,216.11,289.95,217.99L289.95,217.99z"/>
	</g>
</g>
<g>
	<g>
		<path class="st0" d="M282.02,235.17c2.76,2.36,7,4.87,8.6,8.21c0.5-1.22,1-2.45,1.49-3.67c-2.63,0.84-5.85-2.56-8.38-3.3
			c-1.93-0.57-4.17,1.87-2.82,3.67c2.03,2.71,4.2,5.28,6.57,7.7c2.26,2.3,5.79-1.24,3.54-3.54c-2.07-2.11-4.02-4.32-5.79-6.69
			c-0.94,1.22-1.88,2.45-2.82,3.67c3.95,1.16,6.5,4.75,11.04,3.3c1.63-0.52,2.2-2.18,1.49-3.67c-1.82-3.82-6.25-6.55-9.38-9.22
			C283.12,229.56,279.56,233.08,282.02,235.17L282.02,235.17z"/>
	</g>
</g>
<g>
	<g>
		<path class="st0" d="M297.63,228.27c3.22,0,3.22-5,0-5C294.41,223.27,294.41,228.27,297.63,228.27L297.63,228.27z"/>
	</g>
</g>
<g>
	<g>
		<path class="st0" d="M272.66,258.74c0.68,0.96,1.33,1.94,1.95,2.94c0.16,0.27,1.51,2.44,1.56,2.16c0.58-0.58,1.16-1.16,1.75-1.75
			c0.65-0.26-3.28-2.61-3.95-2.72c-1.45-0.25-3.32,0.65-3.16,2.41c0.28,3.18-0.03,6.17-0.99,9.22c-0.97,3.08,3.86,4.39,4.82,1.33
			c1.08-3.44,1.49-6.96,1.17-10.55c-1.05,0.8-2.11,1.61-3.16,2.41c2.46,0.43,5.14,5.38,7.91,1.83c2.2-2.83-2.03-7.62-3.57-9.8
			C275.14,253.61,270.81,256.1,272.66,258.74L272.66,258.74z"/>
	</g>
</g>
<g>
	<g>
		<path class="st0" d="M164.05,112.13c3.13-1.4,6.2-2.91,9.21-4.54c-1.22-0.5-2.45-1-3.67-1.49c0.27,0.95,0.38,1.79,0.36,2.78
			c-0.02,1.18-0.34,0.82-1.42,0.66c-1.91-0.27-3.78-0.79-5.61-1.4c-3.06-1.03-4.37,3.8-1.33,4.82c1.83,0.62,3.69,1.1,5.61,1.4
			c1.7,0.27,3.55,0.63,5.16-0.18c3.23-1.63,2.87-6.5,2.05-9.41c-0.45-1.59-2.25-2.26-3.67-1.49c-3.02,1.63-6.09,3.14-9.21,4.54
			C158.59,109.13,161.13,113.44,164.05,112.13L164.05,112.13z"/>
	</g>
</g>
<g>
	<g>
		<path class="st0" d="M167.64,111.68c0.53,2.38,0.99,4.77,1.26,7.19c0.22,2,1.1,5.61-0.83,7.1c-2.84,2.19-8.3,1.08-10.32-1.52
			c-1.97-2.54-5.48,1.02-3.54,3.54c3.61,4.66,11.45,5.13,16.38,2.3c6.4-3.67,3.14-14.25,1.87-19.94
			C171.76,107.21,166.94,108.54,167.64,111.68L167.64,111.68z"/>
	</g>
</g>
<g>
	<g>
		<path class="st0" d="M170.01,116.13c3.58,4.39,10.09,8.74,16.06,7.15c6.55-1.74,7.75-10.77,7.42-16.39c-0.19-3.2-5.19-3.22-5,0
			c0.22,3.69-0.01,11.54-5.15,11.68c-3.82,0.1-7.58-3.25-9.8-5.97C171.51,110.1,167.99,113.66,170.01,116.13L170.01,116.13z"/>
	</g>
</g>
<g>
	<g>
		<path class="st0" d="M176.04,274.23c2.17,0.01,4.35-0.01,6.52,0.03c1,0.02,1.34,0.52,1-0.65c-0.35-1.21-0.28-0.72-0.93-0.17
			c-0.41,0.34-0.84,0.63-1.3,0.9c-0.74,0.42-1.51,0.73-2.34,0.94c-0.38,0.1-0.85,0.1-1.21,0.24c-0.21,0.01-0.42,0.03-0.63,0.04
			c0.28,0.66,0.55,1.31,0.83,1.97c0.19,0.04,1.65-1.35,1.97-1.53c0.78-0.44,1.59-0.68,2.46-0.88c3.14-0.71,1.81-5.53-1.33-4.82
			c-3.05,0.69-7.76,2.98-8.04,6.57c-0.4,5.14,6.53,3.71,9.38,2.48c2.86-1.24,7.91-4.81,4.95-8.32c-0.98-1.17-2.51-1.63-3.99-1.74
			c-2.42-0.18-4.91-0.04-7.33-0.05C172.82,269.21,172.81,274.21,176.04,274.23L176.04,274.23z"/>
	</g>
</g>
<g>
	<g>
		<path class="st0" d="M210.87,274.66c1.49-0.01,2.97-0.02,4.46-0.03c1.38-0.01,3.08-0.32,4.37,0.22c-0.5-0.38-1-0.77-1.49-1.15
			c0.71,0.94,0.88,7.63-0.52,8.07c-1.17,0.37-0.99-6.84-0.88-7.7c-1.25,0.72-2.51,1.44-3.76,2.16c1.06,0.78,1.43,1.91,1.41,3.17
			c-0.05,3.22,4.95,3.22,5,0c0.05-3.16-1.38-5.65-3.89-7.49c-1.72-1.26-3.55,0.51-3.76,2.16c-0.45,3.55-0.43,8.58,2.31,11.33
			c2.73,2.74,6.6,1.29,8.27-1.78c0.97-1.78,1.18-3.97,1.22-5.96c0.04-1.83,0.19-4.35-0.72-6.01c-1.02-1.87-2.97-2.02-4.87-2.03
			c-2.38-0.02-4.75,0.03-7.13,0.05C207.66,269.68,207.65,274.68,210.87,274.66L210.87,274.66z"/>
	</g>
</g>
<g>
	<g>
		<path class="st0" d="M237.11,276.19c0.02,2.14-0.06,4.3,0.05,6.43c0.05,1.07,0.3,0.65-0.39,0.47c-0.81-0.21-1.38-0.73-1.81-1.42
			c-0.47-0.76-0.66-1.68-0.76-2.55c-0.01-0.22-0.03-0.45-0.04-0.67c0.13-0.98-0.1-0.92-0.69,0.15c-0.08-0.33,5.35-1.27,5.83-1.32
			c-0.8-0.61-1.61-1.22-2.41-1.84c0.81,2.7,0.95,5.37,0.33,8.12c1.39-0.37,2.79-0.74,4.18-1.1c-1.79-2-2.7-4.42-2.76-7.1
			c-0.03-1.8-2.13-3.24-3.76-2.16c-1.53,1.02-1.97,2.25-1.68,4.04c0.53,3.17,5.34,1.82,4.82-1.33c-0.03-0.16-0.05-0.32-0.08-0.48
			c-0.08,0.64-0.17,1.28-0.25,1.93c-0.1,0.06-0.19,0.11-0.29,0.17c-1.25-0.72-2.51-1.44-3.76-2.16c0.08,4.03,1.54,7.64,4.22,10.63
			c1.23,1.38,3.77,0.68,4.18-1.1c0.82-3.62,0.75-7.22-0.33-10.78c-0.29-0.96-1.32-1.95-2.41-1.84c-2.92,0.31-8.56,0.59-9.83,3.81
			c-1.13,2.87,0.17,7.17,2.12,9.41c2.02,2.31,5.87,3.64,8.66,1.84c1.72-1.11,1.89-2.84,1.9-4.71c0.01-2.14-0.03-4.29-0.05-6.43
			C242.09,272.98,237.09,272.97,237.11,276.19L237.11,276.19z"/>
	</g>
</g>
<g>
	<g>
		<path class="st0" d="M221.32,128.97c-2.03,10.96,1.14,21.76,8.21,30.32c6.24,7.56,17.24,16.36,27.65,14.44
			c1.55-0.29,2.33-2.4,1.49-3.67c-2.5-3.81-7.19-6.07-10.38-9.38c-3.59-3.73-6.64-7.93-9.45-12.28c-2.68-4.16-5.14-8.46-7.61-12.74
			c-1.36-2.36-3.11-7.74-6.62-7.31c-7.22,0.88-0.55,14.84,0.84,18.01c4.03,9.18,10.19,17.2,17.9,23.58c1.93,1.6,4.69,0.1,4.18-2.43
			c-1.13-5.67-5.75-8.45-9.44-12.43c-5.09-5.5-5.34-13.31-5.54-20.4c-1.25,0.72-2.51,1.44-3.76,2.16c4.75,2.63,8.08,9.49,11.19,13.8
			c3.62,5.01,7.21,10.03,10.8,15.05c1.87,2.63,5.68,0.41,4.32-2.52c-4.17-8.95-9.13-17.43-14.87-25.46
			c-1.86-2.59-6.19-0.1-4.32,2.52c5.75,8.03,10.7,16.51,14.87,25.46c1.44-0.84,2.88-1.68,4.32-2.52
			c-4.34-6.09-8.7-12.16-13.09-18.21c-3.07-4.24-5.98-9.82-10.7-12.43c-1.61-0.89-3.82,0.22-3.76,2.16
			c0.18,6.32,0.46,12.98,3.34,18.75c2.88,5.76,10.55,9.05,11.82,15.41c1.39-0.81,2.79-1.62,4.18-2.43
			c-6.21-5.14-11.36-11.26-15.12-18.41c-1.81-3.45-3.27-7.06-4.35-10.8c-0.2-0.69-1.07-4.92-2.84-3.05
			c-0.17,0.18,2.85,4.93,3.12,5.39c3.63,6.29,7.29,12.58,11.7,18.36c1.98,2.6,4.1,5.11,6.43,7.4c2.42,2.39,6.69,4.49,8.53,7.29
			c0.5-1.22,1-2.45,1.49-3.67c-8.29,1.53-18.37-7.58-23.08-13.55c-5.61-7.11-8.29-16.08-6.63-25.06
			C226.72,127.16,221.9,125.81,221.32,128.97L221.32,128.97z"/>
	</g>
</g>
<g>
	<g>
		<path class="st0" d="M250.3,167.51c-0.07-0.06-0.42-0.51-0.49-0.5c0.07,0,0.28,0.42,0.07,0.09c-0.08-0.12-0.16-0.25-0.23-0.37
			c-0.06-0.1-0.1-0.21-0.16-0.31c-0.15-0.28,0.13,0.42,0.05,0.11c-0.06-0.26-0.15-0.5-0.2-0.76c-0.25-1.29-1.86-2.14-3.08-1.75
			c-1.37,0.44-2.02,1.7-1.75,3.08c0.3,1.5,1.12,2.92,2.24,3.95c0.96,0.89,2.6,1.02,3.54,0C251.18,170.08,251.32,168.46,250.3,167.51
			L250.3,167.51z"/>
	</g>
</g>
<g>
	<g>
		<path class="st0" d="M178.46,75.27c-6.19-0.82-10.53,6.03-11.29,11.41c-0.87,6.19,2.44,12.44,8.4,14.68
			c7.46,2.8,10.49-2.89,12.35-9.2c1.69-5.76,3.82-14.53-3.93-16.16c-6.2-1.31-12.25,0.39-13.22,7.39
			c-0.74,5.35,1.31,12.92,6.7,15.27c7.26,3.17,7.85-5.53,7.74-10.43c-0.11-4.75-3.69-12.61-9.8-9.38
			c-5.16,2.73-4.62,11.37-0.46,14.64c7.4,5.82,9.52-8.24,3.08-7.49c3.16-0.36,3.2-5.37,0-5c-2.11,0.24-3.65,1.2-4.07,3.45
			c-0.18,0.97,0.81,5.52,2.33,5.24c1.38-0.25-1.08-8.5,3.26-5.07c1.17,0.93,0.65,5.09,0.57,6.42c-0.03,1.08-0.14,2.15-0.31,3.22
			c-1.23-0.64-2.14-1.58-2.75-2.82c-0.92-1.65-1.34-3.57-1.41-5.45c-0.11-2.95,0.91-5.02,3.97-5.48c2.16-0.33,4.42,0.05,4.86,2.38
			c0.52,2.73-1.31,10.96-3.33,13.02c-3.26,3.32-7.96-1.5-8.87-4.82c-1.03-3.77,1.11-11.5,6.17-10.83
			C181.64,80.69,181.61,75.68,178.46,75.27L178.46,75.27z"/>
	</g>
</g>
<g>
	<g>
		<path class="st0" d="M175.97,83.4c0,0.41,0,0.81,0,1.22c0,1.31,1.15,2.56,2.5,2.5c1.35-0.06,2.5-1.1,2.5-2.5c0-0.41,0-0.81,0-1.22
			c0-1.31-1.15-2.56-2.5-2.5C177.11,80.96,175.97,82,175.97,83.4L175.97,83.4z"/>
	</g>
</g>
<g>
	<g>
		<path class="st0" d="M176.02,91.1c0.02-2.92,2.82-5.3,5.72-4.08c1.25,0.53,2.66,0.37,3.42-0.9c0.62-1.04,0.35-2.9-0.9-3.42
			c-6.28-2.66-13.19,1.33-13.24,8.39C171,94.31,176,94.32,176.02,91.1L176.02,91.1z"/>
	</g>
</g>
<g>
	<g>
		<path class="st0" d="M175.85,90.78c1.12-2.12,2.65-3.94,4.65-5.28c2.65-1.79,0.15-6.12-2.52-4.32c-2.7,1.82-4.92,4.19-6.44,7.08
			C170.04,91.1,174.35,93.63,175.85,90.78L175.85,90.78z"/>
	</g>
</g>
<g>
	<g>
		<path class="st1" d="M175.63,89.33c0.64-2.06,3.28-2.65,4.94-1.51c2.67,1.81,5.17-2.52,2.52-4.32c-4.42-3.01-10.74-0.46-12.29,4.5
			C169.85,91.08,174.67,92.4,175.63,89.33L175.63,89.33z"/>
	</g>
</g>
<g>
	<g>
		<path class="st1" d="M172.73,89.47c0,0.14,0,0.27,0,0.41c0,1.31,1.15,2.56,2.5,2.5c1.35-0.06,2.5-1.1,2.5-2.5
			c0-0.14,0-0.27,0-0.41c0-1.31-1.15-2.56-2.5-2.5C173.87,87.03,172.73,88.07,172.73,89.47L172.73,89.47z"/>
	</g>
</g>
<g>
	<g>
		<path class="st0" d="M57.81,84.99c-3.1-2.25-8.07-4.17-11.68-1.95c-3.07,1.9-3.84,6.36-3.13,9.64
			c2.12,9.7,14.28,13.67,22.52,16.43c1.2,0.4,2.84-0.47,3.08-1.75c1.1-6.04,1.76-12.12,1.75-18.26c-0.01-4.03,0.38-9.73-3.1-12.62
			c-8.86-7.35-11.26,9.11-11.22,14.33c0.02,3.22,5.02,3.22,5,0c-0.02-2.4-0.49-7.32,1.23-9.09c2.84-2.91,3.07,4.62,3.1,6.46
			c0.08,6-0.49,11.96-1.56,17.87c1.03-0.58,2.05-1.16,3.08-1.75c-4.39-1.47-8.84-3.14-12.81-5.55c-2.14-1.3-4.32-2.84-5.47-5.16
			c-1.85-3.05-0.75-5.1,3.3-6.15c1.27,0.39,2.41,1.02,3.42,1.88C57.9,91.2,60.4,86.86,57.81,84.99L57.81,84.99z"/>
	</g>
</g>
<g>
	<g>
		<path class="st0" d="M89.31,96.06c-2.48-2.56-3.31-6.91-7.52-7.22c-3.71-0.27-6.11,3.17-6.35,6.53
			c-0.39,5.58,2.21,12.18,4.07,17.35c1.14,3.17,2.58,8.03,7.02,6.61c3.95-1.26,7.47-6.64,9.53-10.01c2.58-4.23,4.36-9.05,5-13.96
			c0.45-3.46-0.16-7.54-4.5-7.66c-4.79-0.13-9.15,4.37-11.24,8.17c-1.55,2.82,2.77,5.35,4.32,2.52c0.93-1.68,4.94-6.77,6.45-5.04
			c0.86,0.99-0.78,5.28-1.17,6.49c-1.17,3.69-4.24,11.03-7.95,12.96c-2.48,1.29-2.81-1.81-3.47-3.84c-0.8-2.45-1.51-4.93-2.1-7.43
			c-0.23-0.96-0.8-2.37-0.73-3.35c0.55-1.17,1.11-2.35,1.66-3.52c0.19,0.3,0.37,0.61,0.56,0.91c1.09,0.9,1.81,2.94,2.88,4.04
			C88.02,101.91,91.55,98.38,89.31,96.06L89.31,96.06z"/>
	</g>
</g>
<g>
</g>
<g>
</g>
<g>
</g>
<g>
</g>
<g>
</g>
<g>
</g>
</svg>
