<?xml version="1.0" encoding="utf-8"?>
<!-- Generator: Adobe Illustrator 21.0.2, SVG Export Plug-In . SVG Version: 6.00 Build 0)  -->
<svg version="1.1" id="cat_6" xmlns="http://www.w3.org/2000/svg" xmlns:xlink="http://www.w3.org/1999/xlink" x="0px" y="0px"
	 viewBox="0 0 356.8 293.38" style="enable-background:new 0 0 356.8 293.38;" xml:space="preserve">
<title>two cats in love</title>
<style type="text/css">
</style>
<g>
	<g>
		<path class="st0" d="M81.6,48.43c0.67-10.44,1.35-20.87,2.02-31.31c-1.42,0.59-2.85,1.18-4.27,1.77
			c7.07,6.99,13.21,14.68,18.44,23.13c1.07,1.73,3.2,1.48,4.32,0c10.02-13.29,28.97-14.84,41.24-3.74c1.18,1.07,3.08,0.94,3.93-0.51
			c5.51-9.45,9.84-19.43,13-29.9c-1.52,0.2-3.05,0.4-4.57,0.6c4.54,7.1,5.96,15.53,7.67,23.65c1.72,8.18,3.2,16.49,2.94,24.88
			c-0.45,14.81-7.15,29.6-21.95,34.72c-29.84,10.32-53.32-16.55-62.59-41.73c-1.1-2.99-5.94-1.7-4.82,1.33
			c8.35,22.71,24.99,44.92,50.86,47.26c10.98,0.99,22.53-2.01,30.74-9.59c9.49-8.76,12.94-22.21,12.78-34.74
			c-0.11-8.52-1.74-16.95-3.52-25.25c-1.72-7.99-3.32-16.06-7.78-23.04c-1.16-1.82-3.94-1.5-4.57,0.6
			c-3.03,10.07-7.2,19.63-12.49,28.71c1.31-0.17,2.62-0.34,3.93-0.51c-14.86-13.44-37.09-11.17-49.09,4.75c1.44,0,2.88,0,4.32,0
			c-5.45-8.8-11.86-16.86-19.22-24.14c-1.61-1.59-4.13-0.35-4.27,1.77C77.95,27.56,77.28,38,76.6,48.43
			C76.4,51.65,81.4,51.63,81.6,48.43L81.6,48.43z"/>
	</g>
</g>
<g>
	<g>
		<path class="st0" d="M80.35,27.22c3.81,12.3,10.1,23.41,18.67,33.02c1.62,1.82,5.03-0.09,4.18-2.43
			c-4.68-12.91-9.64-25.81-18.98-36.13c-1.58-1.74-4.09-0.23-4.27,1.77C79.32,30.76,78,38.36,78.24,45.7
			c0.22,6.69,3.48,12.29,7.14,17.71c4.2,6.23,8.71,12.27,13.51,18.05c4.08,4.92,8.45,8.92,14.73,10.65
			c11.92,3.29,26.89,3.33,37.49-3.72c11.26-7.49,12.05-18.77,11.92-31.21c-0.15-14.36,7.59-31.54-3.84-43.56
			c-1.43-1.51-3.49-0.53-4.18,1.1c-3.47,8.27-6.23,16.74-8.3,25.47c-0.65,2.76,3.05,4.36,4.57,1.93c3.91-6.24,6.96-12.85,9.24-19.85
			c-1.64-0.22-3.27-0.44-4.91-0.66c0.28,8.07,0.56,16.15,0.84,24.22c0.27,7.84,1.12,15.93,0.52,23.77
			c-0.59,7.79-3.52,15.48-11.66,17.94c-6.62,2-14,0.64-20.81,1.34c0.22,1.64,0.44,3.27,0.66,4.91c2.29-0.38,3.92,0.44,4.9,2.45
			c1.61,2.78,5.94,0.27,4.32-2.52c-2.3-3.97-6.09-5.53-10.55-4.75c-2.75,0.48-2.15,5.2,0.66,4.91c7.76-0.79,16.05,0.72,23.54-1.97
			c6.14-2.2,10.27-7.23,12.33-13.32c2.78-8.21,1.6-17.49,1.31-25.98c-0.36-10.33-0.72-20.67-1.07-31c-0.1-2.84-4.04-3.36-4.91-0.66
			c-2.14,6.61-5.05,12.77-8.73,18.65c1.52,0.64,3.05,1.28,4.57,1.93c2.07-8.73,4.83-17.2,8.3-25.47c-1.39,0.37-2.79,0.74-4.18,1.1
			c5.9,6.21,5.26,15.01,4.06,22.86c-1.06,6.95-1.73,13.56-1.62,20.6c0.12,7.67-0.38,15.06-6.17,20.73
			c-5.33,5.23-12.76,7.42-20.08,7.71c-6.81,0.27-15.27-0.08-21.35-3.51c-7.06-3.98-12.4-12.79-17-19.19
			c-4.2-5.84-9.64-12.4-10.25-19.84c-0.61-7.5,1.04-15.59,1.69-23.07c-1.42,0.59-2.85,1.18-4.27,1.77
			c8.74,9.66,13.32,21.86,17.7,33.93c1.39-0.81,2.79-1.62,4.18-2.43c-7.99-8.97-13.84-19.34-17.39-30.82
			C84.23,22.83,79.4,24.14,80.35,27.22L80.35,27.22z"/>
	</g>
</g>
<g>
	<g>
		<path class="st0" d="M162.83,38.59c0.82,13.86,1.47,28.66-6.77,40.61c1.52,0.64,3.05,1.28,4.57,1.93
			c2.89-15.79,1.78-31.77-3.48-46.95c-0.68-1.96-3.45-2.56-4.57-0.6c-3.53,6.2-2.23,14.29-6.23,20.11
			c-4.53,6.6-14.37,6.64-21.42,5.63c-15.36-2.2-28.52-11.67-39.07-22.57c-1.59-1.64-4.14-0.31-4.27,1.77
			c-0.73,11.55,6.14,21.09,14.88,27.92c8.67,6.77,18.34,13.1,29.78,12.03c8.7-0.81,19.39-4.73,21.03-14.49
			c1.68-9.98-6.02-17.81-14.09-22.17c-3.29-1.78-7.87-4.66-11.77-4c-4.55,0.77-6.05,6.38-7.42,10.06
			c-2.91,7.86-8.23,22.94,1.74,27.84c7.41,3.64,21.3,4.19,27.94-1.6c8.18-7.13-8.53-14.91-13.53-16.92
			c-3.64-1.46-11.54-4.89-15.32-2.04c-2.97,2.24-2.03,6.54,0.6,8.57c8.02,6.15,20.29,0.03,24.87-7.35c0.56-0.9,0.41-2.31-0.39-3.03
			c-6.2-5.59-16.75-11.18-23.78-3.46c-4.95,5.43-1.76,15.25,5.36,16.99c5.79,1.42,19.82-5.64,13.36-12.36
			c-8.17-8.51-21.23-13.64-32.53-15.96c0.2,1.52,0.4,3.05,0.6,4.57c14.6-10.53,33.92-9.13,46.66,3.69c1.18-1.18,2.36-2.36,3.54-3.54
			c-5.63-5.5-12.13-9.89-19.45-12.81c-7.45-2.97-13.76-3.25-19.49,2.83c-9.5,10.07-24.3,26.11-13.35,39.95
			c4.06,5.13,11.33,10.39,18.23,9.4c6.13-0.88,9.82-6.27,8.07-12.27c-2.04-6.99-8.2-12.67-14.38-16.08
			c-7.51-4.15-20.36-7.64-18.94-18.62c-1.25,0.72-2.51,1.44-3.76,2.16c5.68,3.76,9.88,8.76,12.75,14.92c0.5-1.22,1-2.45,1.49-3.67
			c-5.62,0.94-11.11-0.6-15.45-4.27c-1.81-1.53-4.9-0.12-4.18,2.43c2.88,10.18,6.16,21.17,13.99,28.75c4.3,4.16,9.68,6.34,15,8.85
			c5.92,2.79,10.38,7.51,16.09,10.55c11.12,5.9,20.25-1.75,25.42-11.58c2.53-4.8,3.9-10.13,3.4-15.57
			c-0.61-6.59-3.55-12.66-2.89-19.38c-1.64,0.22-3.27,0.44-4.91,0.66c0.55,1.71,1.1,3.42,1.65,5.14c0.7,2.19,4.31,2.56,4.82,0
			c0.92-4.61,0.4-8.66-1.63-12.88c-1.1-2.28-4.7-1.11-4.66,1.26c0.1,5.73,0.2,11.46,0.3,17.19c0.09,5.21,1.14,11.51-0.93,16.4
			c-4.92,11.61-20.36,9.24-29.89,6.52c-5.32-1.52-11.11-3-14.52-7.72c-2.62-3.62-3.7-8.22-4.44-12.55
			c-0.8-4.7-2.32-10.74,1.47-14.47c2.99-2.94,6.99-4.53,9.88-7.65c2.19-2.35-1.29-5.86-3.54-3.54c-2.32,2.39-4.63,4.78-6.95,7.18
			c-0.52,0.53-8.28,8.69-8.9,5.82c-0.5-2.36-4.36-2.41-4.82,0c-1.57,8.15,0.2,18.52,10.3,19.06c2.23,0.12,3.21-2.78,1.77-4.27
			c-4.46-4.58-8.91-9.15-13.37-13.73c-0.81,1.39-1.62,2.79-2.43,4.18c5.03,1.63,9.63,3.92,13.98,6.9c0.84-1.44,1.68-2.88,2.52-4.32
			c-1.99-0.97-3.77-2.04-5.48-3.45c-0.81,1.39-1.62,2.79-2.43,4.18c6.58,1.62,12.84,3.9,18.9,6.95c0.84-1.44,1.68-2.88,2.52-4.32
			c-4.79-2.27-9.69-3.95-14.89-4.99c-1.89-0.38-4.25,1.77-2.82,3.67c4.66,6.23,10.22,11.22,17.02,15.03
			c2.84,1.59,5.15-2.51,2.52-4.32c-3.78-2.59-7.55-5.18-11.33-7.76c-0.64,1.52-1.28,3.05-1.93,4.57
			c10.16,2.54,20.32,5.08,30.49,7.62c2.7,0.67,4.46-3.15,1.93-4.57c-7.4-4.14-14.95-7.97-22.66-11.5c-2.88-1.32-5.32,2.61-2.52,4.32
			c9.31,5.68,18.9,10.86,28.77,15.52c0.64-1.52,1.28-3.05,1.93-4.57c-9.71-3.49-19.55-6.56-29.53-9.22
			c-2.86-0.76-4.16,2.98-1.93,4.57c8.46,6.02,17.99,9.95,28.23,11.64c2,0.33,3.38-1.1,3.08-3.08c-1.03-6.63-3.5-14.54-2.72-21.21
			c0.2-1.74,0.75-5.27,3-5.73c2.92-0.6,4.88,1.24,4.59,4c-0.39,3.69-4.19,6.22-6.94,8.18c1.14,1.14,2.28,2.28,3.42,3.42
			c1.52-3.16,3.4-5.98,5.98-8.38c1.04-0.96,2.7-2.8,4.17-3.13c2.19-0.49,3.77,3.78,1.53,4.78c0.84,0,1.68,0,2.52,0
			c0.19,0.45,0.38,0.9,0.57,1.35c-0.8,0.61-1.61,1.22-2.41,1.84c0.16-0.02,0.32-0.04,0.49-0.06c-0.8-1.05-1.61-2.11-2.41-3.16
			c-0.7,4.59-1.36,9.54-4.39,13.25c-3.33,4.07-9.04,6.11-13.78,8.01c-4.21,1.69-9.75,4.57-14.4,4.38c-4.55-0.19-7.69-3.48-12.38-2
			c-2.39,0.75-2.36,4.06,0,4.82c15.01,4.88,31.62,0.87,42.84-10.2c2-1.98-0.58-5.42-3.03-3.93c-8,4.87-17.09,6.48-26.2,7.99
			c0.44,1.61,0.89,3.21,1.33,4.82c3.84-1.36,7.68-2.73,11.52-4.09c2.26-0.8,2.48-4.11,0-4.82c-4.08-1.18-8.1-1.66-12.35-1.47
			c-2.3,0.1-3.62,3.5-1.26,4.66c1.79,0.88,3.57,1.75,5.36,2.63c0.2-1.52,0.4-3.05,0.6-4.57c-1.51,0.76-3.12,0.97-4.84,0.64
			c0,1.61,0,3.21,0,4.82c8.52-2.11,18.29-5.14,25.42-10.45c6.44-4.78,5.83-12.29,4.36-19.37c-0.58-2.79-4.94-2.12-4.91,0.66
			c0.03,3.5-0.59,6.51-1.9,9.72c1.61,0,3.21,0,4.82,0c-1.89-6.03-7.02-10.75-13.52-11.12c-5.99-0.34-10.23,4.22-7.93,10.1
			c1.38,3.54,7.39,9.62,10.92,4.76c4.49-6.18-6.75-10.37-11.1-10.24c-1.54,0.05-2.95,1.57-2.41,3.16
			c2.23,6.59,8.54,11.38,15.68,10.67c9.64-0.96,5.19-10.69,2.4-16.37c-3.68-7.51-9.81-15.77-18.51-17.57
			c-7.02-1.45-14.37,2.24-16.47,9.2c-0.33,1.1,0.23,2.22,1.15,2.82c4.68,3.07,9.65,5.17,15.12,6.37c3.14,0.69,4.41-3.85,1.33-4.82
			c-6.85-2.16-13.7-4.31-20.54-6.47c-2.78-0.88-4.25,3.08-1.93,4.57c9.59,6.13,20.46,9.27,31.84,9.25c2.46,0,3.43-3.42,1.26-4.66
			c-8.17-4.67-16.77-8.32-25.81-10.95c-0.22,1.64-0.44,3.27-0.66,4.91c5.57-0.49,11.15-0.59,16.74-0.46
			c2.63,0.06,5.26,0.17,7.89,0.28c1.22,0.05,2.47,0.03,3.69,0.18c0.14,0.02,6.69,1.86,4.37,2.8c0.94,0.38,1.88,0.77,2.82,1.15
			c-6.3-12.11-20.43-23.72-33.65-13.45c-1.99,1.55,0.17,4.94,2.43,4.18c5.95-2,13.24-4.61,19.3-1.57c4.45,2.23,7.41,6.53,11.97,8.69
			c2.27,1.07,4.58-1.11,3.42-3.42c-2.45-4.88-7.13-11.95-12.9-13.27c-5.71-1.3-13.63,4.02-18.08,6.89
			c-1.92,1.24-1.37,4.89,1.26,4.66c5.51-0.48,6.19,6.46,7.13,10.33c0.72,2.98,1.79,5.46,3.78,7.81c2.07,2.47,5.6-1.09,3.54-3.54
			c-5.04-5.99-2.76-20.64-14.44-19.61c0.42,1.55,0.84,3.11,1.26,4.66c3.43-2.21,8.71-6.05,12.88-6.22
			c5.18-0.22,9.33,6.97,11.26,10.81c1.14-1.14,2.28-2.28,3.42-3.42c-5.74-2.71-9.3-8.45-15.65-10.1c-6.5-1.69-13.34,0.42-19.48,2.49
			c0.81,1.39,1.62,2.79,2.43,4.18c10.5-8.16,21.3,3.79,25.8,12.44c0.46,0.88,1.85,1.54,2.82,1.15c5.99-2.43,4.33-9.86-1.14-11.85
			c-4.27-1.55-9.68-1.04-14.16-1.17c-6.25-0.19-12.48-0.13-18.71,0.41c-2.71,0.24-3.51,4.08-0.66,4.91
			c8.63,2.51,16.8,5.98,24.61,10.44c0.42-1.55,0.84-3.11,1.26-4.66c-10.54,0.02-20.44-2.89-29.32-8.57
			c-0.64,1.52-1.28,3.05-1.93,4.57c6.85,2.16,13.7,4.31,20.54,6.47c0.44-1.61,0.89-3.21,1.33-4.82c-5.06-1.12-9.59-3.03-13.92-5.87
			c0.38,0.94,0.77,1.88,1.15,2.82c1.5-4.98,7.15-6.73,11.81-5.33c5.09,1.54,8.91,6.23,11.62,10.55c1.43,2.28,6.64,10.32,4.99,12.68
			c-1.09,1.57-4.94,0.18-6.33-0.51c-2.55-1.27-4.29-3.28-5.2-5.99c-0.8,1.05-1.61,2.11-2.41,3.16c1.84-0.06,4.2,1.43,5.72,0.32
			c-1.09-1.04-0.92-2.06,0.52-3.07c0.41-1.95,1.48-2.5,3.2-1.66c3.65,0.88,6.28,3.74,7.38,7.24c0.79,2.52,3.92,2.21,4.82,0
			c1.48-3.63,2.12-7.14,2.08-11.04c-1.64,0.22-3.27,0.44-4.91,0.66c0.62,3,1.37,6.29,0.67,9.34c-0.92,4.02-4.71,5.75-8.07,7.45
			c-6.02,3.04-12.35,5.25-18.89,6.87c-2.26,0.56-2.5,4.43,0,4.82c2.72,0.42,4.87,0.35,7.5-0.64c1.82-0.69,2.7-3.54,0.6-4.57
			c-1.79-0.88-3.57-1.75-5.36-2.63c-0.42,1.55-0.84,3.11-1.26,4.66c3.8-0.17,7.35,0.23,11.02,1.29c0-1.61,0-3.21,0-4.82
			c-3.84,1.36-7.68,2.73-11.52,4.09c-3.07,1.09-1.83,5.34,1.33,4.82c9.55-1.58,19.02-3.4,27.4-8.49c-1.01-1.31-2.02-2.62-3.03-3.93
			c-10.01,9.88-24.62,13.25-37.98,8.92c0,1.61,0,3.21,0,4.82c3.12-0.98,5.93,1.35,8.86,1.94c2.23,0.45,4.47,0.14,6.65-0.4
			c5.87-1.45,11.67-3.93,17.16-6.43c4-1.82,7.99-3.95,10.73-7.49c3.29-4.26,4.24-9.56,5.03-14.75c0.21-1.41-0.62-3.37-2.41-3.16
			c-0.16,0.02-0.32,0.04-0.49,0.06c-1.12,0.13-2.09,0.69-2.41,1.84c-0.83,2.98,1.74,5.61,4.66,4.12c3.4-1.74,4.13-8.32,2.51-11.43
			c-5.63-10.77-18.93,6.28-21.44,11.51c-0.97,2.03,1.19,5,3.42,3.42c4.53-3.22,9.67-7.23,9.52-13.38c-0.11-4.46-3.11-8.59-7.84-8.62
			c-15.82-0.11-8.23,25.57-6.95,33.78c1.03-1.03,2.05-2.05,3.08-3.08c-9.86-1.63-18.9-5.35-27.04-11.14
			c-0.64,1.52-1.28,3.05-1.93,4.57c9.97,2.66,19.81,5.73,29.53,9.22c2.64,0.95,4.49-3.36,1.93-4.57
			c-9.86-4.67-19.45-9.84-28.77-15.52c-0.84,1.44-1.68,2.88-2.52,4.32c7.71,3.53,15.26,7.37,22.66,11.5
			c0.64-1.52,1.28-3.05,1.93-4.57c-10.16-2.54-20.32-5.08-30.49-7.62c-2.83-0.71-4.23,2.99-1.93,4.57
			c3.78,2.59,7.55,5.18,11.33,7.76c0.84-1.44,1.68-2.88,2.52-4.32c-6-3.36-11.1-7.72-15.22-13.24c-0.94,1.22-1.88,2.45-2.82,3.67
			c4.77,0.95,9.29,2.4,13.69,4.49c2.88,1.37,5.42-2.86,2.52-4.32c-6.43-3.24-13.1-5.74-20.1-7.46c-2.25-0.55-4.47,2.5-2.43,4.18
			c2.04,1.67,4.11,3.08,6.49,4.24c2.9,1.41,5.19-2.5,2.52-4.32c-4.72-3.22-9.75-5.64-15.18-7.4c-2.44-0.79-4.11,2.45-2.43,4.18
			c4.46,4.58,8.91,9.15,13.37,13.73c0.59-1.42,1.18-2.85,1.77-4.27c-6.53-0.35-6.37-8.14-5.48-12.73c-1.61,0-3.21,0-4.82,0
			c0.88,4.11,5.22,5.67,8.91,3.98c2.5-1.14,4.39-3.51,6.26-5.44c3.01-3.11,6.02-6.22,9.04-9.33c-1.18-1.18-2.36-2.36-3.54-3.54
			c-3.67,3.95-9.48,5.75-12.26,10.58c-2.58,4.49-1.34,10.15-0.61,14.98c0.87,5.73,2.35,11.61,5.99,16.25
			c3.74,4.78,9.24,6.73,14.88,8.4c11.37,3.38,25.62,5.81,34.59-4.1c3.99-4.41,4.56-9.76,4.5-15.48c-0.08-8.28-0.29-16.55-0.43-24.83
			c-1.55,0.42-3.11,0.84-4.66,1.26c1.44,3,1.77,5.79,1.13,9.03c1.61,0,3.21,0,4.82,0c-0.55-1.71-1.1-3.42-1.65-5.14
			c-0.9-2.79-4.64-2.09-4.91,0.66c-1.02,10.3,5.39,19.44,1.4,29.69c-1.85,4.75-5.26,10.27-9.77,12.92
			c-6.44,3.78-12.88-2.2-17.73-5.88c-7.31-5.55-17.02-7.37-23.39-14.16c-6.49-6.92-9.17-16.61-11.7-25.51
			c-1.39,0.81-2.79,1.62-4.18,2.43c5.84,4.93,12.79,6.81,20.32,5.56c1.73-0.29,2.11-2.36,1.49-3.67
			c-3.24-6.93-8.17-12.5-14.55-16.71c-1.76-1.16-3.54,0.44-3.76,2.16c-1.43,11.06,9.04,16.95,17.52,21
			c5.65,2.7,10.93,5.93,14.23,11.46c2.61,4.38,2.58,10.04-3.96,9.52c-3.35-0.27-6.69-2.5-9.16-4.67
			c-5.66-4.96-7.21-11.34-3.53-18.04c3.11-5.66,7.54-10.8,11.71-15.69c2.22-2.6,4.28-5.38,7.85-5.94c3.6-0.56,7.95,1.48,11.18,2.99
			c5.58,2.62,10.54,6.2,14.94,10.51c2.3,2.25,5.81-1.25,3.54-3.54c-14.19-14.29-36.33-16.29-52.72-4.47c-1.59,1.14-1.7,4.1,0.6,4.57
			c5.86,1.2,11.53,3.02,16.88,5.71c2.51,1.26,4.94,2.68,7.27,4.24c1.39,0.93,3.91,2.39,4.89,3.63c1.08,1.37,1.38,0.39,0.68,1.74
			c-1.56,2.98-7.34,4.37-9.85,2.27c-2.04-1.71-2.9-4.86-1.37-7.13c4.33-6.4,12.91-0.55,16.88,3.04c-0.13-1.01-0.26-2.02-0.39-3.03
			c-2.11,3.4-5.25,5.76-9.14,6.71c-0.92,0.22-6.21,1.08-6.73-0.08c-0.86-1.9,2.8-0.42,3.31-0.28c4,1.07,7.82,2.7,11.35,4.86
			c0.99,0.61,4.4,2.48,4.8,3.39c1.5,3.37-3.62,3.79-5.71,4.24c-4.13,0.89-8.47,0.77-12.55-0.3c-3.05-0.81-5.55-1.49-6.24-5.3
			c-0.32-1.77,0.26-4.05,0.55-5.81c0.68-4.11,1.75-8.16,3.2-12.06c0.95-2.55,1.29-5.02,3.88-5.81c2.27-0.69,4.55,0.99,6.55,2
			c6.73,3.4,15.37,9.86,12.92,18.64c-2.22,7.98-13.95,10.07-20.95,9.52c-8.37-0.65-16.78-6.86-23.03-12.11
			C91.23,55.59,86,47.97,86.6,38.52c-1.42,0.59-2.85,1.18-4.27,1.77c11.94,12.34,27.09,22.65,44.6,24.28
			c7.2,0.67,15.46-0.16,21.05-5.23c6.84-6.2,4.68-15.79,8.91-23.23c-1.52-0.2-3.05-0.4-4.57-0.6c4.96,14.31,6.22,29.38,3.48,44.29
			c-0.51,2.79,2.92,4.32,4.57,1.93c8.73-12.67,8.32-28.41,7.45-43.13C167.64,35.4,162.64,35.37,162.83,38.59L162.83,38.59z"/>
	</g>
</g>
<g>
	<g>
		<path class="st1" d="M109.7,51.4c-2.5-1.84-7.45-5.26-10.77-3.9c-2.96,1.22-2.78,5.37-1.92,7.9c1.34,3.92,4.71,6.32,8,8.55
			c2.38,1.61,6.28,5.73,9.3,3.46c1.47-1.1,2.35-3.34,3.3-4.85c1.25-2,2.63-3.96,3.57-6.13c1.4-3.2,1.65-6.84-0.62-9.72
			c-1.95-2.48-5.21-3.26-8.04-1.78c-3.67,1.92-4.45,6.29-6.67,9.4c1.44,0.84,2.88,1.68,4.32,2.52c1.16-2.16,2.56-3.54,4.72-4.67
			c2.85-1.49,0.33-5.81-2.52-4.32c-2.86,1.49-5,3.63-6.51,6.46c-1.54,2.88,2.47,5.11,4.32,2.52c1-1.39,1.58-2.87,2.37-4.37
			c0.36-0.84,0.82-1.62,1.39-2.34c2.35-1,3.48-0.41,3.39,1.77c0.03,3.3-3.76,8.14-5.64,10.68c1.72,0.92,1.69,0.82-0.09-0.28
			c-0.9-0.6-1.8-1.2-2.71-1.8c-1.82-1.21-3.81-2.34-5.33-3.94c-0.91-0.86-1.55-1.89-1.93-3.08c-1.69-1.35-1.65-1.64,0.11-0.85
			c1.97,0.51,3.83,1.88,5.45,3.06C109.77,57.63,112.27,53.29,109.7,51.4L109.7,51.4z"/>
	</g>
</g>
<g>
	<g>
		<path class="st1" d="M111.76,60.35c-3.32-1.27-5.93-3.85-7.22-7.16c-1.52,0.64-3.05,1.28-4.57,1.93c2.29,3.23,4.87,6.46,8.99,7.23
			c3.85,0.72,7.02-1.31,8.85-4.6c1.39-2.5,3.21-6.81-0.44-8.37c-1.58-0.68-3.37-0.24-4.76,0.66c-1.99,1.3-2.55,3.75-4.37,5.13
			c-2.53,1.92-0.04,6.27,2.52,4.32c1.3-0.99,2.46-2.12,3.22-3.6c0.29-0.56,1.23-3.45,0.22-2.15c-0.47,0.61-0.66,1.51-1.11,2.16
			c-2.86,4.17-7.01-0.76-8.81-3.3c-1.51-2.12-5.67-0.91-4.57,1.93c1.98,5.08,5.62,8.71,10.71,10.65
			C113.44,66.32,114.74,61.49,111.76,60.35L111.76,60.35z"/>
	</g>
</g>
<g>
	<g>
		<path class="st1" d="M137.75,55.87c1.38-1.75,3.01-3.17,5.1-4.02c0.42-0.17,1.02-0.47,1.48-0.48c0.98-0.03-0.24-0.55,0.56,0.15
			c0.76,0.68,1.3,2.89,1.72,3.82c1.32,2.93,5.63,0.39,4.32-2.52c-1.71-3.8-2.68-7.47-7.57-6.36c-3.61,0.82-6.87,2.99-9.15,5.88
			C132.24,54.83,135.76,58.39,137.75,55.87L137.75,55.87z"/>
	</g>
</g>
<g>
	<g>
		<path class="st1" d="M142.59,55.7c3.22,0,3.22-5,0-5C139.37,50.7,139.37,55.7,142.59,55.7L142.59,55.7z"/>
	</g>
</g>
<g>
	<g>
		<path class="st1" d="M125.63,69.37c0.76-0.27,1.68-0.7,2.51-0.58c0.16,0.06,0.17,0.06,0.03,0c-0.12-0.14-0.07-0.1,0.14,0.12
			c-0.06-0.05-0.08-0.11-0.08-0.19c0.07,0.35,0.09,0.33,0.07-0.04c-0.06-0.27,0.03-0.51,0.26-0.7c0.05-0.04,0.11-0.09,0.17-0.12
			c0.1-0.25,0.47,0.43-0.05-0.07c-0.46-0.44-0.99-0.96-1.43-1.5c-0.85-1.05-2.65-0.88-3.54,0c-1.04,1.04-0.85,2.48,0,3.54
			c1.25,1.54,2.77,2.88,4.84,3c2.08,0.12,4.1-1.14,4.59-3.22c0.47-1.99-0.65-4.02-2.33-5.06c-2-1.24-4.43-0.73-6.51,0
			c-1.27,0.45-2.12,1.71-1.75,3.08C122.89,68.86,124.35,69.82,125.63,69.37L125.63,69.37z"/>
	</g>
</g>
<g>
	<g>
		<path class="st1" d="M126.3,71.61c-0.42,4.98,2.42,11.17,7.43,12.92c6.57,2.3,7.85-8.28,8.12-12.54c0.21-3.21-4.79-3.2-5,0
			c-0.11,1.75-0.39,3.46-0.88,5.15c-0.27,0.93-0.62,1.81-0.97,2.71c0.73,0.13,0.78,0.08,0.15-0.16c-0.26-0.14-0.5-0.31-0.73-0.5
			c-2.37-1.82-3.36-4.68-3.11-7.59C131.57,68.4,126.57,68.42,126.3,71.61L126.3,71.61z"/>
	</g>
</g>
<g>
	<g>
		<path class="st1" d="M125.22,71.43c0.81,2.99,0.81,6.57-1.81,8.69c-2.06,1.67-6.06,1.49-6.33-1.81c-0.27-3.18-5.27-3.21-5,0
			c0.49,5.93,6.47,9.49,11.97,7.2c6.11-2.54,7.57-9.57,5.99-15.41C129.2,67,124.38,68.31,125.22,71.43L125.22,71.43z"/>
	</g>
</g>
<g>
	<g>
		<path class="st1" d="M86.99,38.56c-0.19-2.26-0.14-4.52,0.25-6.76c-1.39,0.37-2.79,0.74-4.18,1.1c1.37,1.53,2.74,3.06,4.11,4.59
			c2.15,2.4,5.68-1.14,3.54-3.54c-1.37-1.53-2.74-3.06-4.11-4.59c-1.19-1.33-3.85-0.73-4.18,1.1c-0.48,2.69-0.66,5.36-0.43,8.08
			C82.26,41.74,87.26,41.77,86.99,38.56L86.99,38.56z"/>
	</g>
</g>
<g>
	<g>
		<path class="st1" d="M156.52,31.5c0.95-1.27,1.91-2.54,2.86-3.81c-1.44,0-2.88,0-4.32,0c0.71,1.67,1.13,3.47,1.38,5.26
			c0.19,1.34,1.89,2.07,3.08,1.75c1.44-0.39,1.94-1.73,1.75-3.08c-0.33-2.26-1-4.36-1.89-6.46c-0.82-1.93-3.34-1.3-4.32,0
			c-0.95,1.27-1.91,2.54-2.86,3.81c-0.81,1.08-0.17,2.79,0.9,3.42C154.38,33.15,155.71,32.58,156.52,31.5L156.52,31.5z"/>
	</g>
</g>
<g>
	<g>
		<path class="st0" d="M169.65,63.28c7.57-2.25,14.84-5.21,21.82-8.88c2.85-1.5,0.33-5.81-2.52-4.32
			c-6.61,3.48-13.47,6.25-20.63,8.38C165.24,59.37,166.55,64.2,169.65,63.28L169.65,63.28z"/>
	</g>
</g>
<g>
	<g>
		<path class="st0" d="M166.46,64.87c5.21,4.57,11.09,7.95,17.67,10.12c3.06,1.01,4.38-3.81,1.33-4.82
			c-5.74-1.9-10.92-4.85-15.46-8.84C167.58,59.22,164.03,62.75,166.46,64.87L166.46,64.87z"/>
	</g>
</g>
<g>
	<g>
		<path class="st0" d="M171.03,66.19c4.32,0.56,8.64,1.12,12.97,1.68c3.18,0.41,3.15-4.59,0-5c-4.32-0.56-8.64-1.12-12.97-1.68
			C167.85,60.77,167.88,65.78,171.03,66.19L171.03,66.19z"/>
	</g>
</g>
<g>
	<g>
		<path class="st0" d="M89.89,64.5c-8.23,0-16.45,0-24.68,0c-3.22,0-3.22,5,0,5c8.23,0,16.45,0,24.68,0
			C93.1,69.5,93.11,64.5,89.89,64.5L89.89,64.5z"/>
	</g>
</g>
<g>
	<g>
		<path class="st0" d="M84.49,70.92c-1.95,6.29-4.58,12.23-7.89,17.92c-1.62,2.79,2.7,5.31,4.32,2.52
			c3.53-6.05,6.32-12.43,8.4-19.12C90.27,69.17,85.44,67.85,84.49,70.92L84.49,70.92z"/>
	</g>
</g>
<g>
	<g>
		<path class="st0" d="M106.67,58.73c0.96-0.79,2.96-2.64,4.14-1.3c2.13,2.42,5.65-1.13,3.54-3.54c-3.32-3.77-8.13-1.26-11.21,1.3
			C100.66,57.25,104.21,60.77,106.67,58.73L106.67,58.73z"/>
	</g>
</g>
<g>
	<g>
		<path class="st0" d="M108.29,59.88c3.22,0,3.22-5,0-5C105.07,54.88,105.07,59.88,108.29,59.88L108.29,59.88z"/>
	</g>
</g>
<g>
	<g>
		<path class="st0" d="M161.46,53.79c0,0.7,0,1.41,0,2.11c0,1.31,1.15,2.56,2.5,2.5c1.35-0.06,2.5-1.1,2.5-2.5c0-0.7,0-1.41,0-2.11
			c0-1.31-1.15-2.56-2.5-2.5C162.6,51.35,161.46,52.39,161.46,53.79L161.46,53.79z"/>
	</g>
</g>
<g>
	<g>
		<path class="st0" d="M226.36,27.95c1.33-4.79,2.66-9.58,3.99-14.37c-1.03,0.58-2.05,1.16-3.08,1.75
			c5.09,0.78,6.31,8.29,10.88,10.58c3.1,1.56,6.19,0.83,9.32-0.17c4.05-1.29,7.83-2.5,12.12-2.74c4.15-0.23,8.31,0.22,12.31,1.33
			c2.97,0.82,7.01,3.83,10.24,2.78c2.49-0.81,3.58-3.97,4.68-6c2.33-4.28,4.65-8.57,6.98-12.85c-1.52-0.2-3.05-0.4-4.57-0.6
			c4.9,12.14,10.19,25.06,8.51,38.42c-1.67,13.28-10.42,22.06-22.91,25.98c-5.54,1.74-11.56,2.93-17.37,3.02
			c-7.55,0.12-12.23-3.66-16.8-9.22c-8.47-10.32-15.99-22.53-14.75-36.38c0.29-3.2-4.71-3.18-5,0
			c-1.36,15.17,6.92,28.64,16.21,39.91c4.31,5.23,9.1,9.55,16.07,10.46c7.01,0.91,14.75-0.63,21.49-2.54
			c13.02-3.7,23.72-12.03,27.09-25.6c3.89-15.64-1.93-31.04-7.72-45.39c-0.75-1.85-3.45-2.66-4.57-0.6
			c-2.04,3.75-4.07,7.5-6.11,11.24c-0.54,1-1.76,4.51-2.62,4.82c-0.94,0.34-3.48-0.93-4.41-1.27c-6.35-2.36-13.31-3.07-20.02-2.22
			c-2.95,0.38-5.79,1.1-8.61,2.03c-4.91,1.63-7.42,2.05-10.44-2.22c-2.34-3.29-4.34-6.94-8.69-7.6c-1.34-0.21-2.68,0.32-3.08,1.75
			c-1.33,4.79-2.66,9.58-3.99,14.37C220.68,29.73,225.5,31.05,226.36,27.95L226.36,27.95z"/>
	</g>
</g>
<g>
	<g>
		<path class="st0" d="M302.49,43.31c7.79-1.3,14.04-7.44,21.99-7.84c3.2-0.16,3.22-5.16,0-5c-8.58,0.44-15.02,6.64-23.32,8.02
			C298,39.02,299.34,43.83,302.49,43.31L302.49,43.31z"/>
	</g>
</g>
<g>
	<g>
		<path class="st0" d="M302.14,45.92c5.19,1.62,10.2,3.6,15.08,5.98c2.88,1.41,5.42-2.9,2.52-4.32c-5.26-2.57-10.68-4.74-16.28-6.49
			C300.39,40.14,299.08,44.96,302.14,45.92L302.14,45.92z"/>
	</g>
</g>
<g>
	<g>
		<path class="st0" d="M305.15,44.96c5.22-0.14,10.43-0.04,15.65,0.29c3.21,0.21,3.2-4.79,0-5c-5.21-0.34-10.42-0.43-15.65-0.29
			C301.94,40.05,301.93,45.05,305.15,44.96L305.15,44.96z"/>
	</g>
</g>
<g>
	<g>
		<path class="st0" d="M225.6,49.55c-6.77,0.13-13.54,0.26-20.3,0.4c-3.21,0.06-3.22,5.06,0,5c6.77-0.13,13.54-0.26,20.3-0.4
			C228.81,54.49,228.82,49.49,225.6,49.55L225.6,49.55z"/>
	</g>
</g>
<g>
	<g>
		<path class="st0" d="M223.5,53.77c-1.99,7.84-4.86,15.27-8.69,22.39c-1.52,2.83,2.79,5.36,4.32,2.52
			c4.03-7.49,7.1-15.34,9.19-23.58C229.11,51.98,224.29,50.64,223.5,53.77L223.5,53.77z"/>
	</g>
</g>
<g>
	<g>
		<path class="st0" d="M224.9,52.06c-5.98,0.86-14.03,2.59-18.17,7.41c-2.09,2.43,1.43,5.98,3.54,3.54
			c3.53-4.11,10.86-5.38,15.97-6.12C229.4,56.43,228.05,51.61,224.9,52.06L224.9,52.06z"/>
	</g>
</g>
<g>
	<g>
		<path class="st0" d="M280.29,40.11c-0.86-7.24-14.25-10.29-15.52-1.75c-0.7,4.73,3.56,7.52,6.44,10.43
			c1.95,1.97,4.64,7.82,8.18,6.77c1.48-0.44,2.36-2.24,3.2-3.38c1.48-2,3.09-3.96,4.35-6.1c2-3.4,3.32-8.15,0.98-11.75
			c-6.06-9.33-12.63,6.46-13.92,10.88c-0.56,1.94,1.87,4.17,3.67,2.82c3.62-2.7,6.08-6.07,7.32-10.44
			c-1.64-0.22-3.27-0.44-4.91-0.66c-0.12,2.31-0.32,8.3-2.84,9.59c1.01,0.13,2.02,0.26,3.03,0.39c-1.43-1.13-1.78-4.09-3.18-5.54
			c-1.74-1.8-3.93-3.3-5.98-4.72c-2.65-1.84-5.15,2.5-2.52,4.32c2.24,1.55,4.76,3.15,5.95,5.65c0.72,1.51,0.78,2.71,2.2,3.83
			c0.93,0.74,1.94,0.94,3.03,0.39c4.59-2.33,5.09-9.38,5.31-13.9c0.14-2.86-4.15-3.33-4.91-0.66c-0.87,3.05-2.46,5.54-5.02,7.45
			c1.22,0.94,2.45,1.88,3.67,2.82c0.58-2,1.27-3.94,2.18-5.82c0.36-0.75,0.74-1.5,1.18-2.2c0.73-1.18,0.6-1.81,1.5-0.61
			c2.23,2.98-3.36,8.96-5.06,11.26c-0.24,0.33-0.48,0.66-0.73,0.99c-0.59,0.58-0.47,0.69,0.38,0.33c0.84,0.05,0.97-0.16,0.38-0.64
			c-0.18-0.24-0.37-0.49-0.56-0.73c-1.05-1.34-2.16-2.63-3.36-3.85c-1.11-1.12-2.37-2.09-3.46-3.22c-1.3-1.35-1.16-3.49,0.66-3.79
			c0.79-0.13,3.25,1.12,3.34,1.86C275.66,43.27,280.67,43.3,280.29,40.11L280.29,40.11z"/>
	</g>
</g>
<g>
	<g>
		<path class="st1" d="M275.15,45.24c1.63-2.18,4.79-2.19,6.85-0.73c2.63,1.86,5.13-2.47,2.52-4.32c-4.48-3.16-10.54-1.71-13.7,2.53
			C268.91,45.29,273.24,47.79,275.15,45.24L275.15,45.24z"/>
	</g>
</g>
<g>
	<g>
		<path class="st1" d="M273.7,44.12c-0.05,1.47,0.73,2.67,1.9,3.49c1.07,0.75,2.83,0.23,3.42-0.9c0.68-1.28,0.25-2.62-0.9-3.42
			c0.21,0.12,0.38,0.29,0.49,0.51c-0.1-0.18-0.1-0.16-0.01,0.05c0.08,0.22,0.09,0.23,0.03,0.03c0.04,0.43,0.06,0.51,0.06,0.24
			c0.05-1.31-1.18-2.56-2.5-2.5C274.81,41.68,273.75,42.72,273.7,44.12L273.7,44.12z"/>
	</g>
</g>
<g>
	<g>
		<path class="st0" d="M241.64,47.23c0.72-1.07,1.85-2.99,3.26-3.24c1.62-0.29,2.69,1.61,3.46,2.75c1.78,2.66,6.11,0.16,4.32-2.52
			c-1.84-2.76-4.21-5.51-7.85-5.25c-3.43,0.24-5.72,3.09-7.5,5.74C235.52,47.39,239.85,49.9,241.64,47.23L241.64,47.23z"/>
	</g>
</g>
<g>
	<g>
		<path class="st0" d="M240.41,45.78c0,0.33,0,0.67,0,1c0,1.31,1.15,2.56,2.5,2.5c1.35-0.06,2.5-1.1,2.5-2.5c0-0.33,0-0.67,0-1
			c0-1.31-1.15-2.56-2.5-2.5C241.55,43.34,240.41,44.38,240.41,45.78L240.41,45.78z"/>
	</g>
</g>
<g>
	<g>
		<path class="st0" d="M231.51,26.48c0.02-0.78,0.04-1.56,0.06-2.34c-0.63,0.36-1.25,0.72-1.88,1.08c0.93,0.5,1.63,1.26,1.96,2.27
			c0.5,1.52,2.91,0.87,2.41-0.66c-0.52-1.61-1.61-2.97-3.11-3.77c-0.85-0.45-1.85,0.11-1.88,1.08c-0.02,0.78-0.04,1.56-0.06,2.34
			C228.96,28.08,231.46,28.08,231.51,26.48L231.51,26.48z"/>
	</g>
</g>
<g>
	<g>
		<path class="st0" d="M289.37,25.49c0.5-1.12,1.01-2.25,1.51-3.37c-0.65,0.08-1.31,0.17-1.96,0.25c0.65,0.82,1.09,1.77,1.37,2.78
			c0.42,1.55,2.83,0.89,2.41-0.66c-0.39-1.44-1.08-2.71-2.01-3.88c-0.47-0.59-1.66-0.43-1.96,0.25c-0.5,1.12-1.01,2.25-1.51,3.37
			c-0.28,0.62-0.18,1.34,0.45,1.71C288.19,26.25,289.09,26.11,289.37,25.49L289.37,25.49z"/>
	</g>
</g>
<g>
	<g>
		<path class="st0" d="M258.22,56.35c1.73-0.12,3.45-0.24,5.18-0.36c-0.8-0.61-1.61-1.22-2.41-1.84c0.09,0.3,0.09,0.34,0.02,0.13
			c0.03-0.22,0.01-0.18-0.06,0.12c0.13-0.14,0.14-0.17,0.31-0.28c0.1-0.01,0.19,0,0.28,0.03c0.17,0.12,0.12,0.1-0.14-0.06
			c0.22-0.01,0.29,0.6,0.2-0.01c-0.19-1.34-1.89-2.07-3.08-1.75c-1.44,0.4-1.93,1.73-1.75,3.08c0.36,2.6,3.38,4.25,5.81,3.54
			c2.59-0.76,3.88-3.62,3.23-6.12c-0.26-1-1.34-1.91-2.41-1.84c-1.73,0.12-3.45,0.24-5.18,0.36c-1.35,0.09-2.5,1.08-2.5,2.5
			C255.72,55.13,256.87,56.45,258.22,56.35L258.22,56.35z"/>
	</g>
</g>
<g>
	<g>
		<path class="st0" d="M257.72,58.76c-0.07,0.8,0.16,1.67,0.05,2.45c-0.12,0.82-0.27,0.87-1.22,0.9c-1.7,0.06-3.09-0.93-4.12-2.18
			c-2.04-2.49-5.56,1.07-3.54,3.54c2.22,2.7,5.95,4.22,9.42,3.45c1.57-0.35,3.06-1.26,3.84-2.7c0.93-1.73,0.4-3.61,0.57-5.45
			C263.02,55.56,258.01,55.58,257.72,58.76L257.72,58.76z"/>
	</g>
</g>
<g>
	<g>
		<path class="st0" d="M258.61,58c-2.17,4.04,1.05,7.88,5.17,8.37c4.01,0.48,8.05-1.27,10.2-4.7c1.71-2.73-2.61-5.25-4.32-2.52
			c-0.77,1.22-1.98,1.92-3.38,2.19c-0.54,0.1-3.91,0.22-3.36-0.81C264.45,57.69,260.13,55.16,258.61,58L258.61,58z"/>
	</g>
</g>
<g>
	<g>
		<path class="st0" d="M86.02,68.49c-8.19,2.99-15.64,7.15-22.53,12.48c-2.54,1.97,1.02,5.48,3.54,3.54
			c6.17-4.78,13-8.51,20.33-11.19C90.35,72.22,89.05,67.38,86.02,68.49L86.02,68.49z"/>
	</g>
</g>
<g>
	<g>
		<path class="st0" d="M115.06,98.2c-1.15,21.22-2.03,42.45-2.63,63.69c-0.28,9.96-0.5,19.91-0.66,29.87
			c-0.15,9.39-1.1,19.29,0.31,28.62c0.68,4.47,3.41,15.06,10.01,12.76c5.45-1.9,7.99-10.93,8.96-15.8
			c1.72-8.61,1.92-17.54,3.08-26.24c1.38-10.39,3.23-20.7,5.46-30.93c-1.61,0-3.21,0-4.82,0c1.98,14.67,3.97,29.34,5.95,44.01
			c0.97,7.16,1.31,14.8,2.98,21.83c0.86,3.61,3.11,6.86,7.25,6.44c4.34-0.44,6.51-4.37,7.46-8.17c1.56-6.23,2.2-12.86,2.95-19.23
			c1.7-14.55,2.15-29.21,1.5-43.84c-0.14-3.2-5.14-3.22-5,0c0.48,10.81,0.38,21.64-0.41,32.44c-0.43,5.81-1.05,11.6-1.86,17.37
			c-0.4,2.84-0.85,5.67-1.35,8.49c-0.31,1.73-1.93,10.76-5.57,5.82c-1.03-1.39-0.79-5.14-1.02-6.82c-0.4-2.93-0.79-5.87-1.19-8.8
			c-0.75-5.54-1.5-11.08-2.25-16.63c-1.54-11.41-3.09-22.82-4.63-34.23c-0.34-2.48-4.32-2.29-4.82,0
			c-3.51,16.11-5.87,32.36-7.45,48.77c-0.32,3.31-0.65,6.63-1.41,9.88c-0.43,1.84-2.68,10.47-5.2,10.64
			c-1.63,0.1-2.93-4.85-3.19-5.83c-0.52-1.93-0.72-3.92-0.86-5.9c-0.3-4.2-0.1-8.47-0.06-12.68c0.39-35.19,1.55-70.37,3.44-105.51
			C120.23,94.99,115.23,95,115.06,98.2L115.06,98.2z"/>
	</g>
</g>
<g>
	<g>
		<path class="st0" d="M169.26,89.66c7.55-3.33,12.35,6.53,15.08,11.73c2.81,5.35,5.26,10.87,7.36,16.53
			c4.04,10.93,6.82,22.3,8.6,33.81c3.61,23.41,2.98,47.31,0.57,70.8c-0.33,3.2,4.67,3.17,5,0c2.81-27.34,3.08-55.21-2.58-82.22
			c-2.72-12.99-6.88-25.68-12.7-37.62c-4.44-9.12-11.54-22.77-23.85-17.34C163.8,86.63,166.34,90.94,169.26,89.66L169.26,89.66z"/>
	</g>
</g>
<g>
	<g>
		<path class="st0" d="M192.49,192.68c-6.95-4.42-13.22,2.41-14.19,9.07c-0.33,2.31-0.3,4.65-0.33,6.97
			c-0.02,1.64,0.89,8.18-0.11,9.51c0.67-0.89-2.63,0.58-3.14,0.9c-1.4,0.9-2.51,2.15-3.4,3.54c-3.57,5.57-4.18,13.67,4.32,13.63
			c10.08-0.05,20.48-4.66,28.48-10.49c2.58-1.88,0.08-6.22-2.52-4.32c-5.36,3.9-11.22,6.86-17.67,8.49
			c-2.32,0.59-7.82,2.57-9.56,0.63c-1.67-1.86,1.46-6.4,3.36-7.5c1.49-0.86,3.03-0.45,4.18-1.9c1.45-1.82,0.96-4.67,0.99-6.79
			c0.04-3.3-0.96-22.53,7.06-17.43C192.69,198.73,195.2,194.4,192.49,192.68L192.49,192.68z"/>
	</g>
</g>
<g>
	<g>
		<path class="st0" d="M275.61,78.66c0.64,35.08,1.29,70.16,1.93,105.24c0.16,8.6,0.32,17.21,0.47,25.81
			c0.06,3.26,1.68,13.82-3.78,12.82c-3.98-0.73-4.36-6.34-4.59-9.5c-1.21-17.34-1.19-34.88-1.62-52.26
			c-0.06-2.45-3.38-3.43-4.66-1.26c-9.06,15.41-4.33,33.3-5.44,50.15c-0.24,3.73-0.84,14.43-6.73,12.35
			c-5.2-1.84-4.23-11.12-4.45-15.5c-0.54-11.01-0.75-22.03-0.69-33.05c0.02-3.22-4.98-3.22-5,0c-0.08,13.87-0.31,28.1,1.24,41.9
			c0.79,6.99,7.54,16.7,15.31,10.45c7.19-5.79,5.63-20.23,5.36-28.27c-0.41-12.05-1.66-24.67,4.71-35.5
			c-1.55-0.42-3.11-0.84-4.66-1.26c0.41,16.62,0.89,33.24,1.52,49.85c0.19,4.93,0.36,10.79,4.24,14.42c2.77,2.6,7.46,3.66,10.8,1.56
			c4.86-3.05,3.55-10.11,3.46-14.91c-0.16-8.6-0.32-17.21-0.47-25.81c-0.3-16.55-0.61-33.09-0.91-49.64
			c-0.35-19.19-0.71-38.39-1.06-57.58C280.55,75.44,275.55,75.43,275.61,78.66L275.61,78.66z"/>
	</g>
</g>
<g>
	<g>
		<path class="st0" d="M239.69,71.95c-13.86,0.03-21.74,14.22-26.31,25.51c-5.23,12.91-7.94,26.66-12.92,39.65
			c-1.15,3.01,3.68,4.31,4.82,1.33c4.11-10.75,6.7-22.02,10.42-32.9c3.67-10.73,10.38-28.56,23.99-28.59
			C242.91,76.95,242.92,71.95,239.69,71.95L239.69,71.95z"/>
	</g>
</g>
<g>
	<g>
		<path class="st0" d="M211.7,222.02c6.18,2.48,14.76,4.45,20.95,0.95c5.23-2.96,7.47-9.8,4.84-15.23
			c-1.23-2.54-3.33-4.53-5.92-5.66c-1.57-0.69-3.11-0.99-4.82-1.03c-2.98-0.07-2.98-0.27-3.88-3.24c-1.63-5.42-0.23-15.9-8.94-14.38
			c-3.16,0.55-1.82,5.37,1.33,4.82c2.01-0.35,2.83,12.97,3.57,14.57c1.39,2.98,3.81,3.2,6.77,3.29c2.85,0.09,5.79,0.7,7.28,3.51
			c2,3.76-0.24,7.93-3.81,9.44c-4.84,2.04-11.43,0-16.04-1.85C210.05,216.01,208.75,220.84,211.7,222.02L211.7,222.02z"/>
	</g>
</g>
<g>
	<g>
		<path class="st0" d="M133.72,122.35c4.7-0.23,9.4-0.47,14.09-0.7c5.07-0.25,6.64-6.52,2.52-9.32
			c-8.31-5.64-16.44-11.54-24.34-17.73c-3.03-2.38-8.9-1.26-8.54,3.54c2.94,39.05-6.41,77.55-6.21,116.53
			c0.03,5.96,0.13,15.21,8.3,15.43c7.76,0.22,9.15-8.73,10.05-14.5c3.06-19.74,6.12-39.49,9.18-59.23c0.96-6.2-8.18-9.06-9.64-2.66
			c-4.09,17.89-8.19,35.79-12.28,53.68c3.27,0.44,6.55,0.89,9.82,1.33c1.02-12.79,2.4-25.55,4.27-38.24
			c1.65-11.22,2.23-24.89,8.38-34.71c-3.11-0.84-6.21-1.68-9.32-2.52c-1.1,16.49,8.1,30.84,10.59,46.74
			c2.52,16.12,0.8,32.3,7.63,47.57c1.68,3.76,8.51,2.95,9.14-1.19c3.92-25.68,6.23-51.55,8.27-77.44
			c0.41-5.19,1.97-11.48-0.11-16.45c-1.83-4.35-6.11-8-9.4-11.3c-7.28-7.31-15.78-13.79-26.2-15.51c-2.49-0.41-5.61,0.62-6.15,3.49
			c-1.4,7.48-1.99,14.95-1.59,22.55c0.16,3.11,3.08,5.85,6.33,4.82c2.1-0.66,3.56-1.61,5.08-3.23c1.44-1.54,1.95-3.35,3.87-1.07
			c1.74,2.06,1.08,6.28,1.08,8.78c0,2.8,0.16,5.56,0.58,8.33c0.83,5.42,2.77,10.39,5.17,15.29c2.09,4.25,6.2,11.29,2.54,15.87
			c2.79,0.74,5.57,1.47,8.36,2.21c-1.14-3.68-2.06-7.4-2.54-11.24c-3.27,0.44-6.55,0.89-9.82,1.33c1.26,5.12,2.53,10.25,3.79,15.37
			c1.42,5.74,9.4,4.07,9.82-1.33c1.21-15.73,1.19-31.51-0.22-47.22c-0.92-10.26-1.15-24.71-12.96-28.5
			c-4.46-1.43-7.43,3.67-5.65,7.34c4.31,8.88,10.34,16.71,17.85,23.12c1.18-2.85,2.36-5.69,3.54-8.54
			c-5.23,0.19-10.45,0.38-15.68,0.56c-2.61,0.09-5.23,0.19-7.84,0.28c-1.31,0.05-2.61,0.09-3.92,0.14c-1.62-0.41-1.69,0.25-0.2,2
			c-1.67,1.67-3.33,3.33-5,5c8.95-0.8,17.49,0.14,26.04,2.92c6.13,1.99,8.76-7.66,2.66-9.64c-9.3-3.02-18.96-4.14-28.7-3.28
			c-2.42,0.22-5.37,2.13-5,5c0.86,6.65,6.16,8.07,12.16,7.93c8.49-0.21,16.99-0.61,25.48-0.91c4.01-0.14,7.01-5.57,3.54-8.54
			c-6.93-5.93-12.31-12.89-16.28-21.1c-1.88,2.45-3.76,4.9-5.65,7.34c3.67,1.17,4.24,6.87,4.68,10.09
			c0.85,6.15,1.31,12.39,1.65,18.59c0.68,12.47,0.47,24.95-0.49,37.4c3.27-0.44,6.55-0.89,9.82-1.33
			c-1.26-5.12-2.53-10.25-3.79-15.37c-1.31-5.32-10.53-4.37-9.82,1.33c0.59,4.74,1.47,9.33,2.89,13.9c1.01,3.25,5.88,5.31,8.36,2.21
			c4.61-5.78,5.19-12.79,2.78-19.68c-3.06-8.73-7.93-15.54-8.16-25.14c-0.17-7.35,0.36-15.57-6.88-19.95
			c-2.45-1.48-5.5-2.23-8.33-1.6c-1.61,0.36-3.05,1.11-4.3,2.18c-0.92,0.78-2.07,3.16-3.17,3.51c2.11,1.61,4.22,3.21,6.33,4.82
			c-0.35-6.7,0-13.29,1.24-19.89c-2.05,1.16-4.1,2.33-6.15,3.49c9.12,1.51,16.02,7.08,22.34,13.5c1.46,1.49,2.91,3,4.3,4.56
			c2.05,2.27,2.64,3.69,2.41,6.76c-0.4,5.55-0.86,11.09-1.31,16.64c-1.81,22.38-3.9,44.75-7.29,66.95c3.05-0.4,6.09-0.8,9.14-1.19
			c-6.29-14.07-4.24-30.28-6.62-45.18c-2.39-14.93-11.25-28.66-10.23-44.08c0.34-5.18-6.84-6.48-9.32-2.52
			c-6.73,10.74-7.58,24.85-9.39,37.1c-2,13.58-3.54,27.22-4.63,40.9c-0.45,5.62,8.57,6.79,9.82,1.33
			c4.09-17.89,8.19-35.79,12.28-53.68c-3.21-0.89-6.43-1.77-9.64-2.66c-2.51,16.18-5.01,32.37-7.52,48.55
			c-0.6,3.88-1.2,7.77-1.81,11.65c-0.2,1.28-1.12,3.71-0.83,5c-0.89,1.59-0.08,2.11,2.42,1.56c-0.07-0.65-0.1-1.29-0.1-1.94
			c0.8-3.69-0.05-8.75,0.06-12.54c0.11-3.86,0.3-7.72,0.55-11.57c2.08-32.1,7.98-64.02,5.55-96.28c-2.85,1.18-5.69,2.36-8.54,3.54
			c8.58,6.73,17.35,13.17,26.37,19.3c0.84-3.11,1.68-6.21,2.52-9.32c-4.7,0.23-9.4,0.47-14.09,0.7
			C127.32,112.67,127.28,122.67,133.72,122.35L133.72,122.35z"/>
	</g>
</g>
<g>
	<g>
		<path class="st0" d="M162.51,96.67c11.89-8.03,12.21,17.56,12.93,23.38c1.58,12.82,3.01,25.65,4.99,38.41
			c1.99,12.8,5.46,25.28,7.6,38.03c1,5.95,1.74,12.57,0.13,18.49c-1.45,5.32-5.87,11.53-12.21,10.62c0.74,2.79,1.47,5.57,2.21,8.36
			c4.43-5.31,7.96-11.06,10.4-17.55c0.66-1.76,4.16-16.98,3.69-16.99c-1.61-1.22-3.21-2.45-4.82-3.67
			c1.78,9.25,2.74,18.54,2.97,27.95c0.11,4.6,5.26,6.24,8.54,3.54c3.54-2.93,4.69-7.16,5.39-11.53c0.93-5.77,1.63-11.59,2.13-17.42
			c1.04-12.03,1.14-24.15,0.3-36.2c-0.75-10.88-1.44-22.82-5.56-33.02c-3.83-9.47-12.11-16.49-15.28-26.22
			c-1.99-6.09-11.65-3.48-9.64,2.66c2.79,8.56,8.7,14.9,13.25,22.48c5.36,8.94,6.07,20.14,6.94,30.3
			c0.89,10.45,1.08,20.96,0.57,31.44c-0.27,5.4-0.71,10.79-1.35,16.15c-0.51,4.22-0.25,11.34-3.81,14.29
			c2.85,1.18,5.69,2.36,8.54,3.54c-0.25-10.29-1.38-20.5-3.32-30.61c-0.42-2.16-2.75-3.63-4.82-3.67
			c-7.4-0.15-9.59,6.96-10.48,13.01c-1.33,9.05-4.8,17.41-10.69,24.46c-2.1,2.52-1.89,7.77,2.21,8.36
			c15.69,2.25,24.92-11.47,25.68-25.69c0.44-8.33-1.34-16.79-3.16-24.87c-2.02-8.97-3.99-17.91-5.44-26.99
			c-2.83-17.68-4.45-35.52-6.97-53.24c-0.93-6.5-2.55-13.26-8.59-16.89c-5.35-3.21-12.2-3.01-17.35,0.47
			C152.16,91.62,157.16,100.29,162.51,96.67L162.51,96.67z"/>
	</g>
</g>
<g>
	<g>
		<path class="st0" d="M156.21,80.55c3.03,7.78,7.09,14.76,12.36,21.24c4.06,5,11.1-2.12,7.07-7.07c-4.1-5.05-7.43-10.77-9.79-16.83
			C163.54,71.96,153.87,74.54,156.21,80.55L156.21,80.55z"/>
	</g>
</g>
<g>
	<g>
		<path class="st0" d="M151.58,93.71c0,3.33,0,6.66,0,9.99c0,1.66,0,3.33,0,4.99c0,0.67,0,1.33,0,2c-0.3,1.26,0.11,1.41,1.25,0.45
			c-4.91,0.59-10.78-2.82-14.29-5.88c-0.74,2.79-1.47,5.57-2.21,8.36c7.76-2.97,14.52-7.2,20.41-13.09
			c2.63-2.63,1.45-7.41-2.21-8.36c-8.28-2.15-16.69-0.91-23.87,3.79c-3.75,2.45-2.88,7.67,1.19,9.14c5.75,2.07,11.52,4.2,16.53,7.77
			c4.33,3.09,7.96,7.18,11.42,11.19c8.07,9.36,15.75,19.07,23.16,28.97c3.76,5.03,11.85,0.73,8.63-5.05
			c-4.93-8.84-11.68-16.39-18.02-24.22c-5.67-7.01-13.72-16.85-13.22-26.46c-0.49,1.18-0.98,2.36-1.46,3.54
			c-2.22-0.05-2.44,0.4-0.66,1.33c0.55,0.53,1.01,1.11,1.4,1.76c0.82,1.18,1.45,2.48,2.11,3.76c1.91,3.73,3.75,7.49,5.63,11.24
			c3.68,7.36,7.36,14.72,11.05,22.09c3.65,7.3,7.37,14.56,10.94,21.9c3.48,7.14,6.87,14.87,4.7,22.9c3.21,0,6.43,0,9.64,0
			c-5.75-14.89-7.53-29.54-8.03-45.37c-0.25-7.67-2.91-13.24-6.95-19.62c-4.37-6.91-8.74-13.82-13.1-20.72
			c-1.44,2.51-2.88,5.02-4.32,7.52c3.95-0.15,7.81-0.68,11.66-1.6c2.54-0.61,4.31-3.65,3.49-6.15c-1.08-3.31-3.44-5.53-7.02-5.85
			c-4.03-0.35-7.04,2.49-9.67,5.12c-6.48,6.48-12.21,13.71-17.37,21.27c-1.72,2.53-0.07,6.77,2.99,7.34
			c4.99,0.94,11.89-1.18,16.29,1.39c3.66,2.14,5.47,7.32,7.12,10.97c2.5,5.55,4.92,11.14,7.47,16.66c1.99,4.3,4.41,7.93,9.59,7.97
			c2.93,0.02,4.69-2.33,5-5c0.33-2.9,0-5.48-1.02-8.21c-2.23-5.97-11.9-3.39-9.64,2.66c0.75,2,0.91,3.43,0.66,5.55
			c1.67-1.67,3.33-3.33,5-5c0.5,0-2.16-5.69-2.53-6.52c-1.18-2.63-2.36-5.26-3.54-7.89c-2.02-4.51-3.82-9.3-6.63-13.4
			c-2.23-3.25-5.07-6.07-8.78-7.54c-5.39-2.15-10.84-0.25-16.34-1.28c1,2.45,1.99,4.9,2.99,7.34c2.72-3.99,5.59-7.84,8.72-11.52
			c1.51-1.78,3.06-3.51,4.66-5.21c0.8-0.85,1.61-1.69,2.43-2.52c1.74-0.96,1.73-2.18-0.02-3.69c1.16-2.05,2.33-4.1,3.49-6.15
			c-3,0.72-5.92,1.12-9,1.24c-3.64,0.14-6.43,4.19-4.32,7.52c4.19,6.63,8.39,13.26,12.58,19.9c1.9,3.01,4.22,6.04,5.3,9.47
			c1.16,3.67,0.8,7.72,0.86,11.51c0.24,14.53,3.1,28.91,8.34,42.46c1.68,4.35,8.26,5.12,9.64,0c4.68-17.35-7.92-35.04-15.33-49.85
			c-4.12-8.25-8.25-16.49-12.37-24.74c-3.33-6.66-6.29-16.05-12.75-20.5c-6.3-4.34-13.67-1.13-12.8,6.96
			c0.68,6.33,3.62,12.59,6.9,17.97c7.53,12.33,18.56,22.08,25.61,34.73c2.88-1.68,5.76-3.36,8.63-5.05
			c-8.24-11.01-16.73-21.9-25.81-32.24c-3.91-4.45-8.11-8.63-13.04-11.97c-5.55-3.76-11.97-6.06-18.24-8.32
			c0.4,3.05,0.8,6.09,1.19,9.14c4.99-3.26,10.37-4.28,16.17-2.78c-0.74-2.79-1.47-5.57-2.21-8.36c-4.61,4.61-9.89,8.19-16,10.52
			c-3.22,1.23-5.3,5.66-2.21,8.36c5.9,5.14,16.17,10.96,24.33,8.33c3.88-1.25,5.51-4.53,5.76-8.39c0.4-6.13,0.02-12.42,0.02-18.56
			C161.58,87.28,151.58,87.27,151.58,93.71L151.58,93.71z"/>
	</g>
</g>
<g>
	<g>
		<path class="st0" d="M155.71,177.97c3.84,4.06,9.09,5.1,14.16,6.96c6.1,2.23,11.77,5.39,17.12,9.05c4.98,3.41,9.49-3.78,6.06-7.85
			c-9.17-10.89-19.85-20.26-31.74-28.08c-1.28,3.05-2.57,6.09-3.85,9.14c7.43,2.94,14.62,6.35,21.64,10.16
			c4.75,2.58,10.69-4.18,6.06-7.85c-4.52-3.58-9.03-7.15-13.55-10.73c-3.89-3.08-9.49-6.17-11.84-10.63
			c-2.28,2.28-4.56,4.56-6.84,6.84c8.05,4.32,16.09,8.64,24.14,12.96c5.29,2.84,9.45-3.53,6.06-7.85
			c-6.47-8.23-17.52-12.04-22.82-21.2c-2.28,2.28-4.56,4.56-6.84,6.84c6.74,4.34,13.67,8.32,20.81,11.97
			c4.52,2.31,9.14-2.32,6.84-6.84c-4.2-8.23-9.06-16.01-14.64-23.37c-1,2.45-1.99,4.9-2.99,7.34c0.93-0.32,4.43,3.99,5.06,4.72
			c1.83,2.14,3.33,4.48,4.73,6.92c3.2,5.58,11.84,0.55,8.63-5.05c-3.8-6.63-11.93-19.38-21.08-16.23c-2.71,0.93-5.07,4.59-2.99,7.34
			c5.58,7.37,10.45,15.14,14.64,23.37c2.28-2.28,4.56-4.56,6.84-6.84c-7.14-3.64-14.07-7.63-20.81-11.97
			c-4.3-2.77-9.27,2.64-6.84,6.84c5.87,10.14,17.32,14.23,24.38,23.23c2.02-2.62,4.04-5.24,6.06-7.85
			c-8.05-4.32-16.09-8.64-24.14-12.96c-4.47-2.4-9.18,2.39-6.84,6.84c2.61,4.97,7.6,8.06,11.9,11.46
			c5.02,3.97,10.04,7.95,15.05,11.92c2.02-2.62,4.04-5.24,6.06-7.85c-7.78-4.23-15.8-7.91-24.03-11.17
			c-5.5-2.18-8.34,6.18-3.85,9.14c11.19,7.37,21.09,16.27,29.72,26.52c2.02-2.62,4.04-5.24,6.06-7.85c-4.77-3.27-9.78-6.04-15.1-8.3
			c-4.34-1.84-10.85-2.66-14.15-6.14C158.34,166.22,151.28,173.3,155.71,177.97L155.71,177.97z"/>
	</g>
</g>
<g>
	<g>
		<path class="st0" d="M157.34,215.44c5.43,5.36,12.3,7.23,19.73,5.84c3.59-0.67,4.95-6,2.21-8.36c-5.07-4.35-9.68-9.08-13.89-14.27
			c-2.02,2.62-4.04,5.24-6.06,7.85c4.92,3.37,9.62,6.98,14.14,10.88c4.19,3.61,10.75-0.9,7.85-6.06
			c-8.49-15.09-15.59-30.83-21.24-47.2c-3.05,1.28-6.09,2.57-9.14,3.85c5.76,8.16,11.52,16.33,17.27,24.49
			c0.77,1.09,1.54,2.18,2.3,3.27c0.91,2.01,1.31,2.24,1.21,0.69c-0.15,1.04-2.42,2.5-2.21,3.46c4.31-0.16,5.22-0.79,2.73-1.89
			c-0.89-0.56-1.72-1.2-2.47-1.94c-1.53-1.39-2.73-2.97-3.82-4.71c-2.28,2.28-4.56,4.56-6.84,6.84c3.32,2.34,6.72,4.58,10.22,6.65
			c2.9,1.71,6.55,4.52,10.09,3.08c7.64-3.1,0.82-12.59,3.96-17.53c3.46-5.45-5.19-10.47-8.63-5.05c-1.51,2.37-2.16,4.94-2.15,7.76
			c0.01,1.5,0.31,2.99,0.46,4.47c0.12,1.22-0.61,3.68,0.91,2.24c1.62-0.43,3.24-0.86,4.86-1.29c-5-1.17-10.54-6.06-14.67-8.97
			c-4.15-2.92-9.4,2.76-6.84,6.84c2.84,4.52,7.29,9.93,12.6,11.64c5.47,1.76,9-3.12,11.03-7.6c2.8-6.21-3.07-11.56-6.4-16.28
			c-4.99-7.08-9.98-14.15-14.97-21.23c-3.04-4.31-11.12-1.88-9.14,3.85c5.92,17.17,13.34,33.76,22.25,49.58
			c2.62-2.02,5.24-4.04,7.85-6.06c-5.16-4.45-10.54-8.6-16.17-12.44c-5.03-3.44-9.37,3.77-6.06,7.85
			c4.21,5.19,8.82,9.92,13.89,14.27c0.74-2.79,1.47-5.57,2.21-8.36c-3.86,0.72-7.26-0.56-10-3.27
			C159.83,203.84,152.75,210.91,157.34,215.44L157.34,215.44z"/>
	</g>
</g>
<g>
	<g>
		<path class="st0" d="M187.32,193.79c-0.31-0.73-0.51-1.47-0.61-2.25c0.06,0.44,0.12,0.89,0.18,1.33c-0.04-0.43-0.06-0.86-0.04-1.3
			c0.08-2.62-2.36-5.12-5-5c-2.78,0.12-4.91,2.2-5,5c-0.05,1.63,0.2,3.36,0.84,4.87c0.53,1.26,1.07,2.27,2.3,2.99
			c1.07,0.63,2.65,0.89,3.85,0.5c1.21-0.39,2.38-1.14,2.99-2.3C187.4,196.55,187.83,195,187.32,193.79L187.32,193.79z"/>
	</g>
</g>
<g>
	<g>
		<path class="st0" d="M152.21,196.9c6.43,0,6.45-10,0-10C145.77,186.9,145.76,196.9,152.21,196.9L152.21,196.9z"/>
	</g>
</g>
<g>
	<g>
		<path class="st0" d="M283.06,210.96c12.07-0.86,25.32-2,36.1,4.6c11.42,7,11.99,19.89,7.85,31.5
			c-3.69,10.34-13.13,19.79-5.43,30.53c6.16,8.6,16.59,12.1,26.79,10.56c-0.89-3.21-1.77-6.43-2.66-9.64
			c-5.41,1.88-9.94-1.4-12.91-5.79c-2.69-3.97-6.27-10.16-5.93-15.08c0.34-5,4.93-9.44,6.69-14.07c1.7-4.47,2.24-9.38,1.49-14.1
			c-1.59-9.97-9.25-15.84-18.06-19.49c-10.16-4.21-20.89-7.97-31.96-5.71c-6.3,1.29-3.63,10.93,2.66,9.64
			c5.99-1.22,11.81,0.36,17.47,2.28c4.81,1.63,9.99,3.25,14.22,6.15c4.76,3.27,6.75,8.42,5.83,14.09c-0.83,5.1-4.14,8.84-6.29,13.36
			c-4.43,9.33-0.1,19.89,5.26,27.96c5.29,7.98,14.48,13.76,24.21,10.38c6.2-2.15,3.62-10.59-2.66-9.64
			c-4.99,0.75-10.24-0.98-13.93-4.38c-2.16-1.98-3.92-4.24-3.1-7.19c0.72-2.6,2.72-5.26,3.9-7.7c5.06-10.51,8.94-22.24,5.87-33.94
			c-6.4-24.42-34.94-25.8-55.4-24.34C276.67,201.42,276.62,211.42,283.06,210.96L283.06,210.96z"/>
	</g>
</g>
<g>
	<g>
		<path class="st0" d="M112.52,188.46c-6.02-3.98-12.35-8.05-19.6-9.25c-6.81-1.12-13.07,1.1-19.59,2.67
			c-8.59,2.07-15.87,0.6-21.87-6.09c-5.25-5.84-7.64-13.34-9.33-20.86c-3.01-13.32-4.64-28.13-15.42-37.82
			c-2.05-1.84-4.31-3.38-6.83-4.5c-2.81-1.25-6.64-1.05-9.24-2.55c-3.97-2.29-3.12-8.68-1.53-12.05c1.75-3.69,4.87-6.35,8.74-7.61
			c-0.94-0.38-1.88-0.77-2.82-1.15c2.29,3.13-1.97,5.87-1.85,9.29c0.07,1.97,1.2,3.89,2.63,5.2c2.42,2.21,5.6,2.54,8.57,3.52
			c3.02,1,5.62,2.69,7.87,4.93c10.04,10.02,12.92,27.22,17.05,40.2c1.91,5.99,3.62,12.49,8.12,17.14c3.82,3.96,9.03,5.7,14.39,6.29
			c11.89,1.3,28.44-4.83,37.2,6.16c2.01,2.52,5.52-1.04,3.54-3.54c-7.56-9.48-20.41-8.12-31.19-7.51c-6.7,0.38-14.6,0.5-19.85-4.38
			c-5.69-5.29-7.2-14.96-9.46-22.06c-3.76-11.82-6.77-25.41-15.33-34.88c-4.06-4.49-8.66-6.24-14.25-8.07
			c-2.86-0.94-4.36-2.47-3.02-5.5c0.54-1.22,1.11-1.62,1.41-2.95c0.52-2.3-0.13-4.54-1.49-6.4c-0.64-0.87-1.7-1.51-2.82-1.15
			c-6.22,2.03-11.1,6.73-12.98,13.09c-1.59,5.37-0.74,12.67,4.58,15.71c3.19,1.82,7.16,1.48,10.49,3.13
			c3.81,1.89,6.87,5.04,9.23,8.53c5.01,7.4,6.61,16.25,8.35,24.85c2.83,14.02,7.75,31.04,23.05,36.05
			c8.12,2.66,15.83-0.76,23.75-2.38c10.42-2.13,18.63,2.67,27.03,8.22C112.69,194.55,115.2,190.22,112.52,188.46L112.52,188.46z"/>
	</g>
</g>
<g>
	<g>
		<path class="st0" d="M133.25,201.49c3.12-0.11,6.03,0.43,8.92,1.61c1.26,0.51,2.73-0.56,3.08-1.75c0.41-1.43-0.5-2.57-1.75-3.08
			c-3.26-1.33-6.73-1.91-10.25-1.79C130.05,196.61,130.03,201.61,133.25,201.49L133.25,201.49z"/>
	</g>
</g>
<g>
	<g>
		<path class="st0" d="M132.69,190.79c2.25,0,4.51,0,6.76,0c3.22,0,3.22-5,0-5c-2.25,0-4.51,0-6.76,0
			C129.47,185.79,129.47,190.79,132.69,190.79L132.69,190.79z"/>
	</g>
</g>
<g>
	<g>
		<path class="st0" d="M110.3,182.26c1.51,0.92,3.16,1.38,4.91,1.52c1.31,0.1,2.56-1.22,2.5-2.5c-0.06-1.44-1.1-2.39-2.5-2.5
			c-0.3-0.03-0.32-0.03-0.06,0.01c-0.16-0.03-0.32-0.06-0.48-0.09c-0.24-0.05-0.47-0.12-0.7-0.19c-0.03-0.01-0.72-0.29-0.3-0.1
			c-0.29-0.14-0.57-0.3-0.85-0.46c-1.12-0.68-2.8-0.28-3.42,0.9C108.76,180.06,109.1,181.53,110.3,182.26L110.3,182.26z"/>
	</g>
</g>
<g>
</g>
<g>
</g>
<g>
</g>
<g>
</g>
<g>
</g>
<g>
</g>
</svg>
