<?xml version="1.0" encoding="utf-8"?>
<!-- Generator: Adobe Illustrator 21.0.2, SVG Export Plug-In . SVG Version: 6.00 Build 0)  -->
<svg version="1.1" id="cat_7" xmlns="http://www.w3.org/2000/svg" xmlns:xlink="http://www.w3.org/1999/xlink" x="0px" y="0px"
	 viewBox="0 0 327.98 303.66" style="enable-background:new 0 0 327.98 303.66;" xml:space="preserve">
<title>cat holding a valentine</title>
<style type="text/css">
</style>
<g>
	<g>
		<path class="st0" d="M112,22.2c-3.19,19.85-6.19,44.68,11.04,59.36c7.72,6.58,18.07,9.7,27.85,11.65
			c8.57,1.71,17.44,2.34,26.09,0.87c8.6-1.46,16.83-5.41,22.57-12.09c6.55-7.62,9.61-17.48,11.61-27.16
			c2.4-11.64,3.21-23.61,2.32-35.46c-0.51-6.74-1.81-17.32-10.86-11.32c-4.33,2.87-6.77,6.82-10.23,10.46
			c-3.14,3.31-6.72,1.53-10.51,0.48c-3.37-0.93-6.81-1.59-10.28-2.04c-12.07-1.58-24.28-0.19-35.75,3.83
			c0.81,0.21,1.62,0.43,2.43,0.64c-3.54-4.2-7.01-8.48-10.63-12.62c-1.88-2.16-4.48-4.73-7.66-3.63c-2.57,0.89-3.49,3.71-4.35,6.01
			c-1.91,5.12-3.2,10.41-4.06,15.8c-0.5,3.15,4.32,4.5,4.82,1.33c0.48-2.99,1.05-5.96,1.84-8.88c0.32-1.2,1.84-8.55,3.08-9.04
			c2.32-0.91,11.89,12.74,13.43,14.56c0.53,0.63,1.66,0.91,2.43,0.64c9.2-3.23,18.79-4.73,28.54-4.21c4.73,0.25,9.41,1,13.99,2.2
			c3.57,0.93,7.48,2.98,11.23,2.06c2.67-0.65,4.19-2.5,5.77-4.62c1.6-2.15,7.37-10.38,10.36-9.08c2.24,0.97,1.69,11.67,1.74,14.03
			c0.11,5.04-0.07,10.09-0.57,15.11c-1.77,17.66-6.43,39.36-25.09,46.22c-15,5.51-34.5,2.31-48.67-4.39
			c-23.38-11.06-21.12-37.87-17.65-59.4C117.33,20.38,112.51,19.03,112,22.2L112,22.2z"/>
	</g>
</g>
<g>
	<g>
		<path class="st0" d="M200.15,28.63c1.19-1.2,2.37-2.41,3.56-3.61c-1.39-0.37-2.79-0.74-4.18-1.1c0.35,1.62,0.39,3.25,0.23,4.9
			c-0.13,1.35,1.24,2.5,2.5,2.5c1.46,0,2.37-1.15,2.5-2.5c0.21-2.09,0.04-4.17-0.4-6.23c-0.4-1.86-2.91-2.39-4.18-1.1
			c-1.19,1.2-2.37,2.41-3.56,3.61C194.36,27.39,197.89,30.92,200.15,28.63L200.15,28.63z"/>
	</g>
</g>
<g>
	<g>
		<path class="st0" d="M123.23,27.51c0.31-2.07,1-3.87,2.17-5.6c-1.31,0.17-2.62,0.34-3.93,0.51c1.34,1.27,2.68,2.53,4.02,3.8
			c2.34,2.21,5.88-1.32,3.54-3.54c-1.34-1.27-2.68-2.53-4.02-3.8c-1.23-1.16-3.01-0.84-3.93,0.51c-1.38,2.04-2.31,4.36-2.68,6.8
			c-0.2,1.33,0.34,2.69,1.75,3.08C121.33,29.58,123.02,28.85,123.23,27.51L123.23,27.51z"/>
	</g>
</g>
<g>
	<g>
		<path class="st0" d="M133.47,49.96c0.87-1.79,2.06-3.26,3.86-4.2c1.61-0.84,4.99-1.43,4.94,1.38c-0.06,3.22,4.94,3.22,5,0
			c0.08-4.35-3.72-7.38-7.93-7.1c-4.41,0.29-8.32,3.52-10.2,7.39C127.76,50.32,132.07,52.86,133.47,49.96L133.47,49.96z"/>
	</g>
</g>
<g>
	<g>
		<path class="st0" d="M134.39,46.7c-0.13,0.26-0.26,0.52-0.39,0.78c-0.59,1.17-0.35,2.76,0.9,3.42c1.14,0.6,2.79,0.35,3.42-0.9
			c0.13-0.26,0.26-0.52,0.39-0.78c0.59-1.17,0.35-2.76-0.9-3.42C136.68,45.21,135.02,45.45,134.39,46.7L134.39,46.7z"/>
	</g>
</g>
<g>
	<g>
		<path class="st0" d="M174.53,49.17c1.56-1.5,3.38-2.64,5.51-3.13c2.39-0.54,2.93,0.4,3.55,2.61c0.87,3.09,5.69,1.78,4.82-1.33
			c-0.91-3.25-2.67-6.47-6.46-6.55c-4.08-0.09-8.1,2.1-10.96,4.85C168.67,47.88,172.21,51.41,174.53,49.17L174.53,49.17z"/>
	</g>
</g>
<g>
	<g>
		<path class="st0" d="M176.87,50.09c3.22,0,3.22-5,0-5C173.66,45.09,173.65,50.09,176.87,50.09L176.87,50.09z"/>
	</g>
</g>
<g>
	<g>
		<path class="st0" d="M178.05,50.48c3.22,0,3.22-5,0-5C174.83,45.48,174.82,50.48,178.05,50.48L178.05,50.48z"/>
	</g>
</g>
<g>
	<g>
		<path class="st0" d="M156.54,59.52c1-0.02,2-0.05,3-0.07c0.75-0.02,1.88-0.25,2.6-0.02c-0.37-0.21-0.74-0.43-1.1-0.64
			c-0.03-0.03-0.06-0.06-0.09-0.09c-0.11-0.42-0.23-0.84-0.34-1.26c0.09,0.76,0,0.16,0.01,0.15c-0.33,0.28-0.57,0.99-0.79,1.37
			c-0.5,0.84-1.02,1.67-1.54,2.49c1.44,0,2.88,0,4.32,0c-1.24-1.7-2.47-3.39-3.71-5.09c-0.79-1.09-2.17-1.63-3.42-0.9
			c-1.08,0.63-1.7,2.32-0.9,3.42c1.24,1.7,2.47,3.39,3.71,5.09c1.11,1.52,3.24,1.69,4.32,0c1.32-2.05,4.02-5.22,2.66-7.79
			c-0.77-1.46-2.18-1.8-3.72-1.77c-1.67,0.03-3.33,0.08-5,0.12C153.33,54.59,153.31,59.6,156.54,59.52L156.54,59.52z"/>
	</g>
</g>
<g>
	<g>
		<path class="st0" d="M157.31,63.6c0.79,6.41,3.53,13.34,10.42,15.16c5.85,1.55,11.29-2.22,12.04-8.12c0.41-3.18-4.6-3.15-5,0
			c-0.53,4.15-5.53,3.98-8.12,2.09c-2.89-2.11-3.92-5.74-4.34-9.13C161.92,60.44,156.92,60.4,157.31,63.6L157.31,63.6z"/>
	</g>
</g>
<g>
	<g>
		<path class="st0" d="M156.99,65.54c1.26,5.15-5.36,8.9-8.76,4.45c-1.93-2.52-6.27-0.04-4.32,2.52c2.92,3.82,7.97,5.67,12.52,3.55
			c4.47-2.08,6.52-7.19,5.37-11.85C161.05,61.09,156.22,62.41,156.99,65.54L156.99,65.54z"/>
	</g>
</g>
<g>
	<g>
		<path class="st0" d="M136.16,91.01c-20.23,3.41-40.73,4.9-61.24,4.34c-8.87-0.24-17.93-1.86-26.78-1.65
			c-4.72,0.11-10.49,1.52-11.93,6.69c-1.88,6.76,4.76,11.14,10.49,12.13c9.03,1.57,18.52,1.65,27.65,2.41
			c20.26,1.68,40.52,3.36,60.78,5.03c-0.83-0.83-1.67-1.67-2.5-2.5c3.77,42.59-0.86,85.4-11.02,126.84
			c-2.56,10.44-5.61,20.71-8.63,31.01c-1.61,5.48-3.17,12.81,1.21,17.48c4.54,4.84,12.1,3.41,16.97-0.12
			c6.08-4.4,9.18-11.7,12-18.38c9.57-22.61,18.67-45.42,27.36-68.38c-1.52,0.2-3.05,0.4-4.57,0.6c9.69,15.2,6.78,34.07,7.39,51.19
			c0.34,9.56,1.01,19.52,3.1,28.88c1.28,5.73,4.54,11.77,10.97,12.61c5.69,0.75,9.45-3.63,10.94-8.64
			c2.56-8.58,2.28-18.62,2.92-27.5c1.45-20.24,1.99-40.54,1.73-60.83c-0.04-3.21-5.04-3.22-5,0c0.22,17.02-0.12,34.04-1.1,51.03
			c-0.49,8.49-1.13,16.98-1.92,25.45c-0.35,3.78-0.41,7.87-1.79,11.45c-2.11,5.45-7.64,4.77-10.25,0.11
			c-1.66-2.97-2.02-6.61-2.52-9.91c-0.75-4.93-1.29-9.89-1.66-14.86c-0.57-7.79-0.54-15.57-0.54-23.37
			c0-13.19-0.68-26.71-7.97-38.14c-1.22-1.92-3.81-1.4-4.57,0.6c-6.76,17.84-13.76,35.58-21.03,53.22
			c-3.36,8.15-6.25,16.9-10.88,24.43c-1.83,2.97-4.15,5.88-7.32,7.5c-5.04,2.56-10.09,0.5-10.12-5.38
			c-0.04-7.93,4.15-16.49,6.25-24.05c2.44-8.83,4.65-17.72,6.61-26.67c3.88-17.78,6.73-35.8,8.33-53.93
			c1.83-20.71,1.92-41.52,0.08-62.23c-0.13-1.43-1.05-2.38-2.5-2.5c-16.34-1.35-32.67-2.71-49.01-4.06
			c-8.5-0.7-16.99-1.41-25.49-2.11c-3.84-0.32-7.71-0.49-11.53-0.97c-2.34-0.29-6.42-0.89-7.61-3.46c-1.59-3.45,0.78-4.64,3.21-5.26
			c6.35-1.63,14.09,0.45,20.52,0.82c8.08,0.47,16.18,0.63,24.27,0.47c16.1-0.31,32.13-1.9,48-4.57
			C140.65,95.29,139.31,90.47,136.16,91.01L136.16,91.01z"/>
	</g>
</g>
<g>
	<g>
		<path class="st0" d="M190.95,97.85c18.98,21.09,36.94,43.08,53.7,65.98c1.95,2.67,3.92,5.34,5.6,8.18
			c0.8,1.36,1.56,2.75,2.14,4.22c0.96,2.47,1.89,3.76-1.23,4.44c-2.57,0.56-2.56,0.11-4.11-1.56c-1.23-1.33-2.4-2.73-3.62-4.07
			c-2.24-2.47-4.52-4.89-6.85-7.27c-9.26-9.46-19.24-18.15-29.77-26.18c-2.56-1.95-5.05,2.39-2.52,4.32
			c13.81,10.55,26.44,22.43,38.03,35.37c3.17,3.54,8.11,8.66,13.15,5c3.7-2.69,3.1-7.99,1.65-11.71
			c-2.89-7.38-8.51-13.8-13.21-20.08c-5.02-6.71-10.14-13.35-15.35-19.91c-10.94-13.77-22.32-27.19-34.09-40.26
			C192.32,91.92,188.8,95.46,190.95,97.85L190.95,97.85z"/>
	</g>
</g>
<g>
	<g>
		<path class="st0" d="M206.98,140.26c-2.1-1.78-4.25-3.71-7.12-3.07c-0.86,0.19-1.5,0.94-1.75,1.75
			c-1.34,4.39-0.53,10.04-0.56,14.63c-0.03,5.95-0.02,11.89,0.03,17.84c0.1,11.56,0.38,23.12,0.8,34.68c0.12,3.21,5.12,3.22,5,0
			c-0.4-10.9-0.67-21.79-0.78-32.7c-0.06-5.29-0.08-10.57-0.07-15.86c0.01-5.2-1.13-12.28,0.39-17.27
			c-0.58,0.58-1.16,1.16-1.75,1.75c0.75,0.6,1.5,1.2,2.25,1.79C205.88,145.87,209.43,142.35,206.98,140.26L206.98,140.26z"/>
	</g>
</g>
<g>
	<g>
		<path class="st0" d="M202.91,198.41c15.45-2.69,23.75,14.22,28.97,25.69c5.03,11.05,11,20.79,21.02,27.98
			c3.85,2.76,8.36,5.62,13.29,5.36c5.88-0.31,10.38-5.35,16.22-5.48c6.77-0.15,12.22,6.17,16.49,10.64
			c5.2,5.44,10.25,10.97,14.4,17.28c1.76,2.68,6.09,0.18,4.32-2.52c-4.05-6.16-8.88-11.66-13.95-17
			c-4.25-4.48-8.67-9.42-14.46-11.91c-5.21-2.24-10-1.51-15.01,0.82c-3.5,1.63-6.8,3.87-10.86,2.89c-3.48-0.84-7.14-3.67-9.89-5.89
			c-11.74-9.5-15.37-23.05-22.62-35.62c-6.05-10.48-16.5-19.27-29.25-17.06C198.42,194.14,199.76,198.96,202.91,198.41
			L202.91,198.41z"/>
	</g>
</g>
<g>
	<g>
		<path class="st0" d="M201.93,208.31c11.01-1.83,15.91,11.21,19.55,19.1c3.5,7.59,7.14,15.19,12.15,21.92
			c8.36,11.23,21.65,20.08,36.24,18.02c3.24-0.46,6.22-1.51,9.11-3.04c2.7-1.43,4.97-2.92,8.07-1.31c2.03,1.05,3.69,2.81,5.33,4.37
			c2.92,2.76,5.87,5.62,8.14,8.96c2.57,3.79,3.18,8.08,5.14,12.11c2.27,4.67,8.07,8.68,12.94,4.95c5.7-4.36,2.58-11.75-0.55-16.56
			c-1.75-2.69-6.08-0.19-4.32,2.52c1.37,2.1,3.28,4.6,3.09,7.26c-0.21,0.7-0.42,1.4-0.62,2.1c-3.75,0.63-5.95-0.64-6.61-3.8
			c-1.32-3.35-2.03-6.67-3.91-9.78c-3.3-5.45-8.24-10.36-13.17-14.36c-4.92-3.99-9.35-4.46-14.82-1.51
			c-6.85,3.69-13.75,4.27-21.18,1.75c-15.24-5.17-23.27-20.14-29.66-33.83c-5.15-11.03-11.32-26.18-26.26-23.69
			C197.43,204.02,198.77,208.84,201.93,208.31L201.93,208.31z"/>
	</g>
</g>
<g>
	<g>
		<path class="st0" d="M206.52,60.71c9.18-0.71,17.9-3.01,26.24-6.91c2.91-1.36,0.38-5.67-2.52-4.32
			c-7.52,3.51-15.44,5.59-23.72,6.23C203.33,55.96,203.3,60.96,206.52,60.71L206.52,60.71z"/>
	</g>
</g>
<g>
	<g>
		<path class="st0" d="M202.09,65.94c5.06,7.83,12.66,13.33,21.73,15.54c3.13,0.76,4.46-4.06,1.33-4.82
			c-7.8-1.91-14.37-6.48-18.74-13.25C204.67,60.72,200.34,63.22,202.09,65.94L202.09,65.94z"/>
	</g>
</g>
<g>
	<g>
		<path class="st0" d="M208.43,65.66c6.19,0.45,12.39,0.9,18.58,1.34c3.21,0.23,3.2-4.77,0-5c-6.19-0.45-12.39-0.9-18.58-1.34
			C205.22,60.43,205.24,65.43,208.43,65.66L208.43,65.66z"/>
	</g>
</g>
<g>
	<g>
		<path class="st0" d="M112.25,52.13c-6.1-1.57-11.62-4.33-16.45-8.38c-2.45-2.05-6.01,1.46-3.54,3.54
			c5.49,4.6,11.71,7.88,18.66,9.66C114.04,57.76,115.37,52.94,112.25,52.13L112.25,52.13z"/>
	</g>
</g>
<g>
	<g>
		<path class="st0" d="M111.65,59.49c-7.57-0.9-14.84,0.32-21.82,3.32c-2.95,1.26-0.4,5.57,2.52,4.32
			c6.16-2.64,12.67-3.42,19.3-2.63C114.84,64.87,114.82,59.86,111.65,59.49L111.65,59.49z"/>
	</g>
</g>
<g>
	<g>
		<path class="st0" d="M112.91,63.81c-2.97,3.26-6.31,6.02-10.09,8.28c-2.76,1.65-0.25,5.97,2.52,4.32
			c4.13-2.47,7.87-5.51,11.11-9.06C118.6,64.97,115.08,61.42,112.91,63.81L112.91,63.81z"/>
	</g>
</g>
<g>
	<g>
		<path class="st0" d="M23.97,64.44c-4.9-1.93-14.03-4.78-18.82-0.98C0.75,66.95,2.34,73.96,4.91,78
			c3.85,6.05,10.79,9.01,16.94,12.11c3.89,1.96,7.75,3.97,11.66,5.89c2.04,1,3.97,2.19,6.09,0.67c2.09-1.49,2.66-5.06,3.33-7.3
			c1.19-3.98,2.06-8.04,2.65-12.16c0.94-6.61,2.11-14.95-0.62-21.33c-2.05-4.8-6.5-7.58-11.6-5.26
			c-6.11,2.77-8.97,11.29-11.09,17.08c-1.11,3.03,3.72,4.33,4.82,1.33c1.45-3.97,3.33-9.63,6.61-12.63
			c6.46-5.89,7.77,5.62,7.76,9.33c0,4.74-0.49,9.51-1.37,14.16c-0.48,2.53-1.13,10.03-3.44,11.3c-1.97,1.08-8.25-3.37-10.61-4.57
			c-3.63-1.83-7.44-3.51-10.87-5.72c-3.28-2.11-8.55-6.42-7.76-11.01c1.08-6.2,12.24-1.83,15.23-0.65
			C25.63,70.45,26.93,65.61,23.97,64.44L23.97,64.44z"/>
	</g>
</g>
<g>
	<g>
		<path class="st0" d="M165.23,126.62c0.93-5.51-4.15-9.83-9.34-10.78c-5.76-1.06-8.81,4.06-9.51,9.05
			c-1.2,8.47,1.59,17.05,4.79,24.77c3.63,8.78,7.7,17.4,11.58,26.07c0.79,1.76,3.46,1.5,4.32,0c4.27-7.48,8.11-15.17,11.45-23.1
			c3.04-7.23,7.4-15.84,7.93-23.72c0.42-6.17-4.08-10.82-9.94-12.33c-6.95-1.79-11.16,7.92-13.81,12.64
			c-1.58,2.81,2.74,5.33,4.32,2.52c1.33-2.37,2.73-4.71,4.31-6.92c1.35-1.88,2.31-3.59,4.93-2.97c0.79,0.19,1.88,0.89,2.55,1.36
			c5.59,3.89,0.37,13.86-1.48,18.9c-3.96,10.78-8.88,21.14-14.58,31.1c1.44,0,2.88,0,4.32,0c-4.32-9.65-9.15-19.23-12.76-29.16
			c-1.77-4.87-3.21-10-3.18-15.22c0.01-1.8-0.16-5.53,1.37-6.95c1.82-1.7,8.47,0.1,7.91,3.41
			C159.88,128.43,164.7,129.79,165.23,126.62L165.23,126.62z"/>
	</g>
</g>
<g>
	<g>
		<path class="st0" d="M152.11,124.1c0.92,5.04,3.49,9.58,7.3,13.01c1.32,1.19,3.74,0.83,4.18-1.1c1.36-6.02-1.5-12.47-7.19-15.11
			c-2.9-1.35-5.44,2.96-2.52,4.32c3.61,1.68,5.79,5.49,4.89,9.46c1.39-0.37,2.79-0.74,4.18-1.1c-3.24-2.91-5.22-6.52-6.01-10.8
			C156.35,119.61,151.53,120.95,152.11,124.1L152.11,124.1z"/>
	</g>
</g>
<g>
	<g>
		<path class="st0" d="M149.13,123.42c-1.37,9.34,1.01,18.09,6.98,25.41c2.03,2.5,5.55-1.06,3.54-3.54
			c-4.71-5.78-6.78-13.16-5.69-20.55C154.41,121.61,149.6,120.25,149.13,123.42L149.13,123.42z"/>
	</g>
</g>
<g>
	<g>
		<path class="st0" d="M151.51,121.28c-1.6,7.45,1.48,13.69,4.44,20.35c3.73,8.4,5.78,17.23,7.71,26.18
			c1.52-0.64,3.05-1.28,4.57-1.93c-2.6-4.96-3.4-10.72-6.34-15.52c-1.78-2.91-4.44-4.83-3.32-8.71c0.46-1.58,3.42-7.04,5.14-6.48
			c-0.58-0.58-1.16-1.16-1.75-1.75c1.42,3.94,0.7,9.69,0.6,13.81c1.64-0.22,3.27-0.44,4.91-0.66c-0.5-2.24-1.01-4.5-1.94-6.61
			c-1.28-2.9-3.3-4.79-3.45-8.1c-0.18-4.11,0.43-7.3-2.33-10.66c-2.04-2.49-5.56,1.06-3.54,3.54c2.3,2.81,0.31,8.17,1.52,11.54
			c0.56,1.55,1.62,2.72,2.42,4.14c1.32,2.32,1.9,4.9,2.48,7.49c0.63,2.81,4.84,2.09,4.91-0.66c0.1-4.2,0.58-9.22-0.29-13.35
			c-0.33-1.6-0.69-2.86-2.24-3.53c-3.95-1.72-8.02,3.49-9.61,6.37c-2.6,4.68-3.42,8.5-0.16,13.05c4.17,5.81,5.36,12.4,8.63,18.64
			c1.37,2.61,5.15,0.75,4.57-1.93c-1.58-7.32-3.16-14.68-5.82-21.69c-2.67-7.05-8.02-14.32-6.33-22.18
			C157,119.48,152.18,118.13,151.51,121.28L151.51,121.28z"/>
	</g>
</g>
<g>
	<g>
		<path class="st0" d="M167.89,161.78c1.67-8.16,4.82-15.75,8.37-23.26c2-4.23,5.51-9.8,2.05-14.26c-2.48-3.2-6.31-2.58-8.04,0.8
			c-3.37,6.62-5.25,14.6-7.75,21.61c1.64,0.22,3.27,0.44,4.91,0.66c-0.04-5.3,0.56-13.22,3.58-17.86c1.24-1.91,6.2-6.01,7.69-2.8
			c0.79,1.69-0.96,6.9-1.33,8.72c-2.24,10.85-6.55,21.03-12.54,30.33c1.55,0.42,3.11,0.84,4.66,1.26c0.89-7.29,2.64-14.45,5.3-21.29
			c1.62-4.16,6.52-10.64,2.66-14.91c-2.71-3.01-6.45-1.76-8.14,1.53c-3.31,6.47-4.77,14.67-6.98,21.59
			c1.64,0.22,3.27,0.44,4.91,0.66c-0.08-4.35,0.78-8.39,2.26-12.48c0.86-2.35,3.13-10.2,5.94-11.22c3-1.09,1.71-5.92-1.33-4.82
			c-4.84,1.75-6.35,7.16-8.2,11.57c-2.28,5.47-3.78,10.99-3.68,16.95c0.05,2.85,4.05,3.35,4.91,0.66c1.56-4.88,3.11-9.75,4.67-14.63
			c0.33-1.03,3.11-8.91,1.18-3.23c-0.58,1.72-1.57,3.39-2.26,5.07c-3.26,7.88-5.23,16.09-6.25,24.54c-0.32,2.64,3.45,3.15,4.66,1.26
			c4.8-7.45,8.6-15.49,11.15-24c1.32-4.42,2.28-8.92,2.92-13.49c0.35-2.5,1.16-5.61-0.19-7.95c-2.94-5.1-11.1-1.54-14.23,1.51
			c-5.48,5.35-6.43,15.78-6.37,23c0.02,2.92,3.98,3.26,4.91,0.66c1.67-4.67,3.33-9.34,5-14.01c0.28-0.79,1.23-4.74,1.87-5.25
			c0.59,1.4,0.35,2.73-0.71,3.97c-0.53,1.09-1.05,2.19-1.57,3.28c-3.73,7.88-7.12,15.88-8.88,24.45
			C162.43,163.59,167.25,164.93,167.89,161.78L167.89,161.78z"/>
	</g>
</g>
<g>
	<g>
		<path class="st0" d="M204.3,200c0.08,0.39,0.09,0.55,0.13,0.86c0.09,0.69,0.01-0.15-0.03,0.53c0.03-0.09,0.08-0.16,0.16-0.22
			c-0.19,0.19-0.23,0.22-0.12,0.11c0.48-0.23,0.79-0.47,1.4,0.2c0.03,0.04,0.24,0.49,0.22,0.48c-0.01-0.16-0.01-0.33,0.01-0.49
			c-0.01,0.23,0.01,0.18,0.06-0.16c0.23-0.78,0.37-1.62,0.36-2.43c-0.02-1.35-1.14-2.5-2.5-2.5c-1.34,0-2.52,1.14-2.5,2.5
			c0.01,0.43-0.19,1.06-0.3,1.69c-0.15,0.85-0.2,1.69,0.03,2.54c0.44,1.65,1.9,2.99,3.67,2.99c1.6,0,3.07-0.92,3.88-2.27
			c0.94-1.56,0.68-3.45,0.35-5.14c-0.26-1.33-1.85-2.08-3.08-1.75C204.66,197.31,204.05,198.67,204.3,200L204.3,200z"/>
	</g>
</g>
<g>
	<g>
		<path class="st0" d="M218.37,212.69c1.43-2.16,2.85-4.32,4.28-6.49c1.78-2.69-2.55-5.2-4.32-2.52c-1.43,2.16-2.85,4.32-4.28,6.49
			C212.27,212.86,216.6,215.36,218.37,212.69L218.37,212.69z"/>
	</g>
</g>
<g>
	<g>
		<path class="st0" d="M220.9,213.24c0.18-1.41,1.08-2.67,2.16-3.6c1.02-0.88,0.91-2.63,0-3.54c-1.01-1.01-2.51-0.88-3.54,0
			c-2.15,1.85-3.26,4.37-3.62,7.14c-0.17,1.34,1.27,2.5,2.5,2.5C219.89,215.74,220.72,214.59,220.9,213.24L220.9,213.24z"/>
	</g>
</g>
<g>
	<g>
		<path class="st0" d="M224.15,224.72c3.44,0.4,6.65-1.36,8.59-4.14c0.77-1.11,0.2-2.78-0.9-3.42c-1.25-0.73-2.65-0.21-3.42,0.9
			c-0.98,1.41-2.64,1.85-4.27,1.66c-1.34-0.15-2.5,1.26-2.5,2.5C221.65,223.7,222.8,224.56,224.15,224.72L224.15,224.72z"/>
	</g>
</g>
<g>
	<g>
		<path class="st0" d="M223.53,228.83c3.26,1.07,6.73-0.35,8.6-3.14c0.75-1.12,0.22-2.77-0.9-3.42c-1.23-0.72-2.67-0.23-3.42,0.9
			c-0.68,1.01-1.92,1.18-2.96,0.84C221.79,223,220.48,227.82,223.53,228.83L223.53,228.83z"/>
	</g>
</g>
<g>
	<g>
		<path class="st0" d="M233.1,243.1c2.9-0.58,5.58-2.16,7.47-4.44c0.86-1.04,1.02-2.52,0-3.54c-0.89-0.89-2.67-1.04-3.54,0
			c-1.4,1.69-3.11,2.72-5.27,3.15c-1.33,0.26-2.09,1.84-1.75,3.08C230.4,242.74,231.77,243.36,233.1,243.1L233.1,243.1z"/>
	</g>
</g>
<g>
	<g>
		<path class="st0" d="M234.93,246.75c3.25-0.16,5.88-2.17,6.99-5.21c0.46-1.27-0.52-2.74-1.75-3.08c-1.39-0.38-2.61,0.47-3.08,1.75
			c0.09-0.24-0.01,0.04-0.06,0.13c0,0.01-0.33,0.52-0.24,0.4c0.09-0.12-0.2,0.21-0.23,0.24c-0.04,0.04-0.44,0.38-0.2,0.2
			c-0.14,0.1-0.3,0.19-0.45,0.28c-0.08,0.05-0.36,0.18-0.12,0.08c-0.2,0.08-0.42,0.14-0.63,0.18c-0.43,0.1,0.53-0.02-0.25,0.02
			c-1.35,0.06-2.5,1.1-2.5,2.5C232.43,245.55,233.57,246.81,234.93,246.75L234.93,246.75z"/>
	</g>
</g>
<g>
	<g>
		<path class="st0" d="M248.31,256.61c0.51-1.73,1.7-2.96,3.38-3.72c1.23-0.56,1.53-2.34,0.9-3.42c-0.74-1.26-2.19-1.46-3.42-0.9
			c-2.78,1.27-4.82,3.8-5.68,6.71C242.58,258.38,247.41,259.7,248.31,256.61L248.31,256.61z"/>
	</g>
</g>
<g>
	<g>
		<path class="st0" d="M249.64,259.94c1.84-1.6,3.4-3.49,4.68-5.56c1.7-2.74-2.63-5.26-4.32-2.52c-1.07,1.73-2.37,3.21-3.9,4.54
			c-1.02,0.89-0.91,2.63,0,3.54C247.12,260.95,248.62,260.82,249.64,259.94L249.64,259.94z"/>
	</g>
</g>
<g>
	<g>
		<path class="st0" d="M264.36,262.46c-0.09-1.53,0.14-2.91,0.7-4.34c0.49-1.26-0.54-2.74-1.75-3.08c-1.41-0.39-2.58,0.48-3.08,1.75
			c-0.7,1.79-0.99,3.75-0.88,5.67c0.08,1.35,1.09,2.5,2.5,2.5C263.16,264.96,264.44,263.82,264.36,262.46L264.36,262.46z"/>
	</g>
</g>
<g>
	<g>
		<path class="st0" d="M267.96,262.82c0-1.92,0-3.83,0-5.75c0-3.22-5-3.22-5,0c0,1.92,0,3.83,0,5.75
			C262.96,266.04,267.96,266.04,267.96,262.82L267.96,262.82z"/>
	</g>
</g>
<g>
	<g>
		<path class="st0" d="M282.88,259.87c0.65-2.78,0.19-5.75-1.54-8.07c-0.81-1.08-2.16-1.63-3.42-0.9c-1.06,0.62-1.71,2.33-0.9,3.42
			c0.95,1.26,1.4,2.64,1.03,4.21C277.33,261.67,282.14,263.01,282.88,259.87L282.88,259.87z"/>
	</g>
</g>
<g>
	<g>
		<path class="st0" d="M285.17,258.51c0.16-2.29,0.1-4.56-0.18-6.84c-0.17-1.34-1.03-2.5-2.5-2.5c-1.22,0-2.67,1.15-2.5,2.5
			c0.28,2.28,0.34,4.55,0.18,6.84c-0.1,1.35,1.22,2.5,2.5,2.5C284.1,261.01,285.08,259.86,285.17,258.51L285.17,258.51z"/>
	</g>
</g>
<g>
	<g>
		<path class="st0" d="M296.66,260.43c-1.46-0.37-2.74,0.03-3.88,0.97c-1.01,0.84-0.93,2.68,0,3.54c1.07,0.99,2.46,0.89,3.54,0
			c-0.33,0.23-0.38,0.29-0.16,0.16c-0.16,0.12-0.34,0.17-0.53,0.17c-0.24,0.02-0.26,0.03-0.05,0.01c-0.43-0.08-0.51-0.09-0.25-0.03
			c1.27,0.32,2.77-0.41,3.08-1.75C298.7,262.21,298.01,260.77,296.66,260.43L296.66,260.43z"/>
	</g>
</g>
<g>
	<g>
		<path class="st0" d="M292.92,258.22c-0.12,0.36-0.23,0.72-0.35,1.08c-0.4,1.24,0.47,2.78,1.75,3.08c1.37,0.31,2.64-0.41,3.08-1.75
			c0.12-0.36,0.23-0.72,0.35-1.08c0.4-1.24-0.47-2.78-1.75-3.08C294.63,256.16,293.35,256.89,292.92,258.22L292.92,258.22z"/>
	</g>
</g>
<g>
	<g>
		<path class="st0" d="M302.47,276.06c1.8,0.21,3.58,0.07,5.35-0.31c1.32-0.28,2.09-1.83,1.75-3.08c-0.38-1.37-1.75-2.03-3.08-1.75
			c-1.33,0.28-2.67,0.29-4.03,0.13c-1.34-0.16-2.5,1.26-2.5,2.5C299.97,275.04,301.12,275.91,302.47,276.06L302.47,276.06z"/>
	</g>
</g>
<g>
	<g>
		<path class="st0" d="M307.84,282.75c1.52-2.17,2.67-4.54,3.54-7.04c0.44-1.28-0.51-2.73-1.75-3.08c-1.38-0.38-2.63,0.47-3.08,1.75
			c-0.73,2.1-1.77,4.02-3.04,5.84c-0.77,1.11-0.2,2.78,0.9,3.42C305.67,284.38,307.07,283.86,307.84,282.75L307.84,282.75z"/>
	</g>
</g>
<g>
	<g>
		<path class="st0" d="M312.72,291.94c1.8-1.19,3.6-2.38,5.4-3.57c1.13-0.74,1.61-2.21,0.9-3.42c-0.65-1.12-2.29-1.64-3.42-0.9
			c-1.8,1.19-3.6,2.38-5.4,3.57c-1.13,0.74-1.61,2.21-0.9,3.42C309.95,292.16,311.59,292.69,312.72,291.94L312.72,291.94z"/>
	</g>
</g>
<g>
	<g>
		<path class="st0" d="M304.17,270.05c-0.19,0.38-0.39,0.76-0.58,1.13c-0.59,1.16-0.34,2.77,0.9,3.42c1.14,0.6,2.79,0.35,3.42-0.9
			c0.19-0.38,0.39-0.76,0.58-1.13c0.59-1.16,0.34-2.77-0.9-3.42C306.45,268.55,304.81,268.81,304.17,270.05L304.17,270.05z"/>
	</g>
</g>
<g>
	<g>
		<path class="st0" d="M115.75,285.35c3.5-1.27,10.7-3.86,12.31,1.41c0.94,3.07,5.77,1.76,4.82-1.33
			c-2.56-8.39-11.95-7.26-18.46-4.9C111.42,281.62,112.71,286.45,115.75,285.35L115.75,285.35z"/>
	</g>
</g>
<g>
	<g>
		<path class="st0" d="M115.41,287.82c2.24,2.34,5.36,1.73,7.94,0.4c0.55-0.28,1.92-0.68,2.31-1.07c0.14-0.39,0.28-0.79,0.41-1.18
			c-0.44,0.19-0.88,0.36-1.33,0.52c-1.89,0.67-3.85,1.09-5.84,1.37c-3.17,0.45-1.82,5.27,1.33,4.82c3.6-0.51,12.61-2,9.99-7.61
			c-0.96-2.06-3.18-3.15-5.4-2.81c-1.23,0.19-2.31,0.73-3.39,1.31c-0.52,0.28-1.93,1.29-2.48,0.71
			C116.72,281.96,113.19,285.49,115.41,287.82L115.41,287.82z"/>
	</g>
</g>
<g>
	<g>
		<path class="st0" d="M119.15,288.14c3.22,0,3.22-5,0-5C115.93,283.14,115.93,288.14,119.15,288.14L119.15,288.14z"/>
	</g>
</g>
<g>
	<g>
		<path class="st0" d="M119.15,286.91c3.22,0,3.22-5,0-5C115.93,281.91,115.93,286.91,119.15,286.91L119.15,286.91z"/>
	</g>
</g>
<g>
	<g>
		<path class="st0" d="M248.5,180.1c-0.19-0.7,0.4-1.23,0.96-1.56c0.65-0.38,2.31-1.03,2.92-0.91c-0.37-0.21-0.74-0.43-1.1-0.64
			c-0.12-0.33-0.09-0.23,0.07,0.31c0.07,0.21,0.12,0.43,0.14,0.65c0.03,0.16,0.04,0.31,0.01,0.47c0.19-0.14,0.18-0.2-0.05-0.18
			c0.44,0,0.89,0,1.33,0c-0.22-0.03,0.04,0.48-0.03,0.05c-0.04-0.22-0.34-0.65-0.44-0.83c-0.34-0.62-0.74-1.2-1.26-1.69
			c-2.35-2.2-5.89,1.33-3.54,3.54c0.79,0.74,1.01,1.93,1.84,2.71c1.13,1.05,2.69,1.36,4.13,0.85c3.34-1.16,3.5-5.27,2.31-8.05
			c-1.42-3.31-5.86-2.08-8.39-0.83c-2.78,1.37-4.55,4.35-3.72,7.44C244.51,184.54,249.33,183.22,248.5,180.1L248.5,180.1z"/>
	</g>
</g>
<g>
	<g>
		<path class="st0" d="M183.66,289.25c1.43-1.2,3.04-2.22,4.77-2.93c0.8-0.33,1.63-0.59,2.46-0.8c0.51-0.13,2.23-0.11,2.62-0.44
			c-0.45-0.23-0.86-0.16-1.24,0.22c-0.23,0.07-0.47,0.14-0.7,0.21c-0.7,0.22-1.43,0.32-2.13,0.55c-1.43,0.46-2.83,1.12-3.8,2.3
			c-1.77,2.16-1.67,5.43,0.36,7.4c2.26,2.19,5.38,1.73,7.64-0.11c0.68-0.55,0.86-1.64,0.64-2.43c-0.55-2.05-2.09-3.14-3.99-3.88
			c-0.73-0.28-1.59-0.71-2.35-0.87c-0.88-0.18,0.04-0.03,0.41,0.47c0.43,0.56,0.53,1.25,0.64,1.92c0.5,3.17,5.32,1.82,4.82-1.33
			c-0.39-2.47-1.88-4.85-4.34-5.68c-2.39-0.8-5.25,0.32-6.38,2.62c-1.04,2.09-0.27,4.44,1.54,5.79c0.82,0.62,4.63,1.51,4.84,2.28
			c0.21-0.81,0.43-1.62,0.64-2.43c-0.98-0.14-1.02-0.45-0.11-0.94c0.26-0.1,0.51-0.2,0.77-0.3c0.67-0.28,1.44-0.34,2.13-0.55
			c1.31-0.39,2.68-0.92,3.67-1.9c1.81-1.77,2.28-4.92,0.53-6.9c-2.04-2.31-5.84-1.37-8.38-0.61c-3.22,0.97-6.04,2.64-8.61,4.79
			C177.65,287.78,181.21,291.3,183.66,289.25L183.66,289.25z"/>
	</g>
</g>
<g>
	<g>
		<path class="st0" d="M45.47,108.48c4.29,0.58,7.97-3.22,7.1-7.57c-0.81-4.07-5.59-5.87-9.26-4.69c-3.75,1.21-6.48,6.25-3.62,9.66
			c3.29,3.92,9.35,0.15,8.27-4.51c-0.72-3.13-5.54-1.81-4.82,1.33c-0.25-1.09,0.2,0.04-0.06-0.16c-0.04,0.03-0.08,0.04-0.13,0.04
			c-0.22,0-0.05,0.02,0.51,0.06c-0.12,0,0.19,0.12,0.09,0.21c0.02-0.02,0.02-0.5,0.04-0.57c0.21-1.05,1.27-1.47,2.24-1.43
			c0.68,0.03,1.68,0.31,1.86,1.07c0.09,0.39-0.39,1.81-0.9,1.74c-1.34-0.18-2.68,0.32-3.08,1.75
			C43.4,106.57,44.12,108.3,45.47,108.48L45.47,108.48z"/>
	</g>
</g>
<g>
	<g>
		<path class="st0" d="M146.75,20.99c-6.14,7.32,3.65,17,9.95,9.53c-1.39-0.37-2.79-0.74-4.18-1.1c1.02,4.51,3.02,9.15,8.22,9.72
			c5.44,0.6,9.42-3.63,10.16-8.7c-1.22,0.5-2.45,1-3.67,1.49c3.41,2.22,8.26,2.77,11.03-0.79c2.63-3.39,1.48-7.66-2.03-9.78
			c-3.09-1.87-7.54-1.88-8.39,2.32c-0.94,4.61,3.73,6.37,7.38,6.65c2.32,0.18,3.08-2.78,1.77-4.27c-2.25-2.56-6.24-6.99-10.08-6.23
			c-3.44,0.68-5.31,5.51-6.4,8.45c-0.85,2.31-1.51,5.95,1.6,6.96c4.15,1.34,5.61-4.7,6.71-7.3c0.85-2.01-0.54-4.14-2.82-3.67
			c-1.75,0.36-5.73,1.38-6.69,3.27c-0.01,0.02,1.51,2.16,0.52-0.79c-0.25-0.75-0.7-1.56-1.22-2.15c-2.71-3.11-7.14-2.59-9.61,0.44
			c-1.43,1.76-0.17,5.05,2.43,4.18c2.34-0.79,5.43-0.69,5.15,2.72c-0.24,2.86,4.18,3.32,4.91,0.66c0.83-3.01,4.51-9.85,0.99-12.24
			c-3.2-2.17-9.35-0.5-12.44,1.09c-2.87,1.48-0.35,5.73,2.52,4.32c3.66-1.8,7.28-2.29,11.3-1.83c3.19,0.36,3.17-4.64,0-5
			c-4.94-0.56-9.38,0.33-13.82,2.51c0.84,1.44,1.68,2.88,2.52,4.32c1.04-0.54,5.69-1.73,5.96-1.23c0.48,0.87-1.57,5.69-1.86,6.74
			c1.64,0.22,3.27,0.44,4.91,0.66c0.24-2.92,0.02-6.18-2.54-8.12c-2.95-2.23-5.92-0.44-8.94,0.58c0.81,1.39,1.62,2.79,2.43,4.18
			c0.56-0.69,2.46,1.24,2.66,1.5c0.26,0.34,0.21,0.97,0.46,1.35c0.54,0.85,1.65,1.5,2.61,1.67c3.21,0.54,6.11-3.4,9.07-4.01
			c-0.94-1.22-1.88-2.45-2.82-3.67c-0.56,1.32-1.29,4.76-2.69,5.38c0.84,0,1.68,0,2.52,0c0.88,0.63,2.1-4.78,3.4-5.35
			c1.73-0.77,4.47,2.73,5.72,4.15c0.59-1.42,1.18-2.85,1.77-4.27c-3.76-0.29-1.35,4.96-5.46,2.28c-1.23-0.8-3.44-0.08-3.67,1.49
			c-0.46,3.11-3.43,7.81-7.41,3.23c-0.85-0.98-1.06-3.06-1.33-4.25c-0.39-1.75-2.98-2.53-4.18-1.1c-2.14,2.15-3.09,1.33-2.88-2.46
			C152.34,22.07,148.82,18.52,146.75,20.99L146.75,20.99z"/>
	</g>
</g>
<g>
	<g>
		<path class="st0" d="M29.12,76.39c-1.8-0.93-3.65-1.57-5.65-1.86c-3.2-0.45-4.32,3.57-1.33,4.82c2.23,0.93,4.45,1.87,6.68,2.8
			c1.01,0.42,2.3-0.29,2.82-1.15c1.91-3.17,2.92-6.68,3.04-10.38c0.07-2.2-2.77-3.25-4.27-1.77c-1.55,1.54-2.61,3.33-3.26,5.41
			c-0.96,3.08,3.87,4.4,4.82,1.33c0.4-1.28,1.03-2.26,1.98-3.2c-1.42-0.59-2.85-1.18-4.27-1.77c-0.1,2.84-0.9,5.43-2.36,7.85
			c0.94-0.38,1.88-0.77,2.82-1.15c-2.23-0.93-4.45-1.87-6.68-2.8c-0.44,1.61-0.89,3.21-1.33,4.82c1.58,0.22,3.03,0.62,4.46,1.35
			C29.45,82.17,31.98,77.86,29.12,76.39L29.12,76.39z"/>
	</g>
</g>
<g>
</g>
<g>
</g>
<g>
</g>
<g>
</g>
<g>
</g>
<g>
</g>
</svg>
